<?xml version="1.0" standalone="no"?><!DOCTYPE svg PUBLIC "-//W3C//DTD SVG 1.1//EN" "http://www.w3.org/Graphics/SVG/1.1/DTD/svg11.dtd" ><svg xmlns="http://www.w3.org/2000/svg"><metadata></metadata><defs><font id="fonteditor" horiz-adv-x="1000"><font-face font-family="uuWmwb¥[WOS" font-weight="400" font-stretch="normal" units-per-em="1000" panose-1="4 11 12 0 0 0 0 0 0 0" ascent="860" descent="-140" x-height="0" bbox="0 -140 1000 860" underline-thickness="0" underline-position="0" unicode-range="U+0021-ffe5" /><missing-glyph horiz-adv-x="1000"  /><glyph glyph-name="exclam" unicode="!" d="M254 597 Q254 587 198 192 L134 192 L79 597 Q79 638 101 664 Q123 689 166 689 Q207 689 232 664 Q254 636 254 597 ZM243 79 Q243 48 221 24 Q199 0 167 0 Q135 0 112 24 Q90 46 90 79 Q90 112 112 135 Q135 158 167 158 Q198 158 221 135 Q243 110 243 79 Z" /><glyph glyph-name="quotedbl" unicode="&quot;" d="M264 397 L220 398 L190 608 Q189 613 189 623 Q189 689 243 689 Q294 689 294 622 Q294 614 292 596 L264 397 ZM125 397 L81 398 L51 608 Q50 613 50 623 Q50 689 104 689 Q155 689 155 622 Q155 614 153 596 L125 397 Z" /><glyph glyph-name="numbersign" unicode="#" d="M616 420 L530 420 L514 265 L587 265 L587 156 L501 156 L485 0 L371 0 L386 156 L294 156 L278 0 L166 0 L182 156 L98 156 L98 265 L196 265 L211 420 L127 420 L127 528 L225 528 L242 689 L354 689 L336 528 L429 528 L446 689 L560 689 L543 528 L616 528 L616 420 ZM415 420 L323 420 L308 265 L399 265 L415 420 Z" /><glyph glyph-name="dollar" unicode="$" d="M644 263 Q644 192 569 126 Q507 73 425 41 L425 -79 L361 -79 L361 23 Q282 0 224 0 Q139 0 99 22 Q70 37 70 58 Q70 87 106 120 Q137 146 149 146 L178 136 Q201 126 224 126 Q282 126 361 152 L361 299 Q264 302 225 317 Q153 344 153 421 Q153 489 225 555 Q277 603 361 640 L361 734 L425 734 L425 664 Q509 689 555 689 Q599 689 599 660 Q599 644 561 627 Q485 593 425 551 L425 395 L468 396 Q527 396 582 360 Q644 318 644 263 ZM361 495 Q301 443 301 416 Q301 398 361 393 L361 495 ZM492 270 Q492 285 425 294 L425 172 Q448 182 469 209 Q492 240 492 270 Z" /><glyph glyph-name="percent" unicode="%" d="M712 206 Q712 123 654 62 Q598 0 515 0 Q452 0 419 40 Q388 75 388 140 Q388 173 408 216 Q425 253 451 282 Q523 362 578 362 Q586 362 599 353 Q712 353 712 206 ZM722 630 L96 4 L38 63 L664 689 L722 630 ZM354 532 Q354 449 296 388 Q238 327 156 327 Q93 327 60 367 Q30 403 30 466 Q30 499 50 542 Q67 579 93 609 Q165 689 220 689 Q228 689 241 680 Q354 678 354 532 ZM603 259 Q603 301 591 301 Q572 301 526 219 Q498 169 498 127 Q498 69 522 69 Q545 69 568 110 Q585 141 593 170 Q603 210 603 259 ZM245 589 Q245 628 232 628 Q214 628 168 546 Q140 496 140 454 Q140 396 163 396 Q206 396 234 497 Q245 538 245 589 Z" /><glyph glyph-name="ampersand" unicode="&amp;" d="M671 129 Q622 -2 528 -2 Q478 -2 418 49 Q347 0 244 0 Q148 0 92 47 Q30 96 30 189 Q30 293 189 389 Q146 484 146 533 Q146 608 196 649 Q241 688 313 688 Q371 688 416 651 Q458 614 458 553 Q458 459 328 386 Q417 239 449 202 Q490 266 490 323 L486 336 Q482 344 482 350 Q482 361 492 372 Q501 383 516 383 Q536 383 549 368 Q562 352 562 335 Q562 235 504 139 Q536 106 556 106 Q592 106 635 154 L671 129 ZM338 562 Q338 632 310 632 Q292 632 281 610 Q270 588 270 554 Q270 506 291 456 Q338 495 338 562 ZM358 112 Q285 196 224 316 Q162 260 162 199 Q162 151 193 121 Q223 91 281 91 Q319 91 358 112 Z" /><glyph glyph-name="quotesingle" unicode="&#39;" d="M237 595 Q237 543 192 498 Q175 481 143 455 L114 433 L87 452 L109 494 Q121 517 121 524 Q121 543 86 592 Q70 612 70 623 Q70 644 114 667 Q153 688 178 688 Q196 688 217 652 Q237 615 237 595 Z" /><glyph glyph-name="parenleft" unicode="(" d="M274 -89 Q153 -20 87 94 Q19 206 19 345 Q19 482 87 596 Q154 708 273 778 L314 719 Q154 563 154 345 Q154 125 314 -29 L274 -89 Z" /><glyph glyph-name="parenright" unicode=")" d="M314 345 Q314 209 246 94 Q178 -20 59 -89 L19 -29 Q179 126 179 345 Q179 562 19 719 L60 778 Q178 708 246 596 Q314 480 314 345 Z" /><glyph glyph-name="asterisk" unicode="*" d="M402 418 Q402 396 389 380 Q376 363 354 363 Q324 363 302 388 Q274 416 242 456 Q273 361 273 345 Q273 290 221 290 Q169 290 169 345 Q169 365 200 455 Q171 421 140 388 Q116 363 88 363 Q64 363 53 380 Q40 394 40 418 Q40 458 93 471 Q127 479 181 489 Q150 495 93 509 Q40 521 40 561 Q40 584 53 600 Q65 617 88 617 Q115 617 140 592 L200 525 Q169 614 169 635 Q169 689 221 689 Q273 689 273 635 Q273 617 242 524 Q283 572 302 592 Q325 617 354 617 Q375 617 389 600 Q402 582 402 561 Q402 521 351 509 Q284 493 262 489 Q311 480 350 471 Q402 457 402 418 Z" /><glyph glyph-name="plus" unicode="+" d="M496 192 L327 192 L327 12 L210 12 L210 192 L40 192 L40 307 L210 307 L210 487 L327 487 L327 307 L496 307 L496 192 Z" /><glyph glyph-name="comma" unicode="," d="M237 75 Q237 23 192 -22 L143 -65 L114 -87 L87 -68 L109 -26 Q121 -2 121 4 Q121 23 86 72 Q70 92 70 103 Q70 124 114 147 Q153 168 178 168 Q196 168 217 132 Q237 95 237 75 Z" /><glyph glyph-name="hyphen" unicode="-" d="M291 192 L41 192 L41 307 L291 307 L291 192 Z" /><glyph glyph-name="period" unicode="." d="M237 84 Q237 48 213 24 Q188 0 153 0 Q117 0 93 24 Q69 48 69 84 Q69 120 93 144 Q117 168 153 168 Q188 168 213 144 Q237 119 237 84 Z" /><glyph glyph-name="slash" unicode="/" d="M264 784 L127 -95 L14 -80 L151 799 L264 784 Z" /><glyph glyph-name="zero" unicode="0" d="M656 392 Q656 236 552 120 Q444 0 290 0 Q171 0 112 77 Q58 146 58 265 Q58 344 113 448 Q167 549 247 622 Q333 699 409 699 Q428 699 447 683 Q559 683 613 590 Q656 513 656 392 ZM521 443 Q521 600 432 600 Q349 600 274 460 Q206 336 206 240 Q206 190 231 155 Q258 113 304 113 Q405 113 467 232 Q521 331 521 443 Z" /><glyph glyph-name="one" unicode="1" d="M439 512 Q436 410 436 390 L438 34 Q438 0 394 0 L318 0 Q276 0 276 35 Q276 182 314 536 Q251 527 256 527 Q225 527 225 563 Q225 584 237 612 Q251 644 269 644 Q273 644 288 639 Q298 634 308 634 Q328 634 374 662 Q421 689 426 689 Q445 689 445 667 L439 512 Z" /><glyph glyph-name="two" unicode="2" d="M632 147 Q632 64 498 28 Q398 0 211 0 Q153 0 126 12 Q85 30 85 79 Q85 147 217 318 Q397 551 397 564 Q397 570 390 570 Q371 570 249 525 Q126 480 116 480 Q82 480 82 519 Q82 552 108 590 Q132 628 151 628 Q156 628 165 622 Q173 616 178 618 Q362 689 458 689 Q502 689 528 660 Q553 630 553 587 Q553 551 482 445 Q449 401 385 313 Q368 289 333 229 Q292 159 292 141 Q292 132 340 132 Q401 132 498 162 Q594 192 591 192 Q632 192 632 147 Z" /><glyph glyph-name="three" unicode="3" d="M614 333 Q614 284 522 184 Q452 110 386 57 Q301 -12 268 -12 Q245 -12 200 26 Q154 62 154 78 Q154 98 176 113 Q202 127 215 135 Q339 213 412 270 Q459 306 459 327 Q459 346 413 346 Q392 346 302 330 Q219 314 207 314 Q172 314 172 355 Q172 377 294 475 Q360 529 390 559 L254 539 Q172 526 142 526 Q100 526 100 551 Q100 598 130 631 Q154 657 169 657 Q177 657 186 648 Q194 640 207 640 Q237 640 348 664 Q464 689 476 689 Q514 689 544 674 Q582 656 582 620 Q582 594 518 518 L455 441 Q455 436 462 436 Q518 436 562 414 Q614 386 614 333 Z" /><glyph glyph-name="four" unicode="4" d="M684 357 Q684 310 663 277 Q648 255 483 178 Q463 72 463 29 Q463 3 435 3 L331 0 Q308 0 308 24 Q308 45 321 129 Q258 120 203 120 Q30 120 30 230 Q30 301 125 424 Q180 495 282 587 Q401 695 441 695 Q462 695 462 656 Q462 639 389 548 Q330 478 296 436 Q274 408 233 344 Q184 270 184 254 Q184 244 211 244 Q248 244 348 266 Q371 359 432 464 Q492 568 524 568 Q545 568 545 552 Q545 521 528 442 L503 317 Q526 321 596 346 Q667 369 673 369 Q684 369 684 357 Z" /><glyph glyph-name="five" unicode="5" d="M645 23 Q644 0 619 0 L503 1 Q481 1 481 27 Q481 37 492 96 Q504 159 504 192 Q504 289 426 289 Q372 289 247 244 Q122 198 109 198 Q93 198 81 207 Q65 217 65 239 Q65 293 117 416 Q163 526 202 587 Q267 689 305 689 Q328 689 328 662 Q328 646 325 619 Q375 619 487 641 Q557 652 600 665 Q611 661 611 642 Q611 624 604 604 Q595 576 586 569 Q556 544 446 526 L300 507 L256 369 Q353 412 470 412 Q511 412 556 384 Q599 355 622 317 Q649 271 649 184 L645 23 Z" /><glyph glyph-name="six" unicode="6" d="M632 300 Q632 177 532 88 Q431 0 307 0 Q82 0 82 197 Q82 280 186 417 Q268 525 357 602 Q469 699 529 699 Q553 699 553 671 Q553 655 489 570 L381 431 Q416 438 453 438 Q520 438 573 404 Q632 365 632 300 ZM513 296 Q513 346 426 346 Q354 346 309 316 Q250 278 250 173 Q250 150 272 137 Q290 125 315 125 Q375 125 444 182 Q513 238 513 296 Z" /><glyph glyph-name="seven" unicode="7" d="M626 675 Q626 669 597 587 Q505 330 457 26 Q453 0 422 0 Q399 0 373 2 L329 3 Q296 3 296 28 Q296 56 323 173 Q380 425 437 556 Q290 523 131 523 Q113 523 102 534 Q88 544 88 562 Q88 594 127 630 Q163 663 179 663 L196 652 Q210 642 233 642 Q277 642 424 666 Q571 689 606 689 Q626 689 626 675 Z" /><glyph glyph-name="eight" unicode="8" d="M627 562 Q627 545 593 517 Q457 410 411 363 Q536 255 536 154 Q536 74 449 32 Q382 0 290 0 Q201 0 150 35 Q87 76 87 159 Q87 251 220 359 Q170 402 153 424 Q122 464 122 510 Q122 568 185 619 Q239 664 304 679 Q367 694 395 694 Q450 694 450 668 Q450 657 438 651 Q425 644 414 639 Q338 599 293 567 Q262 543 262 513 Q262 488 328 440 Q392 493 467 533 Q562 582 602 582 Q627 582 627 562 ZM383 159 Q383 213 312 272 Q238 205 238 148 Q238 106 313 106 Q341 106 362 120 Q383 134 383 159 Z" /><glyph glyph-name="nine" unicode="9" d="M608 529 Q606 518 604 496 Q596 443 594 413 Q588 354 567 190 Q547 50 547 33 Q547 0 501 0 L441 0 Q395 0 395 33 Q395 87 418 190 Q439 295 461 353 Q363 289 255 289 Q106 289 106 421 Q106 458 145 521 Q195 601 312 649 Q415 689 512 689 Q536 689 560 681 Q591 669 591 649 Q591 628 552 620 Q462 600 409 577 Q345 548 279 497 Q233 461 233 424 Q233 393 290 393 Q354 393 504 476 Q549 547 586 547 Q608 547 608 529 Z" /><glyph glyph-name="colon" unicode=":" d="M237 400 Q237 364 213 340 Q188 316 153 316 Q118 316 94 341 Q69 365 69 400 Q69 436 93 460 Q118 485 153 485 Q186 485 213 460 Q237 435 237 400 ZM237 84 Q237 48 213 24 Q188 0 153 0 Q117 0 93 24 Q69 48 69 84 Q69 120 93 144 Q117 168 153 168 Q188 168 213 144 Q237 119 237 84 Z" /><glyph glyph-name="semicolon" unicode=";" d="M237 400 Q237 364 213 340 Q188 316 153 316 Q118 316 94 341 Q69 365 69 400 Q69 436 93 460 Q118 485 153 485 Q186 485 213 460 Q237 435 237 400 ZM237 75 Q237 23 192 -22 Q162 -52 114 -88 L87 -69 Q121 -1 121 4 Q121 23 86 72 Q70 92 70 103 Q70 123 114 146 Q156 168 178 168 Q196 168 217 132 Q237 95 237 75 Z" /><glyph glyph-name="less" unicode="&lt;" d="M501 -2 L35 249 L501 500 L501 371 L274 250 L501 127 L501 -2 Z" /><glyph glyph-name="equal" unicode="=" d="M496 295 L40 295 L40 410 L496 410 L496 295 ZM496 89 L40 89 L40 204 L496 204 L496 89 Z" /><glyph glyph-name="greater" unicode="&gt;" d="M501 249 L35 -2 L35 127 L262 250 L35 371 L35 500 L501 249 Z" /><glyph glyph-name="question" unicode="?" d="M482 515 Q482 430 381 358 Q328 318 313 295 Q290 261 290 194 L228 194 Q228 282 245 330 Q261 377 298 422 Q349 485 349 531 Q349 576 316 603 Q282 629 239 629 Q188 629 150 607 Q114 585 114 556 Q114 549 133 545 Q157 537 167 529 Q186 510 186 479 Q186 450 166 430 Q146 411 115 411 Q73 411 51 443 Q30 470 30 509 Q30 592 106 644 Q172 689 254 689 Q340 689 407 644 Q482 593 482 515 ZM332 76 Q332 46 310 22 Q287 0 256 0 Q224 0 202 22 Q180 44 180 76 Q180 108 202 130 Q223 151 256 151 Q288 151 310 130 Q332 106 332 76 Z" /><glyph glyph-name="at" unicode="@" d="M755 293 Q717 150 625 76 Q533 0 390 0 Q228 0 130 92 Q30 185 30 344 Q30 488 138 588 Q247 689 400 689 Q548 689 636 612 Q724 535 724 408 Q724 315 655 229 Q587 143 500 143 Q442 143 418 185 Q364 143 314 143 Q262 143 232 183 Q205 219 205 270 Q205 360 266 449 Q333 546 412 546 Q453 546 471 522 L473 534 L594 534 L525 243 Q521 226 541 226 Q567 226 606 281 Q650 342 650 408 Q650 610 400 610 Q300 610 230 519 Q169 437 169 344 Q169 217 234 149 Q299 80 410 80 Q511 80 594 144 Q672 202 708 293 L755 293 ZM457 457 Q450 475 435 475 Q398 475 362 393 Q329 317 329 263 Q329 240 349 240 Q369 240 392 262 Q415 282 420 303 L457 457 Z" /><glyph glyph-name="A" unicode="a" d="M741 32 Q741 1 708 2 L595 5 Q565 5 553 39 Q504 167 482 244 Q395 217 260 202 Q243 172 226 114 L198 22 Q191 1 172 3 L51 7 Q30 7 30 32 Q30 73 90 221 Q194 478 313 611 Q382 689 420 689 Q451 689 496 597 Q555 473 646 266 Q741 44 741 32 ZM456 329 Q435 398 396 536 Q332 443 297 321 Q318 316 352 316 Q392 316 456 329 Z" /><glyph glyph-name="B" unicode="b" d="M637 217 Q637 87 409 33 Q270 0 83 0 Q35 0 35 75 Q35 303 104 498 Q172 689 250 689 Q267 689 267 650 Q384 689 472 689 Q514 689 549 649 Q584 608 584 565 Q584 504 499 401 Q637 338 637 217 ZM522 227 Q522 279 451 312 Q390 338 311 341 Q287 341 287 357 Q287 366 306 384 Q455 524 455 566 Q455 587 418 587 Q347 587 240 535 Q227 484 211 336 Q196 197 196 125 Q196 97 197 92 Q283 92 385 121 Q522 160 522 227 Z" /><glyph glyph-name="C" unicode="c" d="M655 170 Q655 110 537 56 Q422 0 273 0 Q170 0 104 57 Q35 117 35 219 Q35 365 122 479 Q181 556 282 620 Q392 689 478 689 Q555 689 555 671 Q555 655 518 635 Q421 583 387 559 Q327 517 277 449 Q193 335 193 217 Q193 119 310 119 Q461 119 588 178 Q644 203 640 203 Q655 203 655 170 Z" /><glyph glyph-name="D" unicode="d" d="M663 431 Q663 224 462 102 Q293 0 77 0 Q35 0 35 92 Q35 240 71 370 Q131 591 233 682 Q266 712 281 712 Q296 712 299 698 L298 673 Q340 688 409 688 Q519 688 591 614 Q663 541 663 431 ZM557 471 Q557 536 511 573 Q468 605 402 605 Q330 605 263 564 Q225 434 220 408 Q197 299 197 111 Q326 111 441 225 Q557 338 557 471 Z" /><glyph glyph-name="E" unicode="e" d="M682 201 Q682 180 669 146 Q654 113 553 74 Q476 44 380 23 Q279 0 206 0 Q123 0 86 23 Q35 53 35 128 Q35 261 150 542 Q95 549 95 573 Q95 604 140 637 Q178 664 192 664 Q193 664 209 653 Q221 642 239 642 Q307 642 409 657 Q523 673 607 695 L627 699 Q640 699 640 684 Q640 673 630 646 Q620 621 610 611 Q578 576 280 537 Q253 470 231 376 Q244 372 256 372 Q338 372 510 421 L543 430 Q562 430 562 416 Q562 382 542 354 Q516 316 385 290 Q282 269 207 269 Q190 201 190 145 Q190 106 235 106 Q382 106 640 208 L667 218 Q682 218 682 201 Z" /><glyph glyph-name="F" unicode="f" d="M624 405 Q624 384 604 344 Q561 257 225 257 L199 26 Q196 0 156 0 Q143 0 126 1 L98 2 Q35 2 35 27 L125 553 Q53 558 53 581 Q53 609 91 644 Q131 679 151 679 Q153 679 172 666 Q189 654 197 654 Q351 654 570 707 Q581 709 586 711 Q601 711 601 696 Q601 701 582 642 Q570 610 480 586 Q405 567 258 547 Q246 475 237 376 Q355 376 487 397 Q575 412 608 419 Q624 416 624 405 Z" /><glyph glyph-name="G" unicode="g" d="M727 372 Q714 334 655 322 Q639 273 629 179 Q620 94 620 32 Q620 1 581 1 L490 0 Q468 0 468 22 Q468 53 480 104 Q383 43 233 43 Q145 43 91 94 Q35 144 35 233 Q35 371 136 484 Q221 580 362 641 Q473 689 545 689 Q602 689 602 666 Q602 642 550 614 L475 580 Q372 526 287 436 Q186 328 186 233 Q186 148 271 148 Q349 148 416 192 Q485 234 521 303 Q496 303 449 300 Q417 298 393 298 Q368 298 348 305 Q318 316 318 335 Q318 363 346 392 Q373 421 401 421 Q405 416 415 408 Q428 395 457 395 Q524 395 671 423 Q716 431 723 431 Q742 431 742 413 L727 372 Z" /><glyph glyph-name="H" unicode="h" d="M678 692 Q678 678 672 589 Q659 403 659 358 Q659 285 664 192 Q669 69 669 26 Q669 0 633 0 L548 3 Q505 5 506 30 Q511 183 511 289 Q424 273 370 268 Q323 263 219 263 Q208 210 203 26 Q202 0 173 0 L66 3 Q40 3 40 25 Q40 165 65 318 Q83 437 146 555 Q214 685 275 685 Q289 685 289 667 Q289 659 280 623 Q268 581 261 545 Q240 447 232 375 L366 371 Q440 371 517 384 Q517 487 563 594 Q610 704 664 704 Q678 704 678 692 Z" /><glyph glyph-name="I" unicode="i" d="M262 671 Q256 550 256 374 Q256 279 257 204 L259 34 Q259 4 201 4 L148 3 Q93 3 93 32 Q93 315 148 547 Q163 611 192 653 Q218 689 239 689 Q262 689 262 671 Z" /><glyph glyph-name="J" unicode="j" d="M550 671 Q550 675 546 645 Q541 618 541 608 Q525 355 525 192 Q525 76 454 34 Q401 0 275 0 Q134 0 65 75 Q35 107 35 134 Q35 186 78 186 Q104 186 134 164 Q176 131 203 119 Q233 104 273 104 Q363 104 369 169 Q376 271 399 477 Q411 566 447 627 Q485 692 532 692 Q550 692 550 671 Z" /><glyph glyph-name="K" unicode="k" d="M694 96 Q694 87 689 80 Q649 34 611 5 Q596 -5 587 -5 Q576 -5 565 3 Q513 40 425 112 Q296 217 220 287 Q208 234 205 202 Q190 99 190 26 Q190 6 165 8 L62 11 Q35 11 35 31 Q35 125 68 281 Q107 461 161 557 Q236 689 286 689 Q301 689 301 677 Q301 668 295 647 Q268 552 239 406 L251 396 Q302 457 376 523 Q467 605 529 630 Q552 639 575 639 Q599 639 599 612 Q599 609 556 560 Q513 512 402 366 L368 323 Q401 300 493 239 L686 113 Q694 107 694 96 Z" /><glyph glyph-name="L" unicode="l" d="M651 172 Q648 143 640 130 Q618 96 544 67 Q377 0 188 0 Q117 0 79 32 Q35 66 35 135 Q35 192 67 305 Q124 513 232 649 Q272 698 303 698 Q320 698 320 678 Q320 665 312 641 Q282 554 249 440 Q191 241 191 164 Q191 114 288 114 Q426 114 565 182 Q612 204 635 216 Q653 216 653 201 L651 172 Z" /><glyph glyph-name="M" unicode="m" d="M798 24 Q798 0 751 0 L677 0 Q631 0 625 77 Q608 251 605 489 Q581 441 538 336 L468 170 Q444 114 386 114 Q362 114 350 153 Q323 239 281 456 Q249 346 187 32 Q181 0 144 0 L69 0 Q30 0 30 29 Q30 92 60 201 Q91 312 150 449 Q215 598 266 663 Q286 689 316 689 Q346 689 364 638 Q397 546 442 366 Q539 550 618 662 Q638 691 672 691 Q728 691 728 533 Q728 425 785 107 Q798 29 798 24 Z" /><glyph glyph-name="N" unicode="n" d="M792 666 Q792 664 783 632 Q740 479 700 134 Q691 61 674 36 Q655 6 607 6 Q555 6 525 37 Q504 58 480 116 L315 506 Q299 461 285 415 Q253 318 197 38 Q194 23 181 10 Q170 0 152 0 L58 3 Q30 3 30 42 Q30 80 54 171 Q118 415 254 620 Q291 675 330 675 Q361 675 392 623 Q467 491 565 290 Q589 400 649 530 Q721 689 775 689 Q792 689 792 666 Z" /><glyph glyph-name="O" unicode="o" d="M725 385 Q724 221 581 107 Q449 0 282 0 Q178 0 109 62 Q35 124 35 227 Q35 323 107 435 Q176 542 275 613 Q381 689 470 689 Q483 689 497 670 Q610 659 670 577 Q725 503 725 385 ZM588 452 Q588 513 556 556 Q520 601 462 601 Q383 601 286 453 Q195 314 195 230 Q195 177 223 145 Q252 112 303 112 Q425 112 510 223 Q588 325 588 452 Z" /><glyph glyph-name="P" unicode="p" d="M618 495 Q618 389 462 296 Q360 236 213 191 Q200 114 200 32 Q200 0 159 0 L74 0 Q57 0 46 12 Q35 23 35 41 Q35 76 57 223 Q82 398 113 530 Q92 521 77 521 Q49 521 49 545 Q49 573 78 614 Q107 654 133 654 Q138 654 147 648 Q156 642 158 642 Q178 642 254 666 Q331 689 376 689 Q481 689 544 647 Q618 596 618 495 ZM477 522 Q477 556 443 576 Q415 590 378 590 Q348 590 315 580 L255 561 Q243 557 231 484 Q219 411 219 308 Q240 312 292 336 Q477 422 477 522 Z" /><glyph glyph-name="Q" unicode="q" d="M740 407 Q740 285 645 154 Q722 94 722 88 Q722 68 683 27 Q642 -14 624 -14 Q614 -14 535 69 Q421 0 285 0 Q178 0 110 58 Q35 120 35 223 Q35 327 100 436 Q163 544 260 614 Q364 689 466 689 Q483 689 504 671 Q609 653 675 584 Q740 513 740 407 ZM601 423 Q601 497 563 546 Q520 598 450 598 Q371 598 278 440 Q190 294 190 207 Q190 106 296 106 Q380 106 458 157 Q435 191 412 235 Q403 250 403 271 Q403 292 420 292 Q456 292 533 243 Q601 314 601 423 Z" /><glyph glyph-name="R" unicode="r" d="M757 90 Q757 73 713 37 Q662 -5 642 -5 Q621 -5 499 101 Q449 144 351 232 Q296 213 228 197 L200 34 Q192 7 143 8 L64 10 Q35 10 35 35 Q35 60 56 150 Q103 350 173 496 Q169 494 162 494 Q134 494 134 517 Q134 550 172 600 Q210 650 232 650 Q237 650 247 643 Q255 636 268 636 Q298 636 379 662 Q460 689 504 689 Q580 689 638 654 Q704 612 704 539 Q704 469 622 390 Q558 329 479 287 Q604 193 742 109 Q757 100 757 90 ZM586 561 Q586 576 568 585 Q551 592 535 592 Q500 592 425 567 Q356 543 320 522 Q288 427 257 313 Q466 376 571 521 Q586 542 586 561 Z" /><glyph glyph-name="S" unicode="s" d="M615 258 Q615 154 454 70 Q320 0 190 0 Q104 0 64 22 Q35 37 35 59 Q35 88 71 121 Q101 148 115 148 Q117 148 140 138 Q160 128 187 128 Q267 128 353 162 Q461 204 461 266 Q461 296 253 296 Q196 296 158 330 Q119 363 119 418 Q119 516 245 594 Q334 648 458 681 Q490 689 525 689 Q569 689 569 659 Q569 640 496 610 Q427 582 347 512 Q268 443 268 413 Q268 390 348 390 Q373 390 393 391 L437 392 Q495 392 552 356 Q615 314 615 258 Z" /><glyph glyph-name="T" unicode="t" d="M691 675 Q691 667 666 609 Q639 553 438 535 Q438 482 414 210 Q405 108 405 36 Q405 9 390 3 Q386 1 353 1 L272 0 Q243 0 243 27 Q243 154 263 305 Q278 428 301 531 Q286 530 247 531 L193 532 Q35 532 35 571 Q35 601 68 637 Q101 672 119 672 Q128 672 144 661 Q157 650 164 648 Q188 641 251 641 Q469 641 640 683 Q675 691 679 691 Q691 691 691 675 Z" /><glyph glyph-name="U" unicode="u" d="M733 632 Q733 600 719 513 Q668 199 571 99 Q521 46 410 20 Q330 0 229 0 Q35 0 35 173 Q35 381 212 591 Q271 660 298 677 Q318 689 340 689 Q360 689 360 671 Q360 619 316 531 Q247 394 230 354 Q190 256 190 162 Q190 139 220 124 Q242 110 271 110 Q350 110 414 145 Q484 182 511 247 Q523 275 561 406 Q600 538 613 572 Q625 604 652 631 Q683 662 713 662 Q733 662 733 632 Z" /><glyph glyph-name="V" unicode="v" d="M679 664 Q679 644 650 581 Q567 388 437 90 Q398 0 293 0 Q148 0 82 182 Q40 296 40 459 Q40 532 53 593 Q73 689 114 689 Q139 689 154 594 Q203 279 272 151 Q278 140 288 140 Q304 140 334 205 Q375 298 415 394 Q467 510 510 574 Q590 689 659 689 Q679 689 679 664 Z" /><glyph glyph-name="W" unicode="w" d="M769 665 Q769 659 752 542 L684 107 Q676 63 653 37 Q627 5 584 5 Q519 5 474 94 Q449 142 421 237 Q403 294 378 384 Q364 370 309 230 L244 61 Q219 0 170 0 Q112 0 76 82 Q40 160 40 313 Q40 530 98 650 Q116 690 142 690 Q163 690 163 651 Q163 357 188 251 Q313 515 392 602 Q408 618 420 618 Q437 618 448 578 Q480 449 497 385 Q526 275 554 194 Q581 308 611 422 Q646 566 684 639 Q710 689 740 689 Q769 689 769 665 Z" /><glyph glyph-name="X" unicode="x" d="M676 90 Q676 82 626 44 Q576 6 565 6 Q550 6 536 23 L329 265 Q256 155 171 17 Q160 0 146 0 Q132 0 51 57 Q30 72 30 81 Q30 96 87 183 Q132 252 226 377 Q203 406 110 511 Q34 591 34 614 Q34 635 63 635 Q80 635 157 594 Q214 562 311 483 Q421 617 540 681 Q556 689 571 689 Q597 689 597 667 Q597 649 573 619 Q478 494 412 397 Q537 285 667 110 Q676 98 676 90 Z" /><glyph glyph-name="Y" unicode="y" d="M720 662 Q720 645 679 604 Q638 563 563 497 Q470 414 446 390 Q435 207 435 23 Q435 0 403 0 L298 0 Q271 0 274 30 L302 374 L105 551 Q30 619 30 644 Q30 660 57 669 Q80 676 119 676 Q147 676 312 552 Q366 510 374 510 Q379 512 432 555 Q602 689 668 689 Q720 689 720 662 Z" /><glyph glyph-name="Z" unicode="z" d="M726 146 Q726 89 696 62 Q666 33 584 21 Q440 0 222 0 Q35 0 35 108 Q35 154 163 295 Q251 403 386 558 Q296 546 203 546 Q151 546 133 549 Q82 555 82 583 Q82 610 121 643 Q157 673 170 673 Q179 673 192 660 Q203 648 223 648 Q283 647 404 668 Q526 689 583 689 Q596 689 609 678 Q621 666 621 653 Q621 635 557 562 Q365 348 242 160 Q224 133 224 118 Q224 102 255 102 Q417 102 561 122 Q600 126 641 154 Q681 182 684 182 Q698 182 713 172 Q726 161 726 146 Z" /><glyph glyph-name="bracketleft" unicode="[" d="M294 -90 L38 -90 L38 778 L294 778 L294 663 L152 663 L152 25 L294 25 L294 -90 Z" /><glyph glyph-name="backslash" unicode="\" d="M264 -80 L151 -95 L14 784 L127 799 L264 -80 Z" /><glyph glyph-name="bracketright" unicode="]" d="M294 -90 L38 -90 L38 25 L180 25 L180 663 L38 663 L38 778 L294 778 L294 -90 Z" /><glyph glyph-name="asciicircum" unicode="^" d="M419 400 L326 400 L222 591 L118 400 L25 400 L177 689 L267 689 L419 400 Z" /><glyph glyph-name="underscore" unicode="_" d="M500 -140 L0 -140 L0 -25 L500 -25 L500 -140 Z" /><glyph glyph-name="grave" unicode="`" d="M70 529 Q70 580 115 626 Q131 642 164 669 L176 678 Q185 686 193 691 L220 672 L198 630 Q186 606 186 600 Q186 577 221 532 Q237 510 237 501 Q237 480 193 457 Q153 436 129 436 Q110 436 90 472 Q70 505 70 529 Z" /><glyph glyph-name="a" unicode="a" d="M610 88 Q610 72 596 42 Q586 20 542 9 Q509 0 476 0 Q431 0 414 10 Q388 24 388 66 L388 89 Q304 5 189 5 Q30 5 30 156 Q30 240 107 329 Q170 404 257 452 Q343 499 405 499 Q442 499 469 481 Q499 460 499 423 Q499 411 488 400 Q476 388 463 388 Q457 388 448 394 L435 399 Q378 399 289 341 Q248 315 208 253 Q165 188 165 143 Q165 101 208 101 Q278 101 355 196 Q394 244 457 351 Q466 368 490 388 Q511 406 529 406 Q557 406 557 382 Q557 361 546 262 Q535 174 535 131 Q535 86 545 86 Q559 86 579 93 Q602 100 600 100 Q610 100 610 88 Z" /><glyph glyph-name="b" unicode="b" d="M573 297 Q573 208 476 132 Q420 88 319 45 Q211 0 146 0 Q90 0 70 8 Q30 21 30 64 Q30 134 62 259 Q93 384 123 452 Q162 544 178 573 Q208 629 260 680 Q286 706 315 706 Q337 706 337 683 L324 646 Q308 604 300 580 Q273 496 253 408 Q349 435 425 435 Q482 435 528 395 Q573 355 573 297 ZM436 290 Q436 329 384 329 Q346 329 299 311 Q253 294 221 268 Q210 226 196 94 Q240 100 321 156 Q436 235 436 290 Z" /><glyph glyph-name="c" unicode="c" d="M536 174 Q536 87 433 39 Q352 0 255 0 Q161 0 103 34 Q30 76 30 162 Q30 273 109 362 Q181 445 293 481 Q347 499 407 499 Q454 499 454 459 Q454 451 367 407 Q292 369 239 317 Q169 250 169 188 Q169 101 260 101 Q338 101 400 132 Q412 138 520 209 Q536 209 536 174 Z" /><glyph glyph-name="d" unicode="d" d="M616 98 Q616 90 607 49 Q603 28 539 13 Q487 0 444 0 Q411 0 390 24 Q368 48 366 81 Q339 52 287 31 Q236 10 194 10 Q127 10 82 40 Q30 74 30 140 Q30 256 119 373 Q214 499 325 499 Q368 499 408 473 Q419 516 465 595 Q519 690 558 690 Q578 690 578 671 Q578 648 558 570 Q513 396 513 118 Q513 106 521 98 Q528 90 540 90 Q556 90 580 98 L607 107 Q616 107 616 98 ZM394 383 Q394 395 376 404 Q357 413 339 413 Q279 413 219 320 Q164 235 164 171 Q164 118 217 118 Q259 118 308 152 Q355 184 373 225 Q383 325 394 383 Z" /><glyph glyph-name="e" unicode="e" d="M560 167 Q560 177 552 100 Q548 64 437 30 Q341 0 293 0 Q30 0 30 248 Q30 347 122 424 Q209 499 310 499 Q400 499 468 437 Q534 374 534 286 Q534 262 529 252 Q523 243 504 234 Q456 213 348 201 Q261 192 187 192 Q196 105 301 105 Q363 105 423 125 Q463 138 510 163 Q548 183 549 183 Q560 183 560 167 ZM424 320 Q424 357 378 382 Q338 402 299 402 Q256 402 220 366 Q182 328 182 286 Q197 281 243 281 Q286 281 333 286 Q404 292 416 301 Q424 307 424 320 Z" /><glyph glyph-name="f" unicode="f" d="M335 649 Q335 617 296 609 Q277 604 262 577 Q240 538 238 482 L321 497 Q332 497 332 489 Q332 467 311 428 Q301 410 299 408 Q290 399 272 393 L231 379 Q222 312 222 204 L220 18 Q220 1 176 1 L112 0 Q89 0 89 20 Q89 104 95 203 Q101 314 107 375 Q75 375 51 387 Q20 400 20 427 Q20 442 43 471 Q67 501 78 501 Q80 501 93 485 Q100 474 121 471 Q133 570 163 618 Q188 659 215 674 Q241 689 286 689 Q335 689 335 649 Z" /><glyph glyph-name="g" unicode="g" d="M489 226 L471 22 Q465 -36 409 -66 Q362 -91 300 -91 Q253 -91 211 -73 Q157 -49 157 -9 Q157 22 190 22 Q209 22 246 10 Q281 -3 301 -3 Q338 -3 353 33 Q359 52 371 149 Q301 85 185 85 Q130 85 86 117 Q35 153 35 204 Q35 323 169 415 Q289 499 412 499 Q441 499 465 478 Q490 456 490 428 Q490 418 482 402 Q473 387 462 387 Q449 387 429 397 Q406 407 397 407 Q347 407 262 339 Q174 267 174 220 Q174 172 243 172 Q288 172 345 217 Q394 256 422 302 Q447 342 475 342 Q496 342 496 322 L489 226 Z" /><glyph glyph-name="h" unicode="h" d="M556 26 Q556 10 530 5 Q509 1 420 0 Q391 0 391 63 L384 157 Q377 244 370 280 Q363 310 355 322 Q343 340 317 340 Q291 340 260 320 Q230 299 213 273 Q201 195 183 50 L180 24 Q175 10 162 7 Q140 0 43 0 Q25 0 25 23 Q25 50 32 100 Q54 275 124 466 Q150 540 182 595 Q234 689 275 689 Q291 689 291 671 Q291 650 276 582 Q250 464 242 418 Q308 451 365 451 Q421 451 459 411 Q486 381 510 318 Q528 267 543 173 Q556 77 556 26 Z" /><glyph glyph-name="i" unicode="i" d="M268 643 Q268 615 252 593 Q234 572 207 572 Q160 572 160 616 Q160 643 183 666 Q206 689 232 689 Q268 689 268 643 ZM251 419 Q246 367 244 317 Q238 191 238 40 Q238 0 213 0 L107 2 Q85 2 83 4 Q76 7 76 30 Q76 72 94 193 Q117 350 176 454 Q200 499 233 499 Q256 499 256 480 L251 419 Z" /><glyph glyph-name="j" unicode="j" d="M374 643 Q374 614 359 594 Q343 571 315 571 Q268 571 268 616 Q268 644 289 666 Q310 689 338 689 Q374 689 374 643 ZM362 439 Q357 411 355 381 Q352 358 354 295 L357 45 Q357 -43 319 -84 Q277 -128 187 -128 Q123 -128 80 -102 Q30 -70 30 -7 Q30 8 42 18 Q55 28 68 28 Q81 28 105 6 Q126 -17 158 -17 Q192 -17 206 15 Q217 41 218 102 L221 266 Q221 338 233 377 Q248 430 289 473 Q313 499 335 499 Q366 499 366 472 L362 439 Z" /><glyph glyph-name="k" unicode="k" d="M530 97 Q530 87 516 71 Q494 44 459 15 Q451 7 439 7 Q428 7 375 45 L192 171 Q189 161 189 139 L182 30 Q177 2 145 2 L65 0 Q30 0 30 34 Q30 116 45 236 Q57 328 75 396 Q153 689 239 689 Q255 689 255 662 Q255 647 242 577 Q211 423 203 352 Q374 488 450 488 Q501 488 501 465 Q501 459 452 413 L358 326 Q310 281 290 254 L518 119 Q530 112 530 97 Z" /><glyph glyph-name="l" unicode="l" d="M254 651 Q250 539 250 398 L251 29 Q251 9 232 3 Q223 0 196 0 L129 0 Q90 0 90 29 L90 78 Q90 207 102 328 Q117 485 150 578 Q189 689 238 689 Q254 689 254 651 Z" /><glyph glyph-name="m" unicode="m" d="M782 30 Q782 0 726 0 L671 0 Q635 0 624 8 Q609 17 609 51 L610 309 Q610 351 600 371 Q585 395 545 395 Q474 395 474 235 Q474 191 479 135 Q484 58 484 35 Q484 0 415 0 Q371 0 359 3 Q337 6 337 24 Q337 77 344 168 Q350 264 350 312 Q350 372 319 372 Q286 372 254 340 Q221 307 218 274 Q213 261 210 170 Q206 95 206 34 Q206 9 176 3 Q160 0 103 0 Q61 0 50 4 Q30 10 30 28 Q30 107 63 222 Q92 328 133 403 Q179 485 223 485 Q238 485 238 460 L238 443 Q305 499 380 499 Q436 499 471 450 Q529 494 595 494 Q698 494 745 354 Q782 238 782 30 Z" /><glyph glyph-name="n" unicode="n" d="M579 38 Q579 1 507 1 L445 2 Q409 2 409 46 Q409 60 410 76 L411 106 Q412 218 397 306 Q382 384 334 384 Q294 384 259 354 Q224 325 218 286 Q193 135 193 31 Q193 10 168 5 Q146 0 81 0 Q30 0 30 29 Q30 102 58 215 Q87 334 121 391 Q143 429 172 458 Q211 499 241 499 Q259 499 262 460 Q301 490 373 490 Q483 490 536 320 Q579 176 579 38 Z" /><glyph glyph-name="o" unicode="o" d="M552 309 Q552 177 460 88 Q368 0 234 0 Q30 0 30 185 Q30 297 148 409 Q259 514 347 514 Q354 514 360 508 Q363 503 365 501 Q552 468 552 309 ZM420 272 Q432 307 432 338 Q432 429 339 429 Q313 420 270 376 Q163 265 163 167 Q163 136 182 116 Q201 96 232 96 Q360 96 420 272 Z" /><glyph glyph-name="p" unicode="p" d="M508 358 Q508 260 400 182 Q301 109 198 107 Q191 62 191 -60 Q191 -84 162 -90 L74 -91 Q49 -91 43 -88 Q30 -82 30 -61 Q30 -3 41 68 Q50 133 98 357 Q61 361 61 384 Q61 417 93 449 Q120 478 135 478 Q142 478 154 472 Q165 465 172 465 Q182 465 250 482 Q323 499 365 499 Q420 499 465 456 Q508 413 508 358 ZM385 364 Q385 404 323 404 Q296 404 227 381 Q215 333 206 234 L204 209 Q245 215 313 269 Q385 326 385 364 Z" /><glyph glyph-name="q" unicode="q" d="M494 347 Q480 250 477 210 Q466 104 466 -61 Q466 -91 437 -91 L334 -89 Q312 -89 312 -67 Q312 11 334 142 Q282 111 251 101 Q212 88 159 88 Q106 88 70 118 Q30 151 30 201 Q30 263 73 325 Q114 382 183 426 Q236 459 295 479 Q353 499 389 499 Q443 499 476 457 Q482 463 488 463 Q505 463 505 432 L494 347 ZM415 401 Q408 407 382 407 Q299 407 229 348 Q151 281 151 231 Q151 214 162 206 Q170 195 185 195 Q293 195 360 272 Q383 345 415 401 Z" /><glyph glyph-name="r" unicode="r" d="M347 391 Q347 377 334 362 Q322 349 307 349 Q295 349 283 357 Q267 365 260 365 Q239 365 211 316 L190 275 Q176 248 170 235 Q165 215 163 188 Q162 180 162 34 Q162 10 152 5 Q142 0 101 0 Q55 0 45 5 Q30 11 30 40 L39 175 Q51 382 105 460 Q132 499 149 499 Q165 499 165 483 L165 403 Q219 468 274 468 Q306 468 328 446 Q347 424 347 391 Z" /><glyph glyph-name="s" unicode="s" d="M471 181 Q471 77 343 32 Q259 0 131 0 Q35 0 35 48 Q35 71 59 98 Q83 124 106 124 Q112 124 138 116 Q160 109 174 109 Q212 109 274 131 Q348 155 348 184 Q348 208 285 214 L205 215 Q88 215 88 311 Q88 376 194 443 Q296 507 377 507 Q427 507 427 475 Q427 463 398 448 Q325 408 274 365 Q233 330 233 315 Q233 309 286 303 Q330 297 352 295 Q471 277 471 181 Z" /><glyph glyph-name="t" unicode="t" d="M558 487 Q558 473 534 432 Q519 408 458 393 Q423 383 329 370 Q312 329 300 253 Q289 187 289 134 Q289 119 301 110 Q312 100 331 100 Q391 100 463 126 L537 153 Q553 153 553 141 Q553 148 540 81 Q533 50 442 23 Q367 0 318 0 Q243 0 192 32 Q130 70 130 139 Q130 250 168 364 Q62 364 33 384 Q20 393 20 408 Q20 436 58 470 Q83 492 106 492 Q110 492 123 480 Q135 467 169 467 L201 467 Q319 678 376 678 Q380 678 387 671 Q394 662 394 658 Q394 650 381 600 Q354 505 348 472 Q389 472 439 483 Q546 506 540 506 Q558 506 558 487 Z" /><glyph glyph-name="u" unicode="u" d="M619 51 Q619 31 583 22 Q547 13 508 13 Q452 13 452 148 Q389 67 350 40 Q294 0 208 0 Q25 0 25 189 Q25 286 84 394 Q141 499 184 499 Q212 499 212 469 Q212 477 184 349 Q163 256 163 201 Q163 101 217 101 Q300 101 358 190 Q433 304 445 367 Q451 405 455 424 Q461 457 473 478 Q485 499 508 499 Q537 499 551 401 Q561 319 588 175 Q619 42 619 51 Z" /><glyph glyph-name="v" unicode="v" d="M508 473 Q508 468 488 420 L364 136 Q333 64 316 43 Q282 0 226 0 Q138 0 84 102 Q30 204 30 327 Q30 404 44 452 Q56 499 82 499 Q110 499 128 419 L152 309 Q167 246 185 201 Q215 123 226 123 Q224 123 266 221 Q314 334 357 396 Q423 492 489 492 Q508 492 508 473 Z" /><glyph glyph-name="w" unicode="w" d="M607 467 Q607 443 584 296 Q574 238 547 71 Q541 41 517 20 Q494 0 462 0 Q387 0 361 90 L308 273 Q287 194 227 61 Q202 4 152 4 Q80 4 50 94 Q30 150 30 240 Q30 294 51 385 Q75 499 110 499 Q131 499 134 443 Q140 296 158 200 Q210 325 252 395 Q283 444 324 444 Q365 444 386 380 L441 195 Q473 335 489 375 Q534 493 591 493 Q607 493 607 467 Z" /><glyph glyph-name="x" unicode="x" d="M520 98 Q520 88 508 74 Q499 62 440 18 Q419 3 403 3 Q400 3 322 102 L256 185 L143 6 Q139 0 124 0 Q107 0 74 24 Q46 44 31 62 Q25 68 25 83 Q25 105 165 284 Q134 324 70 395 Q28 440 28 459 Q28 468 36 476 Q45 483 53 483 Q90 483 244 368 Q283 412 336 452 Q404 505 442 505 Q464 505 464 481 Q464 474 451 458 L333 298 Q520 129 520 98 Z" /><glyph glyph-name="y" unicode="y" d="M564 467 Q564 459 508 361 Q460 268 364 88 Q266 -94 134 -94 Q92 -94 62 -76 Q25 -54 25 -16 Q25 -3 35 8 Q45 18 58 18 Q67 18 94 8 Q118 -1 127 -1 Q175 -1 213 49 Q243 88 260 143 L172 257 Q124 321 72 385 Q44 414 44 439 Q44 453 64 463 Q80 471 95 471 Q125 471 149 456 Q178 437 265 338 Q301 296 319 278 L379 382 Q417 439 461 470 Q502 499 535 499 Q564 499 564 467 Z" /><glyph glyph-name="z" unicode="z" d="M561 87 Q561 64 535 43 Q485 0 284 0 L122 0 Q30 0 30 50 Q30 95 95 178 Q152 250 292 394 Q235 389 182 389 Q77 389 77 420 Q77 439 103 468 Q127 498 148 498 Q156 494 173 488 Q196 478 233 478 Q276 478 347 488 Q426 499 436 499 Q486 499 486 467 Q486 445 425 378 Q332 276 263 183 Q206 105 206 93 Q206 83 296 83 Q378 83 447 96 Q459 98 492 112 Q522 124 532 124 Q561 124 561 87 Z" /><glyph glyph-name="braceleft" unicode="{" d="M234 -76 Q153 -62 120 -24 Q85 14 85 93 L85 280 Q85 310 30 310 L30 379 Q85 379 85 408 L85 596 Q85 674 120 713 Q153 753 234 766 L234 692 Q213 686 204 676 Q197 666 197 648 L197 420 Q197 377 174 345 Q197 311 197 268 L197 42 Q197 6 234 -3 L234 -76 Z" /><glyph glyph-name="bar" unicode="|" d="M165 -140 L50 -140 L50 860 L165 860 L165 -140 Z" /><glyph glyph-name="braceright" unicode="}" d="M234 310 Q179 310 179 280 L179 93 Q179 16 145 -24 Q109 -63 30 -76 L30 -3 Q67 6 67 42 L67 268 Q67 313 90 345 Q67 375 67 420 L67 648 Q67 681 30 692 L30 766 Q108 753 145 713 Q179 671 179 596 L179 408 Q179 379 234 379 L234 310 Z" /><glyph glyph-name="asciitilde" unicode="~" d="M490 413 Q466 341 446 310 Q411 254 356 254 Q325 254 301 266 Q294 269 255 297 L196 340 Q159 364 129 364 Q81 364 43 286 L20 300 Q42 368 64 403 Q100 459 154 459 Q200 459 270 404 Q338 349 381 349 Q428 349 467 427 L490 413 Z" /><glyph glyph-name="uni3001" unicode="&#x3001;" d="M392 55 Q392 46 372 32 Q354 19 326 5 Q290 -13 279 -13 Q265 -13 259 -1 Q187 120 134 192 Q109 224 109 242 Q109 255 121 255 Q157 255 205 230 Q287 185 359 105 Q392 68 392 55 Z" /><glyph glyph-name="uni3002" unicode="&#x3002;" d="M391 128 Q391 71 349 29 Q307 -13 250 -13 Q193 -13 151 29 Q109 71 109 128 Q109 185 151 227 Q193 269 250 269 Q307 269 349 227 Q391 185 391 128 ZM327 128 Q327 159 304 182 Q281 205 250 205 Q217 205 196 182 Q173 160 173 128 Q173 94 196 74 Q216 51 250 51 Q282 51 304 74 Q327 95 327 128 Z" /><glyph glyph-name="uni2C9" unicode="&#x2c9;" d="M650 683 L350 683 L350 777 L650 777 L650 683 Z" /><glyph glyph-name="ydieresis" unicode="ÿ&#x2c7;" d="M672 767 L567 655 L433 655 L328 767 L366 805 L500 730 L634 805 L672 767 Z" /><glyph glyph-name="dieresis" unicode="¨¬" d="M703 730 Q703 706 686 687 Q668 669 643 669 Q618 669 600 687 Q583 704 583 730 Q583 755 600 772 Q618 790 643 790 Q668 790 686 772 Q703 753 703 730 ZM417 730 Q417 706 400 687 Q382 669 357 669 Q332 669 314 687 Q297 704 297 730 Q297 755 314 772 Q332 790 357 790 Q382 790 400 772 Q417 753 417 730 Z" /><glyph glyph-name="uni3003" unicode="&#x3003;" d="M759 569 Q759 509 677 366 Q602 236 540 173 Q485 117 464 117 Q454 117 454 127 Q459 143 474 176 Q542 338 613 576 Q621 602 652 602 Q759 602 759 569 ZM546 569 Q546 509 464 366 Q389 236 327 173 Q272 117 251 117 Q241 117 241 127 Q246 143 261 176 Q329 338 400 576 Q408 602 439 602 Q546 602 546 569 Z" /><glyph glyph-name="uni3005" unicode="&#x3005;" d="M600 797 Q614 797 614 785 Q614 766 603 744 Q570 704 490 603 Q640 629 776 636 Q905 636 905 547 Q902 525 856 442 Q795 334 736 220 Q702 152 681 113 Q754 79 812 44 Q823 36 823 27 Q731 -95 718 -95 Q704 -95 697 -88 Q619 -38 505 50 Q403 119 337 173 Q328 182 328 198 Q333 208 353 208 Q437 199 521 174 L551 221 Q592 284 638 350 Q741 490 761 538 Q758 550 735 550 Q672 546 513 512 Q446 496 397 482 Q323 385 231 257 Q227 237 207 237 L110 280 Q87 286 87 312 Q111 360 201 486 Q279 576 356 652 Q511 794 600 797 Z" /><glyph glyph-name="Ntilde" unicode="ñ&#x2014;" d="M1000 302 L0 302 L0 418 L1000 418 L1000 302 Z" /><glyph glyph-name="uniFF5E" unicode="&#xff5e;" d="M948 417 Q891 321 853 283 Q784 214 703 214 Q652 214 605 235 L371 340 Q311 367 254 367 Q173 367 107 269 L52 303 Q92 402 138 448 Q199 506 297 506 Q356 506 411 483 L681 369 Q718 352 746 352 Q792 352 830 380 Q851 397 895 448 L948 417 Z" /><glyph glyph-name="uni2016" unicode="&#x2016;" d="M657 -55 L541 -55 L541 775 L657 775 L657 -55 ZM459 -55 L343 -55 L343 775 L459 775 L459 -55 Z" /><glyph glyph-name="Eacute" unicode="é&#x2026;&#x22ef;" d="M917 360 Q917 325 892 300 Q868 276 833 276 Q798 276 774 300 Q749 324 749 360 Q749 395 774 420 Q798 444 833 444 Q868 444 892 420 Q917 393 917 360 ZM584 360 Q584 324 560 300 Q535 276 500 276 Q464 276 440 300 Q416 324 416 360 Q416 395 440 420 Q464 444 500 444 Q535 444 560 420 Q584 395 584 360 ZM251 360 Q251 325 226 300 Q202 276 167 276 Q132 276 108 300 Q83 324 83 360 Q83 395 108 420 Q132 444 167 444 Q202 444 226 420 Q251 393 251 360 Z" /><glyph glyph-name="Ocircumflex" unicode="ô&#x2018;" d="M834 669 Q834 649 789 625 Q749 604 726 604 Q706 604 685 641 Q667 674 667 697 Q667 744 708 791 Q732 818 789 860 L816 841 Q783 781 783 768 Q783 749 808 714 Q834 677 834 669 Z" /><glyph glyph-name="Otilde" unicode="õ&#x2019;" d="M334 747 Q334 700 292 653 Q268 626 212 584 L185 603 Q218 659 218 676 Q218 693 192 730 Q167 765 167 775 Q167 796 211 819 Q250 840 275 840 Q293 840 314 804 Q334 767 334 747 Z" /><glyph glyph-name="Ograve" unicode="ò&#x201c;" d="M933 669 Q933 649 888 625 Q848 604 825 604 Q805 604 784 641 Q766 674 766 697 Q766 744 807 791 Q831 818 888 860 L915 841 Q882 784 882 768 Q882 749 908 714 Q933 677 933 669 ZM735 669 Q735 649 690 625 Q650 604 627 604 Q607 604 586 641 Q568 674 568 697 Q568 744 609 791 Q633 818 690 860 L717 841 Q684 784 684 768 Q684 749 710 714 Q735 677 735 669 Z" /><glyph glyph-name="Oacute" unicode="ó&#x201d;" d="M433 747 Q433 700 391 653 Q366 626 310 584 L283 603 Q317 662 317 676 Q317 693 292 730 Q266 765 266 775 Q266 796 310 819 Q349 840 374 840 Q392 840 413 804 Q433 767 433 747 ZM235 747 Q235 700 193 653 Q169 626 113 584 L86 603 Q119 660 119 676 Q119 693 94 730 Q68 765 68 775 Q68 796 112 819 Q151 840 176 840 Q194 840 215 804 Q235 767 235 747 Z" /><glyph glyph-name="uni3014" unicode="&#x3014;" d="M900 0 L844 -122 L601 10 L601 708 L844 840 L900 718 L723 622 L723 97 L900 0 Z" /><glyph glyph-name="uni3015" unicode="&#x3015;" d="M400 10 L157 -122 L101 0 L278 97 L278 622 L101 718 L157 840 L400 708 L400 10 Z" /><glyph glyph-name="uni3008" unicode="&#x3008;" d="M910 -63 L809 -120 L590 359 L809 840 L910 786 L710 359 L910 -63 Z" /><glyph glyph-name="uni3009" unicode="&#x3009;" d="M410 359 L191 -120 L90 -63 L290 359 L90 786 L191 840 L410 359 Z" /><glyph glyph-name="uni300A" unicode="&#x300a;" d="M987 -63 L886 -120 L672 360 L886 840 L987 786 L792 360 L987 -63 ZM827 786 L633 360 L826 -63 L727 -120 L513 360 L727 840 L827 786 Z" /><glyph glyph-name="uni300B" unicode="&#x300b;" d="M487 360 L273 -120 L174 -63 L367 360 L173 786 L273 840 L487 360 ZM328 360 L114 -120 L13 -63 L208 360 L13 786 L114 840 L328 360 Z" /><glyph glyph-name="uni300C" unicode="&#x300c;" d="M913 707 L710 707 L710 -120 L588 -120 L588 840 L913 840 L913 707 Z" /><glyph glyph-name="uni300D" unicode="&#x300d;" d="M413 -120 L88 -120 L88 13 L291 13 L291 840 L413 840 L413 -120 Z" /><glyph glyph-name="uni300E" unicode="&#x300e;" d="M934 664 L747 664 L747 -120 L565 -120 L565 840 L934 840 L934 664 ZM865 738 L865 770 L640 770 L640 -52 L672 -52 L672 738 L865 738 Z" /><glyph glyph-name="uni300F" unicode="&#x300f;" d="M435 -120 L66 -120 L66 56 L253 56 L253 840 L435 840 L435 -120 ZM360 -50 L360 772 L328 772 L328 -18 L135 -18 L135 -50 L360 -50 Z" /><glyph glyph-name="uni3016" unicode="&#x3016;" d="M565 -120 L565 840 L935 840 Q764 663 764 361 Q764 60 935 -120 L565 -120 ZM779 -42 Q691 98 691 361 Q691 623 779 763 L642 763 L642 -42 L779 -42 Z" /><glyph glyph-name="uni3017" unicode="&#x3017;" d="M435 -120 L65 -120 Q236 60 236 361 Q236 663 65 840 L435 840 L435 -120 ZM358 -42 L358 763 L221 763 Q309 620 309 361 Q309 101 221 -42 L358 -42 Z" /><glyph glyph-name="uni3010" unicode="&#x3010;" d="M590 -120 L590 840 L910 840 Q739 663 739 361 Q739 60 910 -120 L590 -120 Z" /><glyph glyph-name="uni3011" unicode="&#x3011;" d="M410 -120 L90 -120 Q261 60 261 361 Q261 663 90 840 L410 840 L410 -120 Z" /><glyph glyph-name="plusminus" unicode="±" d="M848 403 L559 403 L559 174 L442 174 L442 403 L152 403 L152 518 L442 518 L442 742 L559 742 L559 518 L848 518 L848 403 ZM848 7 L152 7 L152 122 L848 122 L848 7 Z" /><glyph glyph-name="multiply" unicode="×" d="M823 135 L740 52 L500 291 L260 52 L177 135 L416 375 L178 614 L261 697 L500 459 L740 698 L823 615 L584 375 L823 135 Z" /><glyph glyph-name="Odieresis" unicode="ö÷" d="M584 631 Q584 596 560 572 Q535 547 500 547 Q464 547 440 572 Q416 596 416 631 Q416 666 440 690 Q465 715 500 715 Q533 715 560 690 Q584 666 584 631 ZM848 317 L152 317 L152 432 L848 432 L848 317 ZM584 118 Q584 82 560 58 Q535 34 500 34 Q464 34 440 58 Q416 82 416 118 Q416 153 440 178 Q464 202 500 202 Q535 202 560 178 Q584 153 584 118 Z" /><glyph glyph-name="uni2236" unicode="&#x2236;" d="M584 577 Q584 542 560 518 Q535 493 500 493 Q464 493 440 518 Q416 542 416 577 Q416 612 440 636 Q465 661 500 661 Q533 661 560 636 Q584 612 584 577 ZM584 171 Q584 136 560 112 Q535 87 500 87 Q464 87 440 112 Q416 136 416 171 Q416 206 440 230 Q465 255 500 255 Q533 255 560 230 Q584 206 584 171 Z" /><glyph glyph-name="uni2227" unicode="&#x2227;" d="M857 7 L727 7 L500 454 L273 7 L143 7 L500 694 L857 7 Z" /><glyph glyph-name="uni2228" unicode="&#x2228;" d="M857 694 L500 7 L143 694 L273 694 L500 247 L727 694 L857 694 Z" /><glyph glyph-name="uniB7" unicode="·&#x2211;" d="M792 13 L208 13 L487 344 L214 747 L760 747 L783 539 L736 539 Q715 617 664 659 Q610 701 535 701 L405 701 L601 408 L388 154 L742 154 L742 236 L792 236 L792 13 Z" /><glyph glyph-name="cedilla" unicode="¸&#x220f;" d="M808 13 L539 13 L539 58 L570 58 Q602 58 602 103 L602 656 Q602 701 568 701 L429 701 Q412 701 407 691 Q402 682 402 656 L402 103 Q402 58 439 58 L461 58 L461 13 L192 13 L192 58 L221 58 Q254 58 254 103 L254 656 Q254 701 223 701 L192 701 L192 747 L808 747 L808 701 L779 701 Q749 701 749 656 L749 103 Q749 58 786 58 L808 58 L808 13 Z" /><glyph glyph-name="uni222A" unicode="&#x222a;" d="M789 285 Q789 159 697 81 Q614 11 500 11 Q383 11 303 81 Q211 157 211 285 L211 710 L326 710 L326 285 Q326 216 378 173 Q428 129 500 129 Q573 129 623 172 Q674 216 674 285 L674 710 L789 710 L789 285 Z" /><glyph glyph-name="uni2229" unicode="&#x2229;" d="M789 10 L674 10 L674 435 Q674 503 623 548 Q571 591 500 591 Q430 591 378 547 Q326 502 326 435 L326 10 L211 10 L211 435 Q211 562 303 639 Q385 709 500 709 Q612 709 697 639 Q789 561 789 435 L789 10 Z" /><glyph glyph-name="uni2208" unicode="&#x2208;" d="M848 69 L416 69 Q296 69 224 150 Q152 230 152 360 Q152 479 214 559 Q286 651 416 651 L848 651 L848 537 L416 537 Q295 537 274 418 L848 418 L848 302 L274 302 Q295 184 416 184 L848 184 L848 69 Z" /><glyph glyph-name="uni2237" unicode="&#x2237;" d="M834 610 Q834 574 810 550 Q785 526 750 526 Q714 526 690 550 Q666 574 666 610 Q666 645 690 670 Q714 694 750 694 Q785 694 810 670 Q834 645 834 610 ZM334 610 Q334 574 310 550 Q285 526 250 526 Q214 526 190 550 Q166 574 166 610 Q166 645 190 670 Q214 694 250 694 Q285 694 310 670 Q334 645 334 610 ZM834 110 Q834 74 810 50 Q785 26 750 26 Q714 26 690 50 Q666 74 666 110 Q666 145 690 170 Q714 194 750 194 Q785 194 810 170 Q834 145 834 110 ZM334 110 Q334 74 310 50 Q285 26 250 26 Q214 26 190 50 Q166 74 166 110 Q166 145 190 170 Q214 194 250 194 Q285 194 310 170 Q334 145 334 110 Z" /><glyph glyph-name="Atilde" unicode="ã&#x221a;" d="M838 767 L422 -107 L283 177 L213 130 L162 213 L342 350 L423 169 L732 827 L838 767 Z" /><glyph glyph-name="uni22A5" unicode="&#x22a5;" d="M846 38 L154 38 L154 153 L442 153 L442 682 L558 682 L558 153 L846 153 L846 38 Z" /><glyph glyph-name="uni2225" unicode="&#x2225;" d="M767 775 L547 -55 L431 -55 L651 775 L767 775 ZM569 775 L349 -55 L233 -55 L453 775 L569 775 Z" /><glyph glyph-name="uni2220" unicode="&#x2220;" d="M880 610 L396 149 L846 149 L846 35 L120 35 L798 685 L880 610 Z" /><glyph glyph-name="uni2312" unicode="&#x2312;" d="M809 155 Q809 284 719 374 Q628 465 500 465 Q371 465 280 374 Q190 284 190 155 L90 155 Q90 326 210 446 Q329 565 500 565 Q669 565 790 446 Q910 326 910 155 L809 155 Z" /><glyph glyph-name="uni2299" unicode="&#x2299;" d="M910 360 Q910 189 790 70 Q670 -50 500 -50 Q329 -50 210 70 Q90 189 90 360 Q90 530 210 650 Q329 770 500 770 Q670 770 790 650 Q910 530 910 360 ZM809 360 Q809 489 719 580 Q629 670 500 670 Q370 670 280 580 Q190 489 190 360 Q190 231 280 141 Q370 51 500 51 Q629 51 719 141 Q809 231 809 360 ZM584 360 Q584 324 560 300 Q535 276 500 276 Q464 276 440 300 Q416 324 416 360 Q416 396 440 420 Q464 444 500 444 Q535 444 560 420 Q584 395 584 360 Z" /><glyph glyph-name="ordmasculine" unicode="º&#x222b;" d="M647 722 Q647 692 630 667 Q610 638 575 638 Q529 638 505 680 Q502 671 502 645 Q502 578 560 368 Q608 191 608 110 Q608 31 571 -26 Q527 -91 454 -91 Q418 -91 387 -68 Q353 -41 353 -3 Q353 29 369 52 Q389 81 423 81 Q471 81 495 40 Q498 49 498 75 Q498 134 440 351 Q392 527 392 609 Q392 689 429 745 Q471 810 546 810 Q585 810 616 786 Q647 760 647 722 Z" /><glyph glyph-name="uni222E" unicode="&#x222e;" d="M720 358 Q720 298 689 245 Q657 192 606 165 Q610 119 610 110 Q610 31 573 -26 Q529 -91 456 -91 Q420 -91 389 -68 Q355 -41 355 -3 Q355 29 371 52 Q391 81 425 81 Q473 81 497 40 Q500 49 500 75 Q500 90 492 138 Q403 141 342 205 Q280 267 280 358 Q280 421 312 472 Q346 525 398 552 Q394 581 394 609 Q394 689 431 745 Q473 810 548 810 Q587 810 618 786 Q649 760 649 722 Q649 692 632 667 Q612 638 577 638 Q531 638 507 680 Q504 671 504 645 Q504 625 513 577 Q601 571 660 509 Q720 446 720 358 ZM636 358 Q636 406 606 443 Q575 480 531 490 Q543 438 562 368 Q577 312 590 256 Q636 296 636 358 ZM474 225 Q462 276 442 351 Q424 412 414 462 Q364 421 364 358 Q364 307 396 272 Q425 234 474 225 Z" /><glyph glyph-name="uni2261" unicode="&#x2261;" d="M848 507 L152 507 L152 622 L848 622 L848 507 ZM848 331 L152 331 L152 446 L848 446 L848 331 ZM848 157 L152 157 L152 272 L848 272 L848 157 Z" /><glyph glyph-name="uni224C" unicode="&#x224c;" d="M919 519 Q919 438 854 390 Q789 341 697 341 Q645 341 616 352 Q583 361 539 390 L589 497 Q637 449 698 449 Q736 449 766 470 Q795 490 795 518 Q795 552 768 576 Q739 599 699 599 Q648 599 616 578 Q581 556 551 504 Q503 422 451 386 Q390 341 306 341 Q209 341 146 392 Q81 441 81 520 Q81 602 146 655 Q210 708 306 708 Q393 708 462 662 L419 557 Q383 580 363 590 Q339 599 305 599 Q263 599 234 576 Q205 554 205 521 Q205 489 234 469 Q264 448 305 448 Q394 448 466 572 Q505 642 561 676 Q616 708 699 708 Q793 708 856 654 Q919 600 919 519 ZM888 181 L112 181 L112 296 L888 296 L888 181 ZM888 11 L112 11 L112 126 L888 126 L888 11 Z" /><glyph glyph-name="Aring" unicode="å&#x2248;" d="M948 538 Q891 442 853 404 Q784 335 703 335 Q652 335 605 356 L371 461 Q311 488 254 488 Q173 488 107 390 L52 424 Q92 523 138 569 Q199 627 297 627 Q356 627 411 604 L681 490 Q718 473 746 473 Q792 473 830 501 Q851 518 895 569 L948 538 ZM948 296 Q891 200 853 162 Q784 93 703 93 Q652 93 605 114 L371 219 Q311 246 254 246 Q173 246 107 148 L52 182 Q92 281 138 327 Q199 385 297 385 Q356 385 411 362 L681 248 Q718 231 746 231 Q792 231 830 259 Q851 276 895 327 L948 296 Z" /><glyph glyph-name="uni223D" unicode="&#x223d;" d="M919 358 Q919 277 854 229 Q789 180 697 180 Q646 180 616 190 Q582 201 539 229 L589 336 Q637 288 698 288 Q737 288 766 308 Q795 329 795 357 Q795 391 768 415 Q739 438 699 438 Q648 438 616 418 Q582 396 551 343 Q503 261 451 225 Q390 180 306 180 Q208 180 146 230 Q81 280 81 359 Q81 441 146 494 Q210 547 306 547 Q393 547 462 501 L419 396 Q383 419 363 429 Q339 438 305 438 Q264 438 234 416 Q205 393 205 360 Q205 328 234 308 Q264 287 305 287 Q394 287 466 411 Q505 481 561 515 Q616 547 699 547 Q792 547 856 494 Q919 440 919 358 Z" /><glyph glyph-name="uni221D" unicode="&#x221d;" d="M889 265 Q826 180 691 180 Q576 180 501 265 Q423 180 309 180 Q217 180 152 225 Q81 275 81 359 Q81 445 149 498 Q213 547 309 547 Q427 547 500 466 Q572 547 691 547 Q820 547 884 465 L790 389 Q764 438 691 438 Q612 438 567 366 Q618 288 691 288 Q768 288 792 336 L889 265 ZM433 366 Q388 438 309 438 Q262 438 234 416 Q205 394 205 359 Q205 327 234 308 Q261 288 309 288 Q381 288 433 366 Z" /><glyph glyph-name="uniAD" unicode="­&#x2260;" d="M848 218 L486 218 L381 12 L278 64 L357 218 L152 218 L152 333 L416 333 L463 426 L152 426 L152 541 L522 541 L622 736 L725 684 L652 541 L848 541 L848 426 L593 426 L545 333 L848 333 L848 218 Z" /><glyph glyph-name="uni226E" unicode="&#x226e;" d="M839 16 L663 109 L663 -24 L549 -24 L549 170 L161 375 L549 580 L549 773 L663 773 L663 641 L839 734 L839 607 L663 515 L663 235 L839 142 L839 16 ZM549 295 L549 455 L396 375 L549 295 Z" /><glyph glyph-name="uni226F" unicode="&#x226f;" d="M839 375 L451 170 L451 -24 L337 -24 L337 109 L161 16 L161 142 L337 235 L337 515 L161 607 L161 734 L337 641 L337 773 L451 773 L451 580 L839 375 ZM604 375 L451 455 L451 295 L604 375 Z" /><glyph glyph-name="twosuperior" unicode="²&#x2264;" d="M839 135 L161 469 L839 803 L839 676 L396 469 L839 261 L839 135 ZM839 -55 L161 279 L161 403 L839 72 L839 -55 Z" /><glyph glyph-name="threesuperior" unicode="³&#x2265;" d="M839 469 L161 135 L161 261 L604 469 L161 676 L161 803 L839 469 ZM839 279 L161 -55 L161 72 L839 403 L839 279 Z" /><glyph glyph-name="infinity" unicode="&#x221e;" d="M919 359 Q919 276 848 225 Q782 180 691 180 Q576 180 501 265 Q423 180 309 180 Q217 180 152 225 Q81 275 81 359 Q81 445 149 498 Q213 547 309 547 Q427 547 500 466 Q572 547 691 547 Q785 547 851 498 Q919 444 919 359 ZM795 359 Q795 393 766 416 Q736 438 691 438 Q612 438 567 366 Q618 288 691 288 Q737 288 766 308 Q795 328 795 359 ZM433 366 Q388 438 309 438 Q262 438 234 416 Q205 394 205 359 Q205 327 234 308 Q261 288 309 288 Q381 288 433 366 Z" /><glyph glyph-name="uni2235" unicode="&#x2235;" d="M870 627 Q870 592 846 568 Q821 543 786 543 Q750 543 726 568 Q702 592 702 627 Q702 662 726 686 Q751 711 786 711 Q819 711 846 686 Q870 662 870 627 ZM298 627 Q298 592 274 568 Q249 543 214 543 Q178 543 154 568 Q130 592 130 627 Q130 662 154 686 Q179 711 214 711 Q247 711 274 686 Q298 662 298 627 ZM584 93 Q584 58 560 34 Q535 9 500 9 Q464 9 440 34 Q416 58 416 93 Q416 128 440 152 Q465 177 500 177 Q533 177 560 152 Q584 128 584 93 Z" /><glyph glyph-name="uni2234" unicode="&#x2234;" d="M584 627 Q584 592 560 568 Q535 543 500 543 Q464 543 440 568 Q416 592 416 627 Q416 662 440 686 Q465 711 500 711 Q533 711 560 686 Q584 662 584 627 ZM870 93 Q870 58 846 34 Q821 9 786 9 Q750 9 726 34 Q702 58 702 93 Q702 128 726 152 Q751 177 786 177 Q819 177 846 152 Q870 128 870 93 ZM298 93 Q298 58 274 34 Q249 9 214 9 Q178 9 154 34 Q130 58 130 93 Q130 128 154 152 Q179 177 214 177 Q247 177 274 152 Q298 128 298 93 Z" /><glyph glyph-name="uni2642" unicode="&#x2642;" d="M751 457 L663 429 L552 539 L552 321 Q614 303 654 252 Q694 198 694 135 Q694 54 637 -2 Q580 -59 500 -59 Q420 -59 364 -2 Q307 54 307 135 Q307 200 346 252 Q385 303 448 321 L448 539 L337 429 L249 457 L500 779 L751 457 ZM579 134 Q579 165 556 190 Q532 214 500 214 Q467 214 444 190 Q421 167 421 134 Q421 101 444 78 Q466 55 500 55 Q533 55 556 78 Q579 103 579 134 Z" /><glyph glyph-name="uni2640" unicode="&#x2640;" d="M786 229 L553 229 L553 -59 L447 -59 L447 229 L214 229 L214 336 L447 336 L447 397 Q386 415 347 466 Q308 517 308 584 Q308 666 364 722 Q420 779 500 779 Q579 779 636 722 Q692 664 692 584 Q692 517 653 466 Q614 415 553 397 L553 336 L786 336 L786 229 ZM579 584 Q579 615 556 640 Q532 664 500 664 Q468 664 444 640 Q421 617 421 584 Q421 550 444 528 Q466 505 500 505 Q533 505 556 528 Q579 551 579 584 Z" /><glyph glyph-name="exclamdown" unicode="¡°" d="M378 713 Q378 660 340 622 Q302 585 250 585 Q196 585 160 622 Q123 659 123 713 Q123 766 160 803 Q197 840 250 840 Q300 840 340 803 Q378 765 378 713 ZM322 713 Q322 740 300 762 Q279 783 250 783 Q220 783 200 762 Q179 741 179 713 Q179 683 200 662 Q220 641 250 641 Q279 641 300 662 Q322 684 322 713 Z" /><glyph glyph-name="uni2032" unicode="&#x2032;" d="M350 787 Q350 760 321 720 L188 537 L150 558 L231 783 Q252 840 297 840 Q318 840 334 824 Q350 808 350 787 Z" /><glyph glyph-name="uni2033" unicode="&#x2033;" d="M436 787 Q436 760 407 720 L274 537 L237 558 L318 783 Q338 840 383 840 Q402 840 420 824 Q436 808 436 787 ZM265 787 Q265 760 236 720 L103 537 L65 558 L146 783 Q166 840 212 840 Q231 840 249 824 Q265 808 265 787 Z" /><glyph glyph-name="uni2103" unicode="&#x2103;" d="M937 174 Q937 88 758 31 Q623 -13 511 -13 Q396 -13 322 55 Q247 123 247 236 Q247 382 336 510 Q419 630 553 702 Q664 762 742 762 Q824 762 824 746 Q824 731 785 710 Q416 511 416 234 Q416 112 553 112 Q721 112 867 179 L924 206 Q937 206 937 174 ZM319 713 Q319 660 281 622 Q243 585 191 585 Q137 585 101 622 Q64 659 64 713 Q64 766 101 803 Q138 840 191 840 Q241 840 281 803 Q319 765 319 713 ZM263 713 Q263 741 242 762 Q220 783 191 783 Q161 783 141 763 Q121 743 121 713 Q121 682 141 662 Q161 641 191 641 Q220 641 242 662 Q263 683 263 713 Z" /><glyph glyph-name="uniFF04" unicode="&#xff04;" d="M822 286 Q822 212 746 142 Q681 83 574 39 L574 -92 L511 -92 L511 16 Q415 -14 348 -14 Q299 -14 251 -4 Q178 11 178 47 Q178 72 210 107 Q240 143 263 143 L295 132 Q324 120 348 120 Q418 120 511 156 L511 331 Q457 333 419 333 Q357 333 315 369 Q272 405 272 465 Q272 607 511 707 L511 812 L574 812 L574 731 Q667 762 725 762 Q770 762 770 733 Q770 714 691 682 Q648 664 574 613 L574 431 L626 432 Q689 432 752 392 Q822 346 822 286 ZM511 565 Q431 498 431 460 Q431 430 511 430 L511 565 ZM658 294 Q658 317 574 327 L574 186 Q658 234 658 294 Z" /><glyph glyph-name="currency" unicode="¤û" d="M884 44 L816 -24 L714 77 Q620 7 500 7 Q378 7 285 78 L184 -24 L116 44 L217 145 Q141 240 141 366 Q141 486 212 581 L116 676 L184 744 L279 649 Q376 725 500 725 Q622 725 721 649 L816 744 L884 676 L788 581 Q859 484 859 366 Q859 242 783 145 L884 44 ZM762 366 Q762 473 686 552 Q607 628 500 628 Q392 628 314 552 Q237 475 237 366 Q237 256 314 180 Q390 104 500 104 Q609 104 686 180 Q762 258 762 366 Z" /><glyph glyph-name="uniFFE0" unicode="&#xffe0;" d="M845 174 Q845 88 667 31 Q532 -13 419 -13 Q405 -13 381 -11 L343 -106 L287 -86 L323 2 Q247 26 202 87 Q155 147 155 236 Q155 382 244 510 Q327 630 461 702 Q558 753 630 761 L657 828 L712 808 L693 760 Q732 757 732 746 Q732 731 693 710 L667 695 L432 114 Q441 112 461 112 Q629 112 775 179 Q834 206 832 206 Q845 206 845 174 ZM582 642 Q324 462 324 234 Q324 161 375 131 L582 642 Z" /><glyph glyph-name="uniFFE1" unicode="&#xffe1;" d="M887 134 Q887 81 829 40 Q776 2 720 2 Q641 2 562 37 Q537 47 417 112 Q368 -13 261 -13 Q194 -13 154 27 Q113 65 113 141 Q113 212 163 256 Q213 300 286 300 Q305 300 330 291 Q348 369 361 421 Q267 425 210 447 Q160 465 160 497 Q160 529 222 567 Q240 579 253 579 Q271 579 271 559 Q276 554 330 548 Q377 542 400 542 Q439 622 488 670 Q528 707 580 733 Q640 762 687 762 Q742 762 742 742 Q742 726 717 710 Q704 703 678 691 Q576 637 537 537 L580 537 Q628 537 688 542 Q766 547 755 547 Q768 547 768 539 Q768 537 756 507 Q743 475 743 472 Q731 430 648 423 Q584 417 492 417 L450 228 Q617 117 704 117 Q746 117 800 134 Q857 151 866 151 Q887 151 887 134 ZM303 174 Q284 188 266 188 Q243 188 225 175 Q208 162 208 141 Q208 95 250 95 Q284 95 303 174 Z" /><glyph glyph-name="adieresis" unicode="ä&#x2030;" d="M921 214 Q921 133 880 65 Q832 -13 756 -13 Q651 -13 651 139 Q651 211 699 295 Q750 385 810 385 Q815 385 827 375 Q921 375 921 214 ZM830 297 Q830 324 821 324 Q802 324 775 235 Q750 154 750 114 Q750 55 762 55 Q791 55 813 156 Q830 239 830 297 ZM359 591 Q359 510 318 442 Q270 364 194 364 Q137 364 110 415 Q89 454 89 517 Q89 589 137 673 Q188 762 248 762 Q256 762 265 753 Q359 753 359 591 ZM267 674 Q267 702 259 702 Q240 702 213 611 Q188 529 188 492 Q188 433 200 433 Q229 433 250 534 Q267 616 267 674 ZM666 708 L139 -13 L79 41 L606 762 L666 708 ZM632 214 Q632 133 591 65 Q543 -13 467 -13 Q362 -13 362 139 Q362 211 410 295 Q461 385 521 385 Q526 385 538 375 Q632 375 632 214 ZM541 297 Q541 324 532 324 Q512 324 485 232 Q461 147 461 110 Q461 55 473 55 Q502 55 524 156 Q541 239 541 297 Z" /><glyph glyph-name="section" unicode="§" d="M738 366 Q738 321 701 284 Q672 253 633 244 Q719 193 719 106 Q719 20 637 -24 Q572 -58 489 -58 Q408 -58 339 -15 Q262 32 262 106 Q262 190 334 190 Q364 190 386 170 Q407 149 407 116 Q407 107 402 89 Q396 71 396 62 Q396 39 431 24 Q461 9 489 9 Q529 9 562 33 Q593 58 593 93 Q593 128 558 148 L362 255 Q329 272 308 306 Q287 339 287 378 Q287 450 393 501 Q308 546 308 624 Q308 713 382 751 Q438 779 518 779 Q601 779 665 741 Q731 699 731 632 Q731 549 659 549 Q629 549 610 571 Q591 591 591 624 Q591 632 598 649 Q605 670 605 675 Q605 687 583 700 Q554 713 518 713 Q482 713 459 696 Q436 680 436 654 Q436 611 484 585 L657 492 Q738 447 738 366 ZM624 351 Q624 379 587 399 L466 462 Q413 438 413 393 Q413 377 430 360 Q447 342 464 333 L568 280 Q624 297 624 351 Z" /><glyph glyph-name="uni2116" unicode="&#x2116;" d="M953 443 Q953 327 891 236 Q821 133 710 133 Q550 133 550 317 Q550 448 629 549 Q704 647 793 647 Q798 647 804 641 Q808 634 809 634 Q887 610 920 568 Q953 523 953 443 ZM847 475 Q847 556 790 568 Q744 539 708 461 Q670 379 670 298 Q670 223 708 223 Q761 223 807 327 Q847 418 847 475 ZM938 0 L530 0 L530 102 L938 102 L938 0 ZM459 103 Q453 44 444 17 Q438 0 387 0 Q335 0 307 112 Q270 256 223 523 Q189 263 189 37 Q189 0 163 0 L68 0 Q51 0 48 15 Q47 17 47 43 Q47 327 126 586 Q174 744 229 744 Q272 744 301 628 L364 319 Q364 443 418 602 Q471 762 500 762 Q519 762 519 741 L459 103 Z" /><glyph glyph-name="uni2606" unicode="&#x2606;" d="M948 465 L678 256 L789 -77 L500 134 L213 -77 L322 256 L52 465 L390 465 L500 797 L610 465 L948 465 ZM752 393 L561 393 L500 579 L438 393 L250 393 L402 275 L344 98 L500 214 L658 97 L600 275 L752 393 Z" /><glyph glyph-name="uni2605" unicode="&#x2605;" d="M948 465 L678 256 L789 -77 L500 134 L213 -77 L322 256 L52 465 L390 465 L500 797 L610 465 L948 465 Z" /><glyph glyph-name="uni25CB" unicode="&#x25cb;" d="M947 360 Q947 173 816 44 Q685 -87 500 -87 Q313 -87 184 44 Q53 172 53 360 Q53 546 184 676 Q313 807 500 807 Q685 807 816 676 Q947 545 947 360 ZM876 360 Q876 515 766 627 Q656 737 500 737 Q343 737 233 627 Q123 517 123 360 Q123 201 233 94 Q342 -16 500 -16 Q657 -16 766 94 Q876 202 876 360 Z" /><glyph glyph-name="uni25CF" unicode="&#x25cf;" d="M947 360 Q947 173 816 44 Q685 -87 500 -87 Q313 -87 184 44 Q53 172 53 360 Q53 546 184 676 Q313 807 500 807 Q685 807 816 676 Q947 545 947 360 Z" /><glyph glyph-name="uni25CE" unicode="&#x25ce;" d="M947 360 Q947 173 816 44 Q685 -87 500 -87 Q313 -87 184 44 Q53 172 53 360 Q53 546 184 676 Q313 807 500 807 Q685 807 816 676 Q947 545 947 360 ZM876 360 Q876 515 766 627 Q656 737 500 737 Q343 737 233 627 Q123 517 123 360 Q123 201 233 94 Q342 -16 500 -16 Q657 -16 766 94 Q876 202 876 360 ZM797 360 Q797 236 710 150 Q623 63 500 63 Q376 63 290 150 Q203 236 203 360 Q203 483 290 570 Q376 657 500 657 Q623 657 710 570 Q797 483 797 360 ZM727 360 Q727 453 660 520 Q593 587 500 587 Q407 587 340 520 Q273 454 273 360 Q273 266 340 200 Q406 133 500 133 Q594 133 660 200 Q727 267 727 360 Z" /><glyph glyph-name="uni25C7" unicode="&#x25c7;" d="M957 360 L500 -97 L43 360 L500 817 L957 360 ZM854 360 L500 714 L146 360 L500 6 L854 360 Z" /><glyph glyph-name="uni25C6" unicode="&#x25c6;" d="M957 360 L500 -97 L43 360 L500 817 L957 360 Z" /><glyph glyph-name="uni25A1" unicode="&#x25a1;" d="M876 -17 L124 -17 L124 737 L876 737 L876 -17 ZM805 54 L805 666 L195 666 L195 54 L805 54 Z" /><glyph glyph-name="uni25A0" unicode="&#x25a0;" d="M876 -17 L124 -17 L124 737 L876 737 L876 -17 Z" /><glyph glyph-name="uni25B3" unicode="&#x25b3;" d="M937 -18 L63 -18 L500 738 L937 -18 ZM817 54 L500 594 L183 54 L817 54 Z" /><glyph glyph-name="uni25B2" unicode="&#x25b2;" d="M937 -18 L63 -18 L500 738 L937 -18 Z" /><glyph glyph-name="uni203B" unicode="&#x203b;" d="M584 651 Q584 616 560 592 Q535 567 500 567 Q464 567 440 592 Q416 616 416 651 Q416 686 440 710 Q465 735 500 735 Q533 735 560 710 Q584 686 584 651 ZM875 360 Q875 325 850 300 Q826 276 791 276 Q756 276 732 300 Q707 324 707 360 Q707 395 732 420 Q756 444 791 444 Q826 444 850 420 Q875 393 875 360 ZM911 22 L838 -51 L500 287 L162 -51 L89 22 L427 360 L89 698 L162 771 L500 433 L838 771 L911 698 L573 360 L911 22 ZM293 360 Q293 325 268 300 Q244 276 209 276 Q174 276 150 300 Q125 324 125 360 Q125 395 150 420 Q174 444 209 444 Q244 444 268 420 Q293 393 293 360 ZM584 69 Q584 34 560 10 Q533 -15 500 -15 Q465 -15 440 10 Q416 34 416 69 Q416 104 440 128 Q465 153 500 153 Q533 153 560 128 Q584 104 584 69 Z" /><glyph glyph-name="uni2192" unicode="&#x2192;" d="M976 360 L617 130 L711 305 L24 305 L24 415 L711 415 L617 590 L976 360 Z" /><glyph glyph-name="uni2190" unicode="&#x2190;" d="M976 305 L289 305 L383 130 L24 360 L383 590 L289 415 L976 415 L976 305 Z" /><glyph glyph-name="uni2191" unicode="&#x2191;" d="M730 477 L555 571 L555 -116 L445 -116 L445 571 L270 477 L500 836 L730 477 Z" /><glyph glyph-name="uni2193" unicode="&#x2193;" d="M730 243 L500 -116 L270 243 L445 149 L445 836 L555 836 L555 149 L730 243 Z" /><glyph glyph-name="uni3013" unicode="&#x3013;" d="M810 461 L190 461 L190 688 L810 688 L810 461 ZM810 32 L190 32 L190 259 L810 259 L810 32 Z" /><glyph glyph-name="uni2488" unicode="&#x2488;" d="M974 85 Q974 49 950 25 Q925 0 890 0 Q854 0 830 24 Q806 48 806 85 Q806 120 830 144 Q855 169 890 169 Q923 169 950 144 Q974 120 974 85 ZM521 614 Q516 512 516 430 L518 33 Q518 -1 472 -1 L384 -1 Q341 -1 341 34 Q341 253 386 598 L351 592 Q334 587 313 587 Q282 587 282 624 Q282 646 295 675 Q310 710 328 710 Q336 710 348 704 Q358 699 363 699 Q394 699 422 714 L472 743 Q502 761 507 761 Q526 761 526 740 L521 614 Z" /><glyph glyph-name="uni2489" unicode="&#x2489;" d="M974 85 Q974 49 950 25 Q925 0 890 0 Q854 0 830 24 Q806 48 806 85 Q806 120 830 144 Q855 169 890 169 Q923 169 950 144 Q974 120 974 85 ZM718 149 Q718 -13 250 -13 Q189 -13 158 0 Q112 18 112 72 Q112 140 260 331 Q464 594 464 630 Q464 636 455 636 Q432 636 290 586 Q146 535 142 535 Q108 535 108 574 Q108 601 134 646 Q158 693 182 693 Q186 693 196 686 Q204 680 209 680 Q205 680 303 714 Q441 761 528 761 Q575 761 604 730 Q631 700 631 651 Q631 588 442 330 Q419 298 383 239 Q336 163 336 142 Q336 126 391 126 Q456 126 554 160 Q651 195 677 195 Q718 195 718 149 Z" /><glyph glyph-name="uni248A" unicode="&#x248a;" d="M974 85 Q974 49 950 25 Q925 0 890 0 Q854 0 830 24 Q806 48 806 85 Q806 120 830 144 Q855 169 890 169 Q923 169 950 144 Q974 120 974 85 ZM700 366 Q700 311 597 202 Q532 134 446 64 Q351 -13 316 -13 Q294 -13 244 27 Q192 66 192 84 Q192 104 216 120 L258 144 L410 242 Q534 328 534 360 Q534 385 478 385 Q458 385 284 355 L247 349 Q212 349 212 391 Q212 406 348 523 Q400 567 464 626 Q418 626 320 606 Q225 587 174 587 Q130 587 130 611 Q130 663 163 699 Q187 725 204 725 Q210 725 222 716 Q233 707 247 707 Q261 707 394 734 Q528 761 549 761 Q591 761 624 746 Q665 725 665 688 Q665 652 510 477 L534 478 Q598 478 643 454 Q700 424 700 366 Z" /><glyph glyph-name="uni248B" unicode="&#x248b;" d="M974 85 Q974 49 950 25 Q925 0 890 0 Q854 0 830 24 Q806 48 806 85 Q806 120 830 144 Q855 169 890 169 Q923 169 950 144 Q974 120 974 85 ZM785 391 Q785 338 763 302 Q751 283 666 242 Q618 219 559 192 Q536 74 536 27 Q536 3 509 3 L392 0 Q370 0 370 22 Q370 36 386 139 Q317 128 248 128 Q58 128 58 247 Q58 336 175 478 Q252 572 366 669 Q475 761 514 761 Q534 761 534 721 Q534 707 476 637 Q222 329 222 275 Q222 259 257 259 Q300 259 415 284 Q445 402 508 507 Q577 623 609 623 Q628 623 628 609 Q628 592 609 487 L580 340 Q616 346 697 373 Q775 399 777 399 Q785 399 785 391 Z" /><glyph glyph-name="uni248C" unicode="&#x248c;" d="M974 85 Q974 49 950 25 Q925 0 890 0 Q854 0 830 24 Q806 48 806 85 Q806 120 830 144 Q855 169 890 169 Q923 169 950 144 Q974 120 974 85 ZM721 19 Q720 -3 696 -3 L566 0 Q545 0 545 24 Q545 32 558 101 Q571 177 571 204 Q571 318 479 318 Q415 318 280 267 Q145 216 122 216 Q104 216 93 226 Q76 236 76 258 Q76 319 135 458 Q183 572 230 650 Q298 762 342 762 Q364 762 364 740 Q364 733 360 683 Q421 683 548 709 Q681 735 675 735 Q683 735 683 714 Q683 698 674 671 Q665 644 656 635 Q627 609 498 588 Q482 585 333 566 L280 396 Q412 447 528 447 Q626 447 680 366 Q726 295 726 196 L721 19 Z" /><glyph glyph-name="uni248D" unicode="&#x248d;" d="M974 85 Q974 49 950 25 Q925 0 890 0 Q854 0 830 24 Q806 48 806 85 Q806 120 830 144 Q855 169 890 169 Q923 169 950 144 Q974 120 974 85 ZM703 319 Q703 182 589 83 Q478 -13 341 -13 Q91 -13 91 203 Q91 295 208 448 Q298 568 400 655 Q524 762 591 762 Q614 762 614 736 Q614 718 542 625 L413 458 Q455 470 505 470 Q578 470 637 433 Q703 391 703 319 ZM577 314 Q577 375 475 375 Q393 375 340 340 Q272 296 272 177 Q272 149 298 133 Q321 118 350 118 Q419 118 498 182 Q577 247 577 314 Z" /><glyph glyph-name="uni248E" unicode="&#x248e;" d="M974 85 Q974 49 950 25 Q925 0 890 0 Q854 0 830 24 Q806 48 806 85 Q806 120 830 144 Q855 169 890 169 Q923 169 950 144 Q974 120 974 85 ZM731 750 Q731 745 698 653 Q600 379 544 25 Q540 -1 509 -1 L404 3 Q371 3 371 26 Q371 102 434 330 Q493 538 530 623 Q386 584 178 584 Q159 584 148 595 Q134 605 134 623 Q134 656 177 696 Q216 732 232 732 L249 720 Q264 709 293 709 Q353 709 446 724 L598 749 Q691 762 713 762 Q731 762 731 750 Z" /><glyph glyph-name="uni248F" unicode="&#x248f;" d="M974 85 Q974 49 950 25 Q925 0 890 0 Q854 0 830 24 Q806 48 806 85 Q806 120 830 144 Q855 169 890 169 Q923 169 950 144 Q974 120 974 85 ZM758 615 Q758 597 721 568 Q575 454 513 391 Q658 268 656 156 Q654 67 558 22 Q482 -13 384 -13 Q288 -13 229 25 Q159 70 159 162 Q159 218 213 288 Q253 340 312 386 Q253 436 235 459 Q198 503 198 556 Q198 640 310 704 Q409 761 502 761 Q560 761 560 736 Q560 725 521 707 Q348 623 348 560 Q348 529 427 472 Q504 536 585 578 Q692 633 734 633 Q758 633 758 615 ZM493 162 Q493 224 408 294 Q320 216 320 149 Q320 98 410 98 Q443 98 468 115 Q493 132 493 162 Z" /><glyph glyph-name="uni2490" unicode="&#x2490;" d="M974 85 Q974 49 950 25 Q925 0 890 0 Q854 0 830 24 Q806 48 806 85 Q806 120 830 144 Q855 169 890 169 Q923 169 950 144 Q974 120 974 85 ZM691 586 Q691 546 676 456 Q622 128 622 32 Q622 0 575 0 L507 0 Q459 0 459 32 Q459 97 486 218 Q509 326 538 399 Q424 321 297 321 Q133 321 133 464 Q133 592 299 682 Q445 761 587 761 Q672 761 672 721 Q672 701 631 692 Q524 668 418 616 Q268 541 268 468 Q268 429 336 429 Q412 429 582 523 Q588 540 621 572 Q654 602 671 602 Q691 602 691 586 Z" /><glyph glyph-name="uni2491" unicode="&#x2491;" d="M974 85 Q974 49 950 25 Q925 0 890 0 Q854 0 830 24 Q806 48 806 85 Q806 120 830 144 Q855 169 890 169 Q923 169 950 144 Q974 120 974 85 ZM783 423 Q783 278 717 147 Q636 -13 504 -13 Q344 -13 344 280 Q344 426 419 585 Q503 761 608 761 Q621 761 636 743 Q783 743 783 423 ZM293 626 Q288 524 288 421 L291 28 Q291 8 273 5 Q256 0 207 0 Q153 0 140 4 Q125 7 125 28 Q125 74 132 186 Q150 502 174 601 Q140 584 90 584 Q60 584 60 623 Q60 647 79 676 Q99 709 121 709 Q127 709 142 704 Q154 698 161 698 Q178 698 204 714 Q217 723 243 743 Q267 761 276 761 Q298 761 298 740 L293 626 ZM649 487 Q649 652 613 652 Q561 652 517 479 Q481 337 481 252 Q481 210 489 173 Q499 112 520 112 Q579 112 618 268 Q649 394 649 487 Z" /><glyph glyph-name="uni2492" unicode="&#x2492;" d="M712 612 Q707 510 707 428 Q707 333 708 218 L710 28 Q710 8 692 5 Q675 0 626 0 Q573 0 560 4 Q544 7 544 28 Q544 156 558 327 Q573 533 593 601 Q559 584 509 584 Q479 584 479 623 Q479 647 498 676 Q518 709 540 709 Q545 709 558 704 Q567 699 575 699 Q599 699 623 714 Q635 722 663 743 Q687 761 695 761 Q717 761 717 740 L712 612 ZM974 85 Q974 49 950 25 Q925 0 890 0 Q854 0 830 24 Q806 48 806 85 Q806 120 830 144 Q855 169 890 169 Q923 169 950 144 Q974 120 974 85 ZM333 618 Q328 512 328 428 Q328 336 330 214 L331 28 Q331 8 313 5 Q296 0 247 0 Q193 0 180 4 Q165 7 165 28 Q165 156 179 327 Q194 533 214 601 Q180 584 130 584 Q100 584 100 623 Q100 647 119 676 Q139 709 161 709 Q165 709 178 704 Q188 699 196 699 Q220 699 244 714 Q256 722 284 743 Q308 761 316 761 Q338 761 338 740 L333 618 Z" /><glyph glyph-name="uni2493" unicode="&#x2493;" d="M974 85 Q974 49 950 25 Q925 0 890 0 Q854 0 830 24 Q806 48 806 85 Q806 120 830 144 Q855 169 890 169 Q923 169 950 144 Q974 120 974 85 ZM783 147 Q783 -13 442 -13 Q393 -13 369 3 Q343 20 343 70 Q343 112 409 238 L541 494 Q600 609 600 630 Q600 636 593 636 Q585 634 455 566 Q396 535 365 535 Q340 535 340 575 Q340 604 354 643 Q369 694 390 694 Q394 694 408 687 Q417 679 422 681 Q509 726 529 735 Q593 761 645 761 Q685 761 715 728 Q744 693 744 652 Q744 604 607 330 Q530 177 530 139 Q530 121 556 121 Q599 121 665 152 Q666 152 713 178 Q740 193 752 193 Q783 193 783 147 ZM293 626 Q288 524 288 421 L291 28 Q291 8 273 5 Q256 0 207 0 Q153 0 140 4 Q125 7 125 28 Q125 74 132 186 Q150 502 174 601 Q140 584 90 584 Q60 584 60 623 Q60 647 79 676 Q99 709 121 709 Q127 709 142 704 Q154 698 161 698 Q178 698 204 714 Q217 723 243 743 Q267 761 276 761 Q298 761 298 740 L293 626 Z" /><glyph glyph-name="uni2494" unicode="&#x2494;" d="M974 85 Q974 49 950 25 Q925 0 890 0 Q854 0 830 24 Q806 48 806 85 Q806 120 830 144 Q855 169 890 169 Q923 169 950 144 Q974 120 974 85 ZM785 361 Q785 306 710 204 Q657 132 589 64 Q512 -13 489 -13 Q471 -13 426 28 Q378 67 378 82 Q378 101 395 117 Q417 133 428 142 Q546 235 590 279 Q622 311 631 344 Q635 360 614 372 Q596 380 579 380 Q574 380 500 364 L430 349 Q403 349 403 386 Q403 408 513 530 Q568 591 599 635 Q430 586 375 586 Q340 586 340 610 Q340 638 355 677 Q373 724 398 724 Q402 724 412 714 Q420 705 431 705 Q465 705 550 733 Q640 761 664 761 Q702 761 734 745 Q769 724 769 687 Q769 658 648 472 L665 473 Q718 473 752 444 Q785 414 785 361 ZM293 626 Q288 524 288 421 L291 28 Q291 8 273 5 Q256 0 207 0 Q153 0 140 4 Q125 7 125 28 Q125 74 132 186 Q150 502 174 601 Q140 584 90 584 Q60 584 60 623 Q60 647 79 676 Q99 709 121 709 Q127 709 142 704 Q154 698 161 698 Q178 698 204 714 Q217 723 243 743 Q267 761 276 761 Q298 761 298 740 L293 626 Z" /><glyph glyph-name="uni2495" unicode="&#x2495;" d="M974 85 Q974 49 950 25 Q925 0 890 0 Q854 0 830 24 Q806 48 806 85 Q806 120 830 144 Q855 169 890 169 Q923 169 950 144 Q974 120 974 85 ZM786 345 Q786 281 774 254 Q763 228 707 182 L691 24 Q688 4 668 4 L556 0 Q540 0 540 17 Q540 44 555 113 Q514 103 479 103 Q414 103 376 141 Q337 179 337 242 Q337 352 406 478 Q462 578 557 676 Q640 761 679 761 Q693 761 693 742 Q693 717 679 692 L552 486 Q474 345 474 266 Q474 241 494 241 Q567 241 586 254 Q602 354 669 509 Q717 622 741 622 Q758 622 758 607 Q758 579 741 465 Q723 347 723 320 Q727 320 754 336 L779 350 Q786 350 786 345 ZM293 626 Q288 524 288 421 L291 28 Q291 8 273 5 Q256 0 207 0 Q153 0 140 4 Q125 7 125 28 Q125 74 132 186 Q150 502 174 601 Q140 584 90 584 Q60 584 60 623 Q60 647 79 676 Q99 709 121 709 Q127 709 142 704 Q154 698 161 698 Q178 698 204 714 Q217 723 243 743 Q267 761 276 761 Q298 761 298 740 L293 626 Z" /><glyph glyph-name="uni2496" unicode="&#x2496;" d="M974 85 Q974 49 950 25 Q925 0 890 0 Q854 0 830 24 Q806 48 806 85 Q806 120 830 144 Q855 169 890 169 Q923 169 950 144 Q974 120 974 85 ZM785 148 Q785 124 782 19 Q781 0 765 0 L634 0 Q620 0 620 25 Q620 39 628 100 Q637 166 637 201 Q637 311 577 311 Q554 311 479 263 Q403 215 384 215 Q366 215 354 227 Q341 239 341 257 Q341 377 414 568 Q486 761 533 761 Q565 761 565 741 Q565 718 560 680 Q593 680 641 696 Q691 712 733 727 Q744 730 744 709 Q744 655 722 628 Q697 600 645 587 Q612 578 550 567 Q535 506 523 412 Q560 429 627 429 Q696 429 739 371 Q771 325 780 248 Q785 193 785 148 ZM293 626 Q288 524 288 421 L291 28 Q291 8 273 5 Q256 0 207 0 Q153 0 140 4 Q125 7 125 28 Q125 74 132 186 Q150 502 174 601 Q140 584 90 584 Q60 584 60 623 Q60 647 79 676 Q99 709 121 709 Q127 709 142 704 Q154 698 161 698 Q178 698 204 714 Q217 723 243 743 Q267 761 276 761 Q298 761 298 740 L293 626 Z" /><glyph glyph-name="uni2497" unicode="&#x2497;" d="M974 85 Q974 49 950 25 Q925 0 890 0 Q854 0 830 24 Q806 48 806 85 Q806 120 830 144 Q855 169 890 169 Q923 169 950 144 Q974 120 974 85 ZM784 318 Q784 198 714 98 Q636 -13 521 -13 Q334 -13 334 203 Q334 296 412 443 Q478 566 558 654 Q657 762 730 762 Q748 762 748 736 Q748 728 661 593 Q611 515 587 459 Q619 469 639 469 Q700 469 742 425 Q784 380 784 318 ZM293 626 Q288 524 288 421 L291 28 Q291 8 273 5 Q256 0 207 0 Q153 0 140 4 Q125 7 125 28 Q125 74 132 186 Q150 502 174 601 Q140 584 90 584 Q60 584 60 623 Q60 647 79 676 Q99 709 121 709 Q127 709 142 704 Q154 698 161 698 Q178 698 204 714 Q217 723 243 743 Q267 761 276 761 Q298 761 298 740 L293 626 ZM660 313 Q660 334 648 353 Q635 372 617 372 Q573 372 548 353 Q521 332 503 271 Q487 220 487 177 Q487 118 526 118 Q580 118 622 191 Q660 256 660 313 Z" /><glyph glyph-name="uni2498" unicode="&#x2498;" d="M974 85 Q974 49 950 25 Q925 0 890 0 Q854 0 830 24 Q806 48 806 85 Q806 120 830 144 Q855 169 890 169 Q923 169 950 144 Q974 120 974 85 ZM777 748 Q777 744 749 641 Q721 541 688 386 Q676 327 657 190 Q635 48 626 13 Q622 0 602 0 L476 0 Q453 0 453 15 Q453 47 487 180 Q535 374 615 617 Q569 601 491 591 Q416 582 363 582 Q330 582 330 621 Q330 646 356 688 Q382 730 403 730 Q411 730 426 718 Q440 707 454 707 Q502 707 610 734 Q718 761 763 761 Q777 761 777 748 ZM298 740 Q294 664 293 626 Q288 524 288 421 L291 28 Q291 8 273 5 Q256 0 207 0 Q153 0 140 4 Q125 7 125 28 Q125 74 132 186 Q150 502 174 601 Q140 584 90 584 Q60 584 60 623 Q60 647 79 676 Q99 709 121 709 Q127 709 142 704 Q154 698 161 698 Q178 698 204 714 Q217 723 243 743 Q267 761 276 761 Q298 761 298 740 Z" /><glyph glyph-name="uni2499" unicode="&#x2499;" d="M974 85 Q974 49 950 25 Q925 0 890 0 Q854 0 830 24 Q806 48 806 85 Q806 120 830 144 Q855 169 890 169 Q923 169 950 144 Q974 120 974 85 ZM789 616 Q789 602 726 536 Q676 483 624 405 Q735 285 735 159 Q735 77 667 29 Q607 -13 520 -13 Q435 -13 388 33 Q340 78 340 162 Q340 211 378 286 Q413 356 451 394 Q365 495 365 556 Q365 619 415 673 Q461 722 524 743 Q578 761 605 761 Q646 761 646 736 Q646 721 617 706 Q561 675 541 656 Q505 622 505 574 Q505 534 542 504 Q684 634 773 634 Q789 634 789 616 ZM298 740 Q297 696 293 626 Q288 524 288 421 L291 28 Q291 8 273 5 Q256 0 207 0 Q153 0 140 4 Q125 7 125 28 Q125 74 132 186 Q150 502 174 601 Q140 584 90 584 Q60 584 60 623 Q60 647 79 676 Q99 709 121 709 Q127 709 142 704 Q154 698 161 698 Q178 698 204 714 Q217 723 243 743 Q267 761 276 761 Q298 761 298 740 ZM590 162 Q590 230 540 294 Q488 208 488 154 Q488 98 535 98 Q590 98 590 162 Z" /><glyph glyph-name="uni249A" unicode="&#x249a;" d="M974 85 Q974 49 950 25 Q925 0 890 0 Q854 0 830 24 Q806 48 806 85 Q806 120 830 144 Q855 169 890 169 Q923 169 950 144 Q974 120 974 85 ZM784 587 Q784 592 768 451 Q759 388 740 233 Q722 83 722 26 Q722 17 716 8 Q709 -1 701 -1 L590 1 Q569 1 569 26 Q569 76 596 205 Q622 336 642 382 Q559 320 480 320 Q416 320 380 360 Q343 400 343 465 Q343 546 421 631 Q492 709 577 739 Q643 761 697 761 Q762 761 762 721 Q762 700 726 694 Q646 679 568 619 Q477 549 477 475 Q477 429 529 429 Q552 429 610 465 Q658 495 684 517 Q695 544 718 570 Q745 602 769 602 Q784 602 784 587 ZM293 626 Q288 524 288 421 L291 28 Q291 8 273 5 Q256 0 207 0 Q153 0 140 4 Q125 7 125 28 Q125 74 132 186 Q150 502 174 601 Q140 584 90 584 Q60 584 60 623 Q60 647 79 676 Q99 709 121 709 Q127 709 142 704 Q154 698 161 698 Q178 698 204 714 Q217 723 243 743 Q267 761 276 761 Q298 761 298 740 L293 626 Z" /><glyph glyph-name="uni249B" unicode="&#x249b;" d="M974 85 Q974 49 950 25 Q925 0 890 0 Q854 0 830 24 Q806 48 806 85 Q806 120 830 144 Q855 169 890 169 Q923 169 950 144 Q974 120 974 85 ZM788 431 Q788 282 733 151 Q664 -13 547 -13 Q403 -13 403 280 Q403 429 466 585 Q537 761 631 761 Q643 761 656 743 Q788 743 788 431 ZM420 652 Q420 619 373 510 Q345 450 291 330 Q219 171 219 139 Q219 121 244 121 Q251 121 306 155 Q362 189 368 189 Q397 189 397 142 Q397 50 304 14 Q235 -13 137 -13 Q91 -13 69 3 Q44 21 44 70 Q44 112 106 237 Q136 303 234 508 Q285 613 285 630 Q285 636 278 636 Q257 632 176 582 Q101 535 65 535 Q42 535 42 575 Q42 602 55 642 Q70 694 88 694 Q92 694 104 687 Q113 679 118 681 Q196 724 218 735 Q278 761 327 761 Q366 761 393 728 Q420 694 420 652 ZM665 495 Q665 652 635 652 Q589 652 556 479 Q530 349 530 252 Q530 205 535 174 Q544 112 562 112 Q614 112 644 272 Q665 386 665 495 Z" /><glyph glyph-name="uni2474" unicode="&#x2474;" d="M976 359 Q976 213 910 87 Q846 -35 741 -101 L724 -75 Q881 91 881 358 Q881 633 724 801 L741 818 Q845 753 910 630 Q976 504 976 359 ZM579 671 Q578 623 574 564 Q570 460 570 391 L572 47 Q572 11 531 11 L452 11 Q413 11 413 43 Q413 131 425 290 Q436 444 453 543 L424 538 Q407 533 388 533 Q360 533 360 567 Q360 588 371 613 Q383 644 401 644 Q407 644 420 639 Q430 634 433 634 Q461 634 486 648 L528 674 Q555 690 562 690 Q579 690 579 671 ZM259 -101 Q152 -34 90 87 Q24 213 24 359 Q24 504 90 630 Q153 751 259 818 L275 801 Q119 636 119 358 Q119 90 275 -75 L259 -101 Z" /><glyph glyph-name="uni2475" unicode="&#x2475;" d="M976 359 Q976 213 910 87 Q846 -35 741 -101 L724 -75 Q881 91 881 358 Q881 633 724 801 L741 818 Q845 753 910 630 Q976 504 976 359 ZM794 155 Q794 9 373 9 Q313 9 290 20 Q249 36 249 85 Q249 137 382 309 Q461 410 542 521 Q566 556 566 565 Q566 570 558 570 Q540 570 408 524 Q279 479 276 479 Q245 479 245 514 Q245 537 267 577 Q291 621 312 621 Q315 621 325 614 Q334 608 341 611 Q388 629 421 640 Q550 683 623 683 Q667 683 692 656 Q716 628 716 584 Q716 547 643 441 Q645 443 546 308 Q451 179 451 149 Q451 136 524 136 Q567 136 651 166 Q734 196 757 196 Q794 196 794 155 ZM259 -101 Q152 -34 90 87 Q24 213 24 359 Q24 504 90 630 Q153 751 259 818 L275 801 Q119 636 119 358 Q119 90 275 -75 L259 -101 Z" /><glyph glyph-name="uni2476" unicode="&#x2476;" d="M976 359 Q976 213 910 87 Q846 -35 741 -101 L724 -75 Q881 91 881 358 Q881 633 724 801 L741 818 Q845 753 910 630 Q976 504 976 359 ZM766 349 Q766 299 673 200 Q607 129 537 74 Q451 4 420 4 Q400 4 355 40 Q309 76 309 92 Q309 108 331 123 L368 146 Q484 220 549 270 Q617 321 617 344 Q617 367 566 367 Q555 367 458 350 Q366 334 358 334 Q327 334 327 372 Q327 392 449 490 Q521 549 554 583 Q532 583 428 566 Q332 549 293 549 Q253 549 253 570 Q253 616 283 649 Q306 673 320 673 Q327 673 336 664 Q344 656 358 656 Q397 656 496 680 Q598 705 630 705 Q667 705 698 691 Q735 673 735 640 Q735 618 675 543 Q663 528 635 496 L595 449 L617 450 Q675 450 715 429 Q766 402 766 349 ZM259 -101 Q152 -34 90 87 Q24 213 24 359 Q24 504 90 630 Q153 751 259 818 L275 801 Q119 636 119 358 Q119 90 275 -75 L259 -101 Z" /><glyph glyph-name="uni2477" unicode="&#x2477;" d="M976 359 Q976 213 910 87 Q846 -35 741 -101 L724 -75 Q881 91 881 358 Q881 633 724 801 L741 818 Q845 753 910 630 Q976 504 976 359 ZM827 369 Q827 322 808 290 Q794 269 624 191 Q603 79 603 37 Q603 15 579 15 L474 12 Q454 11 454 32 Q454 56 468 143 Q402 133 344 133 Q173 133 173 240 Q173 320 278 447 Q351 535 450 619 Q553 707 584 707 Q602 707 602 671 Q602 654 549 590 Q321 313 321 265 Q321 250 352 250 Q391 250 494 273 Q517 368 578 473 Q638 578 669 578 Q686 578 686 566 Q686 534 669 455 Q666 437 658 399 L643 324 Q678 330 749 354 L820 377 Q827 377 827 369 ZM259 -101 Q152 -34 90 87 Q24 213 24 359 Q24 504 90 630 Q153 751 259 818 L275 801 Q119 636 119 358 Q119 90 275 -75 L259 -101 Z" /><glyph glyph-name="uni2478" unicode="&#x2478;" d="M976 359 Q976 213 910 87 Q846 -35 741 -101 L724 -75 Q881 91 881 358 Q881 633 724 801 L741 818 Q845 753 910 630 Q976 504 976 359 ZM762 32 Q761 13 740 13 L623 14 Q604 14 604 36 Q604 40 616 106 Q627 172 627 199 Q627 301 545 301 Q486 301 366 256 Q244 210 223 210 Q182 210 182 247 Q182 300 235 424 Q280 529 321 597 Q383 698 421 698 Q441 698 441 679 L438 627 Q495 627 607 650 Q657 658 721 674 Q729 670 728 655 Q728 642 720 616 Q712 591 704 584 Q674 559 562 541 Q529 536 413 521 L366 371 Q402 390 475 405 Q540 417 589 417 Q676 417 725 344 Q767 281 767 191 L762 32 ZM259 -101 Q152 -34 90 87 Q24 213 24 359 Q24 504 90 630 Q153 751 259 818 L275 801 Q119 636 119 358 Q119 90 275 -75 L259 -101 Z" /><glyph glyph-name="uni2479" unicode="&#x2479;" d="M976 359 Q976 213 910 87 Q846 -35 741 -101 L724 -75 Q881 91 881 358 Q881 633 724 801 L741 818 Q845 753 910 630 Q976 504 976 359 ZM776 309 Q776 186 676 98 Q575 9 451 9 Q226 9 226 204 Q226 287 331 425 Q413 532 504 611 Q616 708 676 708 Q696 708 696 684 Q696 669 631 584 L515 434 Q555 444 598 444 Q666 444 717 411 Q776 373 776 309 ZM259 -101 Q152 -34 90 87 Q24 213 24 359 Q24 504 90 630 Q153 751 259 818 L275 801 Q119 636 119 358 Q119 90 275 -75 L259 -101 ZM663 304 Q663 359 571 359 Q498 359 450 328 Q388 287 388 180 Q388 155 412 140 Q432 127 459 127 Q521 127 592 185 Q663 242 663 304 Z" /><glyph glyph-name="uni247A" unicode="&#x247a;" d="M976 359 Q976 213 910 87 Q846 -35 741 -101 L724 -75 Q881 91 881 358 Q881 633 724 801 L741 818 Q845 753 910 630 Q976 504 976 359 ZM707 533 Q660 389 656 373 Q614 221 584 30 Q580 7 552 7 Q529 7 503 8 L458 10 Q428 10 428 31 Q428 101 507 371 Q542 494 571 557 Q428 522 255 522 Q239 522 228 532 Q215 541 215 557 Q215 579 248 618 Q281 656 303 656 Q308 652 318 646 Q332 635 358 635 Q405 635 632 670 Q725 683 736 683 Q752 683 752 672 L707 533 ZM259 -101 Q152 -34 90 87 Q24 213 24 359 Q24 504 90 630 Q153 751 259 818 L275 801 Q119 636 119 358 Q119 90 275 -75 L259 -101 Z" /><glyph glyph-name="uni247B" unicode="&#x247b;" d="M976 359 Q976 213 910 87 Q846 -35 741 -101 L724 -75 Q881 91 881 358 Q881 633 724 801 L741 818 Q845 753 910 630 Q976 504 976 359 ZM801 575 Q801 559 767 533 Q634 430 580 374 Q711 263 709 162 Q707 82 621 42 Q556 10 464 10 Q377 10 325 44 Q262 85 262 167 Q262 260 399 369 Q348 411 330 435 Q297 476 297 522 Q297 580 361 631 Q413 671 479 689 Q541 705 570 705 Q623 705 623 682 Q623 675 610 668 Q599 661 587 656 Q519 621 493 604 Q432 564 432 526 Q432 496 503 446 Q567 502 645 542 Q740 591 779 591 Q801 591 801 575 ZM259 -101 Q152 -34 90 87 Q24 213 24 359 Q24 504 90 630 Q153 751 259 818 L275 801 Q119 636 119 358 Q119 90 275 -75 L259 -101 ZM562 167 Q562 224 486 286 Q407 216 407 156 Q407 110 488 110 Q516 110 540 125 Q562 141 562 167 Z" /><glyph glyph-name="uni247C" unicode="&#x247c;" d="M976 359 Q976 213 910 87 Q846 -35 741 -101 L724 -75 Q881 91 881 358 Q881 633 724 801 L741 818 Q845 753 910 630 Q976 504 976 359 ZM726 544 Q726 540 681 180 L664 41 Q664 13 621 13 L560 13 Q517 13 517 41 Q517 99 541 210 Q563 309 588 375 Q487 305 371 305 Q223 305 223 434 Q223 520 318 594 Q398 655 491 680 Q571 701 632 701 Q709 701 709 665 Q709 647 672 639 Q594 621 565 611 Q500 587 434 544 Q345 485 345 437 Q345 402 406 402 Q473 402 628 487 Q635 506 663 531 Q692 558 708 558 Q726 558 726 544 ZM259 -101 Q152 -34 90 87 Q24 213 24 359 Q24 504 90 630 Q153 751 259 818 L275 801 Q119 636 119 358 Q119 90 275 -75 L259 -101 Z" /><glyph glyph-name="uni247D" unicode="&#x247d;" d="M976 359 Q976 213 910 87 Q846 -35 741 -101 L724 -75 Q881 91 881 358 Q881 633 724 801 L741 818 Q845 753 910 630 Q976 504 976 359 ZM807 395 Q807 274 761 154 Q701 2 596 2 Q518 2 485 102 Q463 167 463 266 Q463 379 506 492 Q549 605 614 667 Q638 691 665 691 Q669 691 687 675 Q807 675 807 395 ZM388 671 Q381 461 381 391 L382 42 Q382 11 349 11 L286 11 Q255 11 255 43 Q255 258 287 543 L264 538 Q249 533 235 533 Q212 533 212 567 Q212 584 221 611 Q233 644 246 644 Q251 644 261 639 Q269 634 271 634 Q293 634 313 648 L347 674 Q368 690 374 690 Q388 690 388 671 ZM259 -101 Q152 -34 90 87 Q24 213 24 359 Q24 504 90 630 Q153 751 259 818 L275 801 Q119 636 119 358 Q119 90 275 -75 L259 -101 ZM715 405 Q715 599 679 599 Q633 599 594 451 Q561 325 561 241 Q561 199 569 164 Q581 108 604 108 Q649 108 685 230 Q715 332 715 405 Z" /><glyph glyph-name="uni247E" unicode="&#x247e;" d="M976 359 Q976 213 910 87 Q846 -35 741 -101 L724 -75 Q881 91 881 358 Q881 633 724 801 L741 818 Q845 753 910 630 Q976 504 976 359 ZM732 641 Q730 602 729 557 Q726 452 726 391 L727 42 Q727 11 694 11 L631 11 Q600 11 600 43 Q600 224 632 543 L606 537 Q593 533 579 533 Q557 533 557 567 Q557 585 566 612 Q575 644 590 644 Q595 644 605 639 Q613 634 615 634 Q638 634 658 648 L691 674 Q710 690 719 690 Q733 690 733 671 L732 641 ZM404 642 Q402 604 401 558 Q397 459 397 391 L399 42 Q399 11 366 11 L302 11 Q271 11 271 43 Q271 204 304 543 L278 537 Q265 533 251 533 Q229 533 229 567 Q229 585 238 612 Q247 644 262 644 Q267 644 277 639 Q285 634 287 634 Q310 634 330 648 L363 674 Q382 690 391 690 Q405 690 405 671 L404 642 ZM259 -101 Q152 -34 90 87 Q24 213 24 359 Q24 504 90 630 Q153 751 259 818 L275 801 Q119 636 119 358 Q119 90 275 -75 L259 -101 Z" /><glyph glyph-name="uni247F" unicode="&#x247f;" d="M976 359 Q976 213 910 87 Q846 -35 741 -101 L724 -75 Q881 91 881 358 Q881 633 724 801 L741 818 Q845 753 910 630 Q976 504 976 359 ZM839 160 Q839 14 502 14 Q451 14 431 28 Q403 44 403 90 Q403 144 509 314 Q560 391 638 526 Q656 559 656 570 Q656 575 650 575 Q632 575 530 530 Q429 484 424 484 Q400 484 400 519 Q400 543 417 581 Q435 626 453 626 Q457 626 464 620 Q470 613 476 616 L540 645 Q643 688 702 688 Q736 688 756 660 Q776 632 776 589 Q776 552 719 448 L640 314 Q564 183 564 154 Q564 141 623 141 Q660 141 729 171 Q797 201 810 201 Q839 201 839 160 ZM349 642 Q347 604 346 558 Q343 447 343 391 L345 42 Q345 11 312 11 L248 11 Q217 11 217 43 Q217 204 250 543 L224 537 Q211 533 197 533 Q175 533 175 567 Q175 585 184 612 Q193 644 208 644 Q213 644 223 639 Q231 634 233 634 Q255 634 275 648 L308 674 Q329 690 337 690 Q350 690 350 671 L349 642 ZM259 -101 Q152 -34 90 87 Q24 213 24 359 Q24 504 90 630 Q153 751 259 818 L275 801 Q119 636 119 358 Q119 90 275 -75 L259 -101 Z" /><glyph glyph-name="uni2480" unicode="&#x2480;" d="M976 359 Q976 213 910 87 Q846 -35 741 -101 L724 -75 Q881 91 881 358 Q881 633 724 801 L741 818 Q845 753 910 630 Q976 504 976 359 ZM829 350 Q829 302 757 204 Q700 128 646 74 Q577 5 552 5 Q536 5 500 41 Q463 77 463 92 Q463 110 481 125 Q501 139 511 147 Q598 216 655 270 Q709 321 709 344 Q709 367 669 367 Q657 367 503 335 Q477 335 477 372 Q477 393 575 491 Q640 557 659 583 Q626 583 555 566 Q488 549 450 549 Q418 549 418 570 Q418 616 442 649 Q460 673 472 673 Q475 673 485 665 Q492 657 503 657 Q522 657 607 682 Q694 706 720 706 Q752 706 778 689 Q804 671 804 640 Q804 617 756 545 Q743 527 724 497 L692 450 L709 451 Q759 451 792 427 Q829 398 829 350 ZM366 671 Q364 598 362 562 Q359 448 359 391 L360 42 Q360 11 328 11 L264 11 Q233 11 233 43 Q233 224 265 543 L242 538 Q227 533 213 533 Q191 533 191 567 Q191 585 200 612 Q209 644 224 644 Q229 644 239 639 Q247 634 249 634 Q271 634 291 648 L324 674 Q345 690 353 690 Q366 690 366 671 ZM259 -101 Q152 -34 90 87 Q24 213 24 359 Q24 504 90 630 Q153 751 259 818 L275 801 Q119 636 119 358 Q119 90 275 -75 L259 -101 Z" /><glyph glyph-name="uni2481" unicode="&#x2481;" d="M976 359 Q976 213 910 87 Q846 -35 741 -101 L724 -75 Q881 91 881 358 Q881 633 724 801 L741 818 Q845 753 910 630 Q976 504 976 359 ZM870 370 Q870 321 855 289 Q845 268 720 190 Q705 81 705 36 Q705 14 687 14 L609 11 Q595 10 595 31 Q595 56 605 142 Q556 132 514 132 Q388 132 388 239 Q388 319 462 440 Q516 529 592 618 Q668 706 691 706 Q704 706 704 670 Q704 652 665 589 L573 435 Q522 345 498 273 Q497 271 497 266 Q497 249 520 249 Q550 249 625 272 Q642 372 686 474 Q730 577 753 577 Q766 577 766 565 Q766 540 753 454 L734 323 Q765 330 812 352 Q863 376 865 376 Q870 376 870 370 ZM359 642 Q357 604 356 558 Q353 447 353 391 L355 42 Q355 11 322 11 L258 11 Q227 11 227 43 Q227 204 260 543 L234 537 Q221 533 207 533 Q185 533 185 567 Q185 585 194 612 Q203 644 218 644 Q223 644 233 639 Q241 634 243 634 Q265 634 285 648 L318 674 Q339 690 347 690 Q360 690 360 671 L359 642 ZM259 -101 Q152 -34 90 87 Q24 213 24 359 Q24 504 90 630 Q153 751 259 818 L275 801 Q119 636 119 358 Q119 90 275 -75 L259 -101 Z" /><glyph glyph-name="uni2482" unicode="&#x2482;" d="M976 359 Q976 213 910 87 Q846 -35 741 -101 L724 -75 Q881 91 881 358 Q881 633 724 801 L741 818 Q845 753 910 630 Q976 504 976 359 ZM777 32 Q777 12 764 12 L669 14 Q658 14 658 36 Q658 43 664 107 Q671 181 671 199 Q671 301 628 301 Q608 301 525 255 Q445 209 437 209 Q391 209 391 247 Q391 349 480 597 Q495 643 521 673 Q543 698 556 698 Q572 698 572 680 Q572 669 570 627 Q614 627 680 650 Q695 654 746 673 Q751 673 751 654 Q751 606 737 584 Q726 567 696 555 Q679 548 556 521 L528 376 Q547 392 588 405 Q627 417 654 417 Q735 417 764 326 Q779 274 779 159 L777 32 ZM359 641 Q357 602 356 557 Q353 452 353 391 L354 42 Q354 11 322 11 L258 11 Q227 11 227 43 Q227 224 259 543 L236 538 Q221 533 207 533 Q185 533 185 567 Q185 585 194 612 Q203 644 218 644 Q223 644 233 639 Q241 634 243 634 Q265 634 285 648 L318 674 Q339 690 347 690 Q360 690 360 671 L359 641 ZM259 -101 Q152 -34 90 87 Q24 213 24 359 Q24 504 90 630 Q153 751 259 818 L275 801 Q119 636 119 358 Q119 90 275 -75 L259 -101 Z" /><glyph glyph-name="uni2483" unicode="&#x2483;" d="M976 359 Q976 213 910 87 Q846 -35 741 -101 L724 -75 Q881 91 881 358 Q881 633 724 801 L741 818 Q845 753 910 630 Q976 504 976 359 ZM832 309 Q832 198 758 106 Q680 9 571 9 Q391 9 391 204 Q391 286 473 420 Q538 531 614 611 Q705 708 751 708 Q768 708 768 684 Q768 670 716 584 Q685 533 623 434 Q656 444 689 444 Q747 444 790 406 Q832 369 832 309 ZM359 642 Q357 604 356 558 Q352 459 352 391 L354 42 Q354 11 321 11 L257 11 Q226 11 226 43 Q226 204 259 543 L233 537 Q220 533 206 533 Q184 533 184 567 Q184 585 193 612 Q202 644 217 644 Q222 644 232 639 Q240 634 242 634 Q265 634 285 648 L318 674 Q337 690 346 690 Q360 690 360 671 L359 642 ZM259 -101 Q152 -34 90 87 Q24 213 24 359 Q24 504 90 630 Q153 751 259 818 L275 801 Q119 636 119 358 Q119 90 275 -75 L259 -101 ZM741 304 Q741 359 668 359 Q608 359 571 328 Q522 286 522 180 Q522 155 541 140 Q555 127 578 127 Q633 127 687 188 Q741 248 741 304 Z" /><glyph glyph-name="uni2484" unicode="&#x2484;" d="M976 359 Q976 213 910 87 Q846 -35 741 -101 L724 -75 Q881 91 881 358 Q881 633 724 801 L741 818 Q845 753 910 630 Q976 504 976 359 ZM793 672 Q793 665 770 584 Q736 465 716 373 Q683 225 659 30 Q656 7 634 7 Q615 7 594 8 Q550 10 558 10 Q534 10 534 31 Q534 99 598 371 Q625 493 649 557 Q550 523 418 523 Q387 523 387 558 Q387 588 418 623 Q445 656 457 656 Q461 652 469 646 Q480 635 501 635 Q505 635 697 671 Q760 683 780 683 Q793 683 793 672 ZM359 642 Q357 604 356 558 Q352 459 352 391 L354 42 Q354 11 321 11 L257 11 Q226 11 226 43 Q226 204 259 543 L233 537 Q220 533 206 533 Q184 533 184 567 Q184 585 193 612 Q202 644 217 644 Q222 644 232 639 Q240 634 242 634 Q265 634 285 648 L318 674 Q337 690 346 690 Q360 690 360 671 L359 642 ZM259 -101 Q152 -34 90 87 Q24 213 24 359 Q24 504 90 630 Q153 751 259 818 L275 801 Q119 636 119 358 Q119 90 275 -75 L259 -101 Z" /><glyph glyph-name="uni2485" unicode="&#x2485;" d="M976 359 Q976 213 910 87 Q846 -35 741 -101 L724 -75 Q881 91 881 358 Q881 633 724 801 L741 818 Q845 753 910 630 Q976 504 976 359 ZM843 575 Q843 559 816 533 Q715 435 667 374 Q770 264 770 162 Q769 88 707 46 Q653 10 574 10 Q496 10 455 51 Q412 91 412 167 Q412 260 522 369 Q480 413 465 438 Q440 476 440 522 Q440 579 487 627 Q527 667 586 689 Q636 705 659 705 Q701 705 701 682 Q701 675 691 668 L672 656 Q611 616 594 602 Q548 563 548 526 Q548 497 605 446 Q658 502 719 542 Q796 591 826 591 Q843 591 843 575 ZM364 558 Q360 459 360 391 L362 42 Q362 11 329 11 L265 11 Q234 11 234 43 Q234 204 267 543 L241 537 Q228 533 214 533 Q192 533 192 567 Q192 585 201 612 Q210 644 225 644 Q230 644 240 639 Q248 634 250 634 Q273 634 293 648 L326 674 Q345 690 354 690 Q367 690 367 671 L364 558 ZM259 -101 Q152 -34 90 87 Q24 213 24 359 Q24 504 90 630 Q153 751 259 818 L275 801 Q119 636 119 358 Q119 90 275 -75 L259 -101 ZM652 167 Q652 223 591 286 Q528 216 528 156 Q528 110 593 110 Q618 110 635 126 Q652 141 652 167 Z" /><glyph glyph-name="uni2486" unicode="&#x2486;" d="M976 359 Q976 213 910 87 Q846 -35 741 -101 L724 -75 Q881 91 881 358 Q881 633 724 801 L741 818 Q845 753 910 630 Q976 504 976 359 ZM799 544 Q799 539 788 427 Q750 65 750 41 Q750 13 716 13 L667 13 Q632 13 632 41 Q632 83 651 196 Q670 314 689 375 Q607 305 516 305 Q398 305 398 434 Q398 515 467 588 Q529 653 612 680 Q675 701 725 701 Q786 701 786 665 Q786 647 756 639 Q707 626 671 611 Q614 585 563 541 Q495 485 495 437 Q495 402 544 402 Q597 402 721 487 Q724 501 748 530 Q773 558 785 558 Q799 558 799 544 ZM361 642 Q359 604 358 558 Q354 459 354 391 L356 42 Q356 11 323 11 L259 11 Q228 11 228 43 Q228 204 261 543 L235 537 Q222 533 208 533 Q186 533 186 567 Q186 585 195 612 Q204 644 219 644 Q224 644 234 639 Q242 634 244 634 Q267 634 287 648 L320 674 Q339 690 348 690 Q362 690 362 671 L361 642 ZM259 -101 Q152 -34 90 87 Q24 213 24 359 Q24 504 90 630 Q153 751 259 818 L275 801 Q119 636 119 358 Q119 90 275 -75 L259 -101 Z" /><glyph glyph-name="uni2487" unicode="&#x2487;" d="M976 359 Q976 213 910 87 Q846 -35 741 -101 L724 -75 Q881 91 881 358 Q881 633 724 801 L741 818 Q845 753 910 630 Q976 504 976 359 ZM853 395 Q853 275 810 157 Q753 2 653 2 Q577 2 547 104 Q526 170 526 266 Q526 358 566 477 Q608 606 669 667 Q693 691 718 691 Q721 691 739 675 Q853 675 853 395 ZM514 156 Q514 10 271 10 Q230 10 215 28 Q199 45 199 86 Q199 126 227 200 L273 310 Q284 339 329 451 Q365 535 365 559 Q365 564 360 564 Q355 564 302 533 L254 499 Q228 479 215 479 Q197 479 197 515 Q197 533 209 575 Q223 622 236 622 Q237 622 244 615 Q247 608 252 611 Q271 624 332 660 Q380 684 415 684 Q468 684 468 584 Q468 551 436 467 Q428 443 377 309 Q326 179 326 153 Q326 137 363 137 Q383 137 418 156 L459 181 Q485 197 492 197 Q514 197 514 156 ZM259 -101 Q152 -34 90 87 Q24 213 24 359 Q24 504 90 630 Q153 751 259 818 L275 801 Q119 636 119 358 Q119 90 275 -75 L259 -101 ZM768 452 Q768 486 758 541 Q746 599 731 599 Q688 599 650 441 Q620 312 620 241 Q620 199 628 164 Q638 108 660 108 Q710 108 743 253 Q768 369 768 452 Z" /><glyph glyph-name="uni2460" unicode="&#x2460;" d="M993 360 Q993 155 850 10 Q706 -134 501 -134 Q295 -134 151 10 Q7 154 7 360 Q7 566 151 710 Q295 854 501 854 Q706 854 850 710 Q993 565 993 360 ZM927 360 Q927 537 803 664 Q677 788 500 788 Q321 788 197 664 Q73 539 73 360 Q73 180 197 57 Q321 -67 500 -67 Q677 -67 803 57 Q927 181 927 360 ZM579 671 Q579 634 574 534 Q570 451 570 396 Q570 348 573 42 Q573 11 531 11 L452 11 Q413 11 413 43 Q413 205 453 543 L421 537 Q402 533 388 533 Q360 533 360 567 Q360 588 371 613 Q383 644 401 644 Q405 644 420 639 Q430 634 438 634 Q461 634 486 648 L565 690 Q579 690 579 671 Z" /><glyph glyph-name="uni2461" unicode="&#x2461;" d="M993 360 Q993 155 850 10 Q706 -134 501 -134 Q295 -134 151 10 Q7 154 7 360 Q7 566 151 710 Q295 854 501 854 Q706 854 850 710 Q993 565 993 360 ZM927 360 Q927 537 803 664 Q677 788 500 788 Q321 788 197 664 Q73 539 73 360 Q73 180 197 57 Q321 -67 500 -67 Q677 -67 803 57 Q927 181 927 360 ZM794 155 Q794 9 373 9 Q313 9 290 20 Q249 36 249 85 Q249 139 382 309 Q566 546 566 565 Q566 570 558 570 Q531 570 408 524 Q288 479 276 479 Q245 479 245 514 Q245 540 268 580 Q291 621 312 621 Q315 621 325 616 Q333 610 336 610 Q582 683 623 683 Q667 683 692 656 Q716 628 716 584 Q716 547 644 442 Q639 436 547 309 Q451 177 451 149 Q451 136 524 136 Q589 136 667 166 Q745 196 757 196 Q794 196 794 155 Z" /><glyph glyph-name="uni2462" unicode="&#x2462;" d="M993 360 Q993 155 850 10 Q706 -134 501 -134 Q295 -134 151 10 Q7 154 7 360 Q7 566 151 710 Q295 854 501 854 Q706 854 850 710 Q993 565 993 360 ZM927 360 Q927 537 803 664 Q677 788 500 788 Q321 788 197 664 Q73 539 73 360 Q73 180 197 57 Q321 -67 500 -67 Q677 -67 803 57 Q927 181 927 360 ZM766 349 Q766 299 673 200 Q607 129 537 74 Q451 4 420 4 Q401 4 356 40 Q309 75 309 92 Q309 110 331 125 Q353 136 368 146 Q617 302 617 344 Q617 367 566 367 Q547 367 457 350 Q373 334 355 334 Q327 334 327 372 Q327 392 449 490 Q523 550 554 583 Q512 583 424 566 Q342 549 293 549 Q253 549 253 570 Q253 616 283 649 Q306 673 320 673 Q326 673 336 664 Q344 656 358 656 Q379 656 496 680 Q618 705 630 705 Q666 705 697 691 Q735 673 735 640 Q735 617 676 544 Q644 508 595 449 L617 450 Q675 450 715 429 Q766 402 766 349 Z" /><glyph glyph-name="uni2463" unicode="&#x2463;" d="M993 360 Q993 155 850 10 Q706 -134 501 -134 Q295 -134 151 10 Q7 154 7 360 Q7 566 151 710 Q295 854 501 854 Q706 854 850 710 Q993 565 993 360 ZM927 360 Q927 537 803 664 Q677 788 500 788 Q321 788 197 664 Q73 539 73 360 Q73 180 197 57 Q321 -67 500 -67 Q677 -67 803 57 Q927 181 927 360 ZM827 369 Q827 322 808 290 Q794 269 624 191 Q603 79 603 37 Q603 15 579 15 L474 12 Q454 11 454 32 Q454 56 468 143 Q402 133 344 133 Q173 133 173 240 Q173 319 278 446 Q351 534 450 619 Q555 707 584 707 Q602 707 602 671 Q602 650 548 590 Q492 525 421 429 Q321 295 321 265 Q321 250 352 250 Q391 250 494 273 Q510 339 564 446 Q629 578 669 578 Q686 578 686 566 Q686 548 643 324 Q668 328 743 353 Q818 377 820 377 Q827 377 827 369 Z" /><glyph glyph-name="uni2464" unicode="&#x2464;" d="M993 360 Q993 155 850 10 Q706 -134 501 -134 Q295 -134 151 10 Q7 154 7 360 Q7 566 151 710 Q295 854 501 854 Q706 854 850 710 Q993 565 993 360 ZM927 360 Q927 537 803 664 Q677 788 500 788 Q321 788 197 664 Q73 539 73 360 Q73 180 197 57 Q321 -67 500 -67 Q677 -67 803 57 Q927 181 927 360 ZM750 32 Q749 13 727 13 L610 14 Q592 14 592 36 Q592 46 604 109 Q615 175 615 199 Q615 301 532 301 Q473 301 356 256 Q239 210 211 210 Q169 210 169 247 Q169 300 222 424 Q265 526 308 597 Q370 698 406 698 Q428 698 428 663 Q428 651 425 627 Q482 627 594 650 Q651 659 709 674 Q717 668 716 655 Q716 642 708 616 Q698 590 691 584 Q661 559 549 541 Q534 538 401 521 L353 371 Q390 391 462 405 Q524 417 576 417 Q663 417 713 344 Q754 280 754 191 L750 32 Z" /><glyph glyph-name="uni2465" unicode="&#x2465;" d="M993 360 Q993 155 850 10 Q706 -134 501 -134 Q295 -134 151 10 Q7 154 7 360 Q7 566 151 710 Q295 854 501 854 Q706 854 850 710 Q993 565 993 360 ZM927 360 Q927 537 803 664 Q677 788 500 788 Q321 788 197 664 Q73 539 73 360 Q73 180 197 57 Q321 -67 500 -67 Q677 -67 803 57 Q927 181 927 360 ZM765 309 Q765 185 664 98 Q565 9 439 9 Q214 9 214 204 Q214 282 309 410 Q376 502 465 586 Q593 708 664 708 Q685 708 685 684 Q685 669 620 584 L504 434 Q544 444 587 444 Q655 444 706 411 Q765 372 765 309 ZM651 304 Q651 359 560 359 Q377 359 377 180 Q377 155 401 140 Q420 127 447 127 Q510 127 580 185 Q651 242 651 304 Z" /><glyph glyph-name="uni2466" unicode="&#x2466;" d="M993 360 Q993 155 850 10 Q706 -134 501 -134 Q295 -134 151 10 Q7 154 7 360 Q7 566 151 710 Q295 854 501 854 Q706 854 850 710 Q993 565 993 360 ZM927 360 Q927 537 803 664 Q677 788 500 788 Q321 788 197 664 Q73 539 73 360 Q73 180 197 57 Q321 -67 500 -67 Q677 -67 803 57 Q927 181 927 360 ZM752 672 Q752 665 723 584 Q632 334 584 30 Q580 7 552 7 Q525 7 505 8 L458 10 Q428 10 428 31 Q428 98 485 296 Q533 464 571 557 Q440 522 255 522 Q239 522 228 532 Q215 541 215 557 Q215 579 248 618 Q281 656 303 656 Q333 635 358 635 Q417 635 550 659 Q682 683 736 683 Q752 683 752 672 Z" /><glyph glyph-name="uni2467" unicode="&#x2467;" d="M993 360 Q993 155 850 10 Q706 -134 501 -134 Q295 -134 151 10 Q7 154 7 360 Q7 566 151 710 Q295 854 501 854 Q706 854 850 710 Q993 565 993 360 ZM927 360 Q927 537 803 664 Q677 788 500 788 Q321 788 197 664 Q73 539 73 360 Q73 180 197 57 Q321 -67 500 -67 Q677 -67 803 57 Q927 181 927 360 ZM801 575 Q801 559 767 533 Q636 431 580 374 Q709 263 709 162 Q709 80 622 41 Q556 10 464 10 Q375 10 325 44 Q262 85 262 167 Q262 260 399 369 Q348 411 330 435 Q297 477 297 522 Q297 580 361 631 Q413 671 479 689 Q541 705 570 705 Q623 705 623 682 Q623 674 587 656 Q513 619 492 605 Q432 563 432 526 Q432 496 503 446 Q567 502 645 542 Q740 591 779 591 Q801 591 801 575 ZM562 167 Q562 224 486 286 Q407 216 407 156 Q407 110 488 110 Q516 110 540 125 Q562 141 562 167 Z" /><glyph glyph-name="uni2468" unicode="&#x2468;" d="M993 360 Q993 155 850 10 Q706 -134 501 -134 Q295 -134 151 10 Q7 154 7 360 Q7 566 151 710 Q295 854 501 854 Q706 854 850 710 Q993 565 993 360 ZM927 360 Q927 537 803 664 Q677 788 500 788 Q321 788 197 664 Q73 539 73 360 Q73 180 197 57 Q321 -67 500 -67 Q677 -67 803 57 Q927 181 927 360 ZM664 41 Q664 13 621 13 L560 13 Q517 13 517 41 Q517 108 540 210 Q561 309 588 375 Q487 305 371 305 Q223 305 223 434 Q223 518 319 594 Q397 654 491 680 Q569 701 632 701 Q709 701 709 665 Q709 647 672 639 Q596 622 565 611 Q501 588 433 544 Q345 486 345 437 Q345 402 406 402 Q473 402 628 487 Q635 506 663 531 Q692 558 708 558 Q726 558 726 544 L664 41 Z" /><glyph glyph-name="uni2469" unicode="&#x2469;" d="M993 360 Q993 155 850 10 Q706 -134 501 -134 Q295 -134 151 10 Q7 154 7 360 Q7 566 151 710 Q295 854 501 854 Q706 854 850 710 Q993 565 993 360 ZM927 360 Q927 537 803 664 Q677 788 500 788 Q321 788 197 664 Q73 539 73 360 Q73 180 197 57 Q321 -67 500 -67 Q677 -67 803 57 Q927 181 927 360 ZM823 395 Q823 270 775 153 Q714 2 607 2 Q469 2 469 266 Q469 359 514 480 Q563 608 625 667 Q649 691 676 691 Q680 691 698 675 Q770 675 803 564 Q823 490 823 395 ZM382 391 L384 42 Q384 11 351 11 L277 11 Q246 11 246 43 Q246 204 279 543 Q230 533 226 533 Q204 533 204 567 Q204 585 213 612 Q222 644 237 644 Q242 644 252 638 Q261 633 266 633 Q281 633 305 648 Q368 690 379 690 Q390 690 390 671 L382 391 ZM714 452 Q714 599 690 599 Q665 599 626 443 Q588 300 588 241 Q588 108 615 108 Q660 108 691 260 Q714 377 714 452 Z" /><glyph glyph-name="uni3220" unicode="&#x3220;" d="M802 438 Q813 438 813 425 Q798 391 783 353 Q773 326 741 323 Q678 311 573 305 Q454 295 249 295 Q183 304 183 342 Q193 393 272 441 Q283 441 289 443 Q299 438 310 424 Q322 415 367 415 Q481 415 586 422 Q682 425 802 438 ZM273 801 Q118 640 117 356 Q120 84 273 -72 L258 -103 Q31 56 23 362 Q35 655 256 821 L273 801 ZM740 819 Q972 659 975 358 Q960 43 740 -101 L723 -72 Q877 77 881 352 Q881 639 723 799 L740 819 Z" /><glyph glyph-name="uni3221" unicode="&#x3221;" d="M715 613 Q727 613 727 598 Q716 574 694 522 Q685 493 650 490 Q614 480 539 470 Q460 460 324 460 Q258 469 258 507 Q270 558 348 606 Q358 606 364 608 Q374 603 385 589 Q397 580 442 580 Q508 580 580 589 Q646 595 715 613 ZM816 218 Q830 218 830 202 L793 115 Q781 84 742 79 Q675 65 575 56 Q449 44 251 44 Q174 53 174 98 Q187 158 277 213 Q291 213 297 214 Q308 211 321 193 Q335 182 387 182 Q501 182 604 193 Q715 201 816 218 ZM273 801 Q118 640 117 356 Q120 84 273 -72 L258 -103 Q31 56 23 362 Q35 655 256 821 L273 801 ZM740 819 Q972 659 975 358 Q960 43 740 -101 L723 -72 Q877 77 881 352 Q881 639 723 799 L740 819 Z" /><glyph glyph-name="uni3222" unicode="&#x3222;" d="M768 698 Q779 698 779 685 L750 615 Q740 588 709 585 Q650 572 565 565 Q459 553 288 553 Q224 562 224 600 Q233 650 311 696 Q321 696 327 698 Q337 693 348 679 Q359 671 403 671 Q497 671 587 678 Q686 685 768 698 ZM714 444 Q725 444 725 432 Q715 412 697 368 Q688 343 659 340 Q616 327 546 316 Q468 302 327 302 Q268 311 268 345 Q277 391 348 434 Q358 434 363 436 Q370 434 382 420 Q394 411 433 411 Q504 411 574 421 Q650 428 714 444 ZM828 181 Q841 181 841 167 Q821 125 808 87 Q796 56 762 53 Q689 35 577 20 Q439 2 219 2 Q215 2 214 3 Q239 -36 273 -72 L258 -103 Q31 56 23 362 Q35 655 256 821 L273 801 Q118 640 117 356 Q119 205 166 94 Q191 126 243 160 Q256 160 262 162 Q270 158 284 141 Q298 131 346 131 Q471 131 589 145 Q708 156 828 181 ZM740 819 Q972 659 975 358 Q960 43 740 -101 L723 -72 Q877 77 881 352 Q881 639 723 799 L740 819 Z" /><glyph glyph-name="uni3223" unicode="&#x3223;" d="M418 577 Q388 565 358 550 Q327 406 314 335 Q291 191 291 155 Q291 98 355 97 Q436 97 542 121 Q619 136 706 160 L703 241 Q654 225 604 222 Q519 222 510 289 Q510 401 545 513 Q570 582 590 619 Q559 618 523 611 Q483 418 451 179 Q448 142 429 142 L336 161 Q319 162 319 181 Q367 423 418 577 ZM699 318 Q693 420 679 570 Q670 595 646 607 Q629 450 626 324 Q626 303 639 303 Q668 306 699 318 ZM369 702 Q384 696 384 672 L378 643 Q413 663 454 680 Q534 706 605 706 Q749 703 800 575 Q831 377 844 122 Q878 222 881 352 Q881 639 723 799 L740 819 Q972 659 975 358 Q960 43 740 -101 L723 -72 Q767 -28 796 20 L739 20 Q708 20 708 44 L708 80 Q681 69 660 63 Q515 6 385 3 Q151 3 151 174 Q157 296 205 433 Q258 575 327 683 Q352 702 369 702 ZM273 801 Q118 640 117 356 Q120 84 273 -72 L258 -103 Q31 56 23 362 Q35 655 256 821 L273 801 Z" /><glyph glyph-name="uni3224" unicode="&#x3224;" d="M832 121 Q840 121 843 118 Q878 218 881 352 Q881 639 723 799 L740 819 Q972 659 975 358 Q960 43 740 -101 L723 -72 Q762 -35 790 10 Q781 5 771 4 Q711 -9 489 -15 Q439 -15 257 -13 Q240 -12 222 -10 Q248 -45 273 -72 L258 -103 Q31 56 23 362 Q35 655 256 821 L273 801 Q118 640 117 356 Q118 202 170 84 Q172 87 177 92 Q193 112 224 131 Q235 131 241 133 Q250 130 263 114 Q273 106 306 104 Q337 250 353 315 Q301 309 273 307 Q236 307 236 338 Q247 376 269 400 Q295 434 318 438 Q325 434 331 423 Q340 417 351 417 Q369 419 379 421 Q402 510 425 579 Q379 579 355 580 Q293 583 277 594 Q253 606 253 637 Q262 665 279 680 Q294 699 323 717 Q334 717 340 719 Q350 714 360 701 Q371 691 416 691 Q505 687 593 687 Q674 689 719 699 L777 707 Q793 707 793 693 L762 625 Q752 601 721 595 Q687 581 576 578 L545 578 Q532 525 514 437 L517 437 Q592 444 600 444 Q685 444 699 356 Q729 224 749 111 Q756 111 770 113 Q790 115 832 121 ZM585 308 Q585 327 571 333 L493 329 Q467 189 453 100 L507 100 Q539 100 593 102 L585 308 Z" /><glyph glyph-name="uni3225" unicode="&#x3225;" d="M820 587 Q836 587 836 573 Q820 536 803 501 Q793 475 760 469 Q703 453 518 449 Q376 449 285 451 Q218 454 203 466 Q178 478 178 511 Q187 538 205 556 Q224 578 252 595 Q264 595 270 597 Q280 592 291 578 Q304 568 350 568 Q403 565 446 565 Q440 589 438 602 L406 725 Q406 748 430 748 Q465 736 506 688 Q576 597 586 565 Q700 568 758 579 Q778 581 820 587 ZM392 340 Q410 340 410 318 Q365 156 320 0 Q310 -8 303 -8 Q238 4 200 23 Q233 -31 273 -72 L258 -103 Q31 56 23 362 Q35 655 256 821 L273 801 Q118 640 117 356 Q120 186 180 61 Q198 136 275 242 Q351 337 392 340 ZM587 339 Q640 324 699 261 Q816 129 819 92 Q819 77 810 71 Q732 18 704 12 Q685 12 679 26 Q668 53 629 156 L562 312 Q562 339 587 339 ZM740 819 Q972 659 975 358 Q960 43 740 -101 L723 -72 Q877 77 881 352 Q881 639 723 799 L740 819 Z" /><glyph glyph-name="uni3226" unicode="&#x3226;" d="M757 581 Q770 581 770 571 Q770 508 716 481 Q639 444 559 428 Q502 411 436 403 Q425 317 422 210 Q425 115 502 110 Q583 117 645 117 Q733 126 777 161 Q811 161 811 101 Q811 9 620 0 Q561 -7 527 -7 Q277 -7 265 172 Q265 285 288 386 Q251 382 211 380 Q138 380 138 413 Q138 440 162 489 Q200 541 222 547 Q241 535 255 524 Q271 516 302 516 Q319 516 327 517 Q350 583 387 651 Q444 750 491 766 Q508 766 508 744 Q473 640 454 527 Q487 530 532 538 Q643 552 757 581 ZM273 801 Q118 640 117 356 Q120 84 273 -72 L258 -103 Q31 56 23 362 Q35 655 256 821 L273 801 ZM740 819 Q972 659 975 358 Q960 43 740 -101 L723 -72 Q877 77 881 352 Q881 639 723 799 L740 819 Z" /><glyph glyph-name="uni3227" unicode="&#x3227;" d="M407 611 Q414 611 426 607 Q432 600 432 592 Q432 585 402 460 L315 70 Q311 51 289 51 Q243 59 170 96 Q165 97 163 101 Q202 2 273 -72 L258 -103 Q31 56 23 362 Q35 655 256 821 L273 801 Q118 640 117 356 Q119 225 154 124 L154 128 Q180 229 284 437 Q359 574 407 611 ZM503 708 Q517 708 529 702 Q621 610 705 449 Q790 293 851 142 Q880 235 881 352 Q881 639 723 799 L740 819 Q972 659 975 358 Q960 43 740 -101 L723 -72 Q783 -13 820 63 Q764 32 725 18 Q716 18 711 22 Q626 282 494 660 Q487 671 487 687 Q490 701 503 708 Z" /><glyph glyph-name="uni3228" unicode="&#x3228;" d="M703 588 Q755 582 755 533 Q732 423 709 339 Q689 251 683 150 Q686 100 741 100 Q764 100 780 108 Q785 110 788 115 Q791 118 793 118 Q816 108 827 97 L832 90 Q878 203 881 352 Q881 639 723 799 L740 819 Q972 659 975 358 Q960 43 740 -101 L723 -72 Q765 -30 795 18 Q732 2 693 2 Q546 2 546 142 Q546 230 646 463 Q646 473 627 473 L480 454 L467 422 Q394 208 317 -4 Q313 -22 298 -22 Q259 -12 213 4 Q239 -36 273 -72 L258 -103 Q31 56 23 362 Q35 655 256 821 L273 801 Q118 640 117 356 Q120 185 181 60 Q195 104 232 199 Q276 298 345 436 Q248 422 221 422 Q188 422 188 451 Q198 493 229 531 Q265 565 285 565 Q305 544 320 544 L413 555 Q500 695 560 729 Q583 729 583 714 Q576 684 544 612 L527 569 L549 572 Q676 586 703 588 Z" /><glyph glyph-name="uni3229" unicode="&#x3229;" d="M556 728 Q572 722 572 670 Q564 572 558 430 Q568 430 588 432 Q703 438 820 453 Q832 453 832 440 Q816 405 803 370 Q792 342 762 339 Q693 327 583 318 Q563 316 554 316 Q549 171 549 -4 Q549 -23 508 -23 L411 -23 Q390 -20 387 0 Q393 169 410 308 Q356 306 236 306 Q172 315 172 353 Q183 403 259 449 Q270 449 275 451 Q285 446 296 432 Q308 423 352 423 Q401 423 426 424 Q450 571 487 651 Q525 724 556 728 ZM273 801 Q118 640 117 356 Q120 84 273 -72 L258 -103 Q31 56 23 362 Q35 655 256 821 L273 801 ZM740 819 Q972 659 975 358 Q960 43 740 -101 L723 -72 Q877 77 881 352 Q881 639 723 799 L740 819 Z" /><glyph glyph-name="uni2160" unicode="&#x2160;" d="M593 732 Q592 725 592 718 Q587 638 587 413 Q587 306 589 222 L591 30 Q591 0 528 0 L466 0 Q407 0 407 28 Q407 217 430 394 Q460 639 521 722 Q550 761 572 761 Q594 761 594 746 L593 732 Z" /><glyph glyph-name="uni2161" unicode="&#x2161;" d="M738 746 Q731 641 731 413 Q731 306 733 222 L735 30 Q735 0 672 0 L610 0 Q551 0 551 28 Q551 217 574 394 Q604 639 665 722 Q694 761 716 761 Q738 761 738 746 ZM449 746 Q448 694 446 645 Q442 541 442 413 Q442 306 444 222 L446 30 Q446 0 383 0 L321 0 Q262 0 262 28 Q262 217 285 394 Q315 639 376 722 Q405 761 427 761 Q449 761 449 746 Z" /><glyph glyph-name="uni2162" unicode="&#x2162;" d="M826 746 Q819 641 819 413 Q819 306 821 222 L823 30 Q823 0 760 0 L698 0 Q639 0 639 28 Q639 217 662 394 Q692 639 753 722 Q782 761 804 761 Q826 761 826 746 ZM593 746 Q586 641 586 413 Q586 306 588 222 L590 30 Q590 0 527 0 L465 0 Q406 0 406 28 Q406 217 429 394 Q459 639 520 722 Q549 761 571 761 Q593 761 593 746 ZM361 746 Q354 641 354 413 Q354 306 356 222 L358 30 Q358 0 295 0 L233 0 Q174 0 174 28 Q174 217 197 394 Q227 639 288 722 Q317 761 339 761 Q361 761 361 746 Z" /><glyph glyph-name="uni2163" unicode="&#x2163;" d="M873 736 Q873 733 845 584 Q813 421 784 294 Q751 156 731 107 Q682 -13 605 -13 Q521 -13 485 54 Q463 93 444 202 Q422 319 422 506 Q422 587 436 651 Q457 761 506 761 Q522 761 533 643 Q539 549 554 372 Q566 236 594 151 Q597 139 606 139 Q612 139 618 154 L685 404 Q739 602 766 672 Q801 761 834 761 Q873 761 873 736 ZM305 746 Q298 641 298 413 Q298 306 300 222 L302 30 Q302 0 244 0 L182 0 Q127 0 127 28 Q127 214 148 394 Q178 643 237 722 Q266 761 283 761 Q305 761 305 746 Z" /><glyph glyph-name="uni2164" unicode="&#x2164;" d="M855 737 Q855 716 824 648 Q792 582 730 448 Q699 381 651 257 Q606 137 584 85 Q541 -14 426 -14 Q276 -14 201 181 Q145 322 145 506 Q145 581 159 650 Q180 761 224 761 Q245 761 266 657 Q285 554 316 398 Q349 243 398 150 Q406 135 420 135 Q442 135 476 210 L566 426 Q622 561 673 633 Q762 761 838 761 Q855 761 855 737 Z" /><glyph glyph-name="uni2165" unicode="&#x2165;" d="M844 746 Q837 641 837 413 Q837 306 839 222 L841 30 Q841 0 783 0 L721 0 Q666 0 666 28 Q666 214 687 394 Q717 643 776 722 Q805 761 822 761 Q844 761 844 746 ZM607 736 Q607 733 579 584 Q547 421 518 294 Q485 156 465 107 Q416 -13 339 -13 Q255 -13 219 54 Q197 93 178 202 Q156 319 156 506 Q156 587 170 651 Q191 761 240 761 Q256 761 267 643 Q273 549 288 372 Q303 213 328 151 Q333 139 340 139 Q346 139 352 154 L419 404 Q473 602 500 672 Q535 761 568 761 Q607 761 607 736 Z" /><glyph glyph-name="uni2166" unicode="&#x2166;" d="M905 746 Q898 641 898 413 Q898 306 900 222 L902 30 Q902 0 849 0 L791 0 Q736 0 736 28 Q736 211 758 396 Q788 644 842 722 Q869 761 883 761 Q905 761 905 746 ZM699 746 Q692 641 692 413 Q692 306 694 222 L696 30 Q696 0 643 0 L585 0 Q530 0 530 28 Q530 211 552 396 Q582 644 636 722 Q663 761 677 761 Q699 761 699 746 ZM546 736 Q546 733 518 584 Q486 421 457 294 Q424 156 404 107 Q355 -13 278 -13 Q194 -13 158 54 Q136 93 117 202 Q95 319 95 506 Q95 587 109 651 Q130 761 179 761 Q195 761 206 643 Q212 549 227 372 Q242 213 267 151 Q272 139 279 139 Q285 139 291 154 L358 404 Q412 602 439 672 Q474 761 507 761 Q546 761 546 736 Z" /><glyph glyph-name="uni2167" unicode="&#x2167;" d="M943 703 Q941 657 940 606 Q935 499 935 414 L935 25 Q935 -1 898 -1 L808 1 Q782 1 782 29 Q782 359 844 607 Q882 761 923 761 Q944 761 944 739 L943 703 ZM762 602 Q757 497 757 414 L757 25 Q757 -1 720 -1 L630 1 Q604 1 604 29 Q604 359 666 607 Q704 761 746 761 Q767 761 767 739 L762 602 ZM591 739 Q591 718 586 588 Q581 491 581 414 L581 25 Q581 -1 544 -1 L454 1 Q428 1 428 29 Q428 359 490 607 Q528 761 570 761 Q591 761 591 739 ZM472 736 Q472 749 444 584 Q430 502 396 294 Q375 169 351 106 Q305 -13 229 -13 Q154 -13 116 61 Q91 109 76 202 Q56 315 56 506 Q56 587 70 651 Q91 761 140 761 Q159 761 165 643 Q169 551 186 372 Q199 218 218 151 Q221 139 230 139 Q238 139 242 154 Q249 176 303 403 Q320 483 371 667 Q401 761 433 761 Q472 761 472 736 Z" /><glyph glyph-name="uni2168" unicode="&#x2168;" d="M861 62 Q861 50 820 18 Q777 -13 766 -13 Q752 -13 744 4 Q687 126 620 265 Q607 225 546 4 Q540 -13 521 -13 Q509 -13 469 4 Q431 20 419 29 Q409 35 409 51 Q409 68 447 173 Q498 316 542 416 Q516 459 469 543 Q408 658 408 692 Q408 711 424 711 Q472 711 595 540 Q618 579 664 654 Q702 709 743 746 Q760 761 781 761 Q792 761 792 739 Q792 719 760 647 Q728 577 671 434 Q778 253 855 82 Q861 69 861 62 ZM317 746 Q310 641 310 413 Q310 306 312 222 L314 30 Q314 0 256 0 L194 0 Q139 0 139 28 Q139 214 160 394 Q190 643 249 722 Q278 761 295 761 Q317 761 317 746 Z" /><glyph glyph-name="uni2169" unicode="&#x2169;" d="M864 77 Q864 71 809 28 Q755 -13 743 -13 Q726 -13 714 4 Q604 143 472 292 Q421 217 289 4 Q277 -13 265 -13 Q251 -13 161 50 Q139 65 139 74 Q139 94 241 241 Q315 349 363 411 L220 565 Q136 655 136 678 Q136 697 164 697 Q180 697 267 651 Q356 602 453 524 Q570 658 712 751 Q729 761 744 761 Q771 761 771 739 Q771 722 745 688 Q650 566 560 432 Q696 314 855 97 Q864 85 864 77 Z" /><glyph glyph-name="uni216A" unicode="&#x216a;" d="M841 746 Q834 641 834 413 Q834 306 836 222 L838 30 Q838 0 780 0 L718 0 Q663 0 663 28 Q663 214 684 394 Q714 643 773 722 Q802 761 819 761 Q841 761 841 746 ZM612 62 Q612 50 571 18 Q528 -13 517 -13 Q503 -13 495 4 Q438 126 371 265 Q358 225 297 4 Q291 -13 272 -13 Q260 -13 220 4 Q182 20 170 29 Q160 35 160 51 Q160 68 198 173 Q249 316 293 416 Q267 459 220 543 Q159 658 159 692 Q159 711 175 711 Q223 711 346 540 Q433 686 494 746 Q509 761 532 761 Q543 761 543 739 Q543 719 511 647 Q479 577 422 434 Q529 253 606 82 Q612 69 612 62 Z" /><glyph glyph-name="uni216B" unicode="&#x216b;" d="M923 746 Q914 602 914 410 Q914 346 917 220 Q920 94 920 30 Q920 0 866 0 L804 0 Q749 0 749 28 Q749 202 773 394 Q803 640 859 722 Q886 761 905 761 Q923 761 923 746 ZM719 746 Q710 602 710 410 Q710 346 713 220 Q716 94 716 30 Q716 0 662 0 L600 0 Q545 0 545 28 Q545 202 569 394 Q599 640 655 722 Q682 761 701 761 Q719 761 719 746 ZM530 62 Q530 50 489 18 Q446 -13 435 -13 Q421 -13 413 4 Q356 126 289 265 Q276 225 215 4 Q209 -13 190 -13 Q178 -13 138 4 Q100 20 88 29 Q78 35 78 51 Q78 68 116 173 Q167 316 211 416 Q185 459 138 543 Q77 658 77 692 Q77 711 93 711 Q141 711 264 540 Q351 686 412 746 Q427 761 450 761 Q461 761 461 739 Q461 719 429 647 Q397 577 340 434 Q447 253 524 82 Q530 69 530 62 Z" /><glyph glyph-name="uniFF01" unicode="&#xff01;" d="M256 648 Q256 636 197 188 L138 188 L80 648 Q80 692 102 720 Q125 747 168 747 Q211 747 235 718 Q256 691 256 648 ZM253 57 Q253 22 228 -3 Q201 -28 168 -28 Q134 -28 109 -3 Q84 21 84 57 Q84 93 108 117 Q132 141 168 141 Q201 141 228 116 Q253 91 253 57 Z" /><glyph glyph-name="uniFF02" unicode="&#xff02;" d="M636 760 L601 516 L559 516 L525 753 Q524 757 524 769 Q524 840 580 840 Q636 840 636 769 L636 760 ZM476 760 L441 516 L399 516 L365 753 Q364 757 364 769 Q364 840 420 840 Q476 840 476 769 L476 760 Z" /><glyph glyph-name="uniFF03" unicode="&#xff03;" d="M775 441 L667 441 L647 261 L742 261 L742 138 L634 138 L616 -15 L536 -15 L553 138 L412 138 L394 -15 L316 -15 L334 138 L226 138 L226 261 L347 261 L367 441 L259 441 L259 563 L380 563 L399 734 L477 734 L457 563 L599 563 L618 734 L699 734 L680 563 L775 563 L775 441 ZM586 441 L445 441 L425 261 L566 261 L586 441 Z" /><glyph glyph-name="uniFFE5" unicode="&#xffe5;" d="M883 728 Q883 705 839 647 Q778 567 574 306 L853 306 L853 243 L571 243 Q568 156 568 29 Q568 0 536 0 L420 0 Q398 0 398 40 Q398 51 419 243 L138 243 L138 306 L402 306 L199 572 Q117 675 117 706 Q117 748 207 748 Q236 748 302 662 Q357 589 421 508 Q487 420 493 420 Q510 444 577 532 Q664 640 708 684 Q786 762 829 762 Q883 762 883 728 Z" /><glyph glyph-name="uniFF05" unicode="&#xff05;" d="M874 214 Q874 124 810 55 Q748 -13 657 -13 Q588 -13 552 30 Q519 69 519 139 Q519 210 587 296 Q659 385 728 385 Q735 385 750 375 Q874 375 874 214 ZM760 277 Q760 325 742 325 Q710 325 671 241 Q634 164 634 125 Q634 55 665 55 Q710 55 738 144 Q760 216 760 277 ZM884 702 L187 -13 L127 47 L824 762 L884 702 ZM472 591 Q472 501 408 432 Q344 364 254 364 Q184 364 150 407 Q117 446 117 517 Q117 589 185 673 Q256 762 325 762 Q333 762 348 752 Q472 752 472 591 ZM358 653 Q358 702 340 702 Q308 702 269 618 Q231 542 231 502 Q231 433 262 433 Q305 433 335 522 Q358 593 358 653 Z" /><glyph glyph-name="uniFF06" unicode="&#xff06;" d="M855 128 Q801 -13 700 -13 Q639 -13 577 46 Q494 -13 380 -13 Q276 -13 211 46 Q145 105 145 208 Q145 323 325 431 Q275 525 275 585 Q275 667 329 716 Q381 762 458 762 Q521 762 570 718 Q617 673 617 607 Q617 514 469 432 Q554 273 612 205 Q635 240 649 284 Q662 326 662 348 Q662 351 658 365 Q653 373 653 379 Q653 389 663 400 Q672 411 687 411 Q707 411 720 396 Q734 380 734 361 Q734 317 717 257 Q698 192 667 141 Q708 99 732 99 Q775 99 822 152 L855 128 ZM491 617 Q491 649 483 676 Q472 708 454 708 Q430 708 418 676 Q406 648 406 608 Q406 557 432 501 Q491 548 491 617 ZM516 110 Q426 221 360 359 Q284 290 284 219 Q284 162 320 123 Q359 80 423 80 Q471 80 516 110 Z" /><glyph glyph-name="uniFF07" unicode="&#xff07;" d="M350 787 Q350 760 321 720 L188 537 L150 558 L231 783 Q252 840 297 840 Q318 840 334 824 Q350 808 350 787 Z" /><glyph glyph-name="uniFF08" unicode="&#xff08;" d="M872 -120 Q739 -45 664 82 Q587 206 587 360 Q587 511 664 638 Q738 764 872 840 L913 781 Q732 607 732 360 Q732 113 913 -59 L872 -120 Z" /><glyph glyph-name="uniFF09" unicode="&#xff09;" d="M413 360 Q413 209 336 82 Q258 -46 128 -120 L87 -59 Q268 114 268 360 Q268 606 87 781 L128 840 Q260 765 336 638 Q413 508 413 360 Z" /><glyph glyph-name="uniFF0A" unicode="&#xff0a;" d="M793 403 Q793 350 735 332 Q723 327 637 327 Q556 327 535 328 Q675 235 694 209 Q713 181 713 159 Q713 127 688 102 Q663 78 631 78 Q594 78 567 115 Q545 145 500 306 Q455 148 433 116 Q406 79 369 79 Q336 79 312 104 Q287 128 287 160 Q287 184 306 210 Q325 236 465 329 Q443 328 363 328 Q276 328 265 333 Q207 351 207 404 Q207 437 228 464 Q250 489 284 489 Q296 489 314 483 Q350 471 479 369 Q421 524 421 560 Q421 598 443 620 Q465 642 500 642 Q533 642 557 620 Q579 596 579 560 Q579 527 521 368 Q650 470 686 482 Q704 488 716 488 Q749 488 772 462 Q793 437 793 403 Z" /><glyph glyph-name="uniFF0B" unicode="&#xff0b;" d="M848 315 L559 315 L559 38 L442 38 L442 315 L152 315 L152 430 L442 430 L442 710 L559 710 L559 430 L848 430 L848 315 Z" /><glyph glyph-name="uniFF0C" unicode="&#xff0c;" d="M334 71 Q334 24 292 -23 Q267 -50 211 -92 L184 -73 Q218 -11 218 0 Q218 17 192 54 Q167 89 167 99 Q167 120 211 143 Q252 164 275 164 Q293 164 314 128 Q334 91 334 71 Z" /><glyph glyph-name="uniFF0D" unicode="&#xff0d;" d="M848 315 L152 315 L152 430 L848 430 L848 315 Z" /><glyph glyph-name="uniFF0E" unicode="&#xff0e;" d="M334 84 Q334 48 310 24 Q285 0 250 0 Q214 0 190 24 Q166 48 166 84 Q166 120 190 144 Q214 168 250 168 Q285 168 310 144 Q334 119 334 84 Z" /><glyph glyph-name="uniFF0F" unicode="&#xff0f;" d="M733 777 L365 -101 L267 -56 L636 821 L733 777 Z" /><glyph glyph-name="uniFF10" unicode="&#xff10;" d="M832 432 Q832 258 716 125 Q596 -14 425 -14 Q294 -14 228 71 Q168 148 168 280 Q168 362 228 479 Q289 596 374 674 Q471 762 558 762 Q581 762 600 743 Q832 743 832 432 ZM690 496 Q690 559 669 602 Q642 659 585 659 Q490 659 403 501 Q326 362 326 252 Q326 195 355 154 Q386 105 440 105 Q556 105 629 247 Q690 366 690 496 Z" /><glyph glyph-name="uniFF11" unicode="&#xff11;" d="M617 613 Q612 511 612 430 Q612 346 613 230 L614 34 Q614 0 568 0 L480 0 Q437 0 437 35 Q437 254 482 599 L447 593 Q430 588 409 588 Q378 588 378 625 Q378 647 391 676 Q406 711 424 711 Q431 711 444 706 Q456 700 459 700 Q490 700 518 715 L568 744 Q598 762 603 762 Q622 762 622 741 L617 613 Z" /><glyph glyph-name="uniFF12" unicode="&#xff12;" d="M805 149 Q805 -13 337 -13 Q276 -13 245 0 Q199 18 199 72 Q199 140 347 331 Q390 385 459 483 Q551 613 551 631 Q551 637 542 637 Q519 637 376 586 Q234 535 229 535 Q195 535 195 574 Q195 600 220 646 Q246 693 269 693 Q272 693 284 686 Q292 678 301 681 L390 714 Q530 762 615 762 Q663 762 690 732 Q718 699 718 652 Q718 588 529 330 Q506 298 470 239 Q423 163 423 142 Q423 127 505 127 Q564 127 654 161 Q747 195 764 195 Q805 195 805 149 Z" /><glyph glyph-name="uniFF13" unicode="&#xff13;" d="M785 366 Q785 311 682 202 Q617 134 531 64 Q436 -13 401 -13 Q379 -13 329 27 Q277 66 277 84 Q277 104 301 120 L343 144 Q619 312 619 360 Q619 385 563 385 Q545 385 332 349 Q297 349 297 391 Q297 412 433 523 Q516 591 549 626 Q503 626 405 606 Q310 587 259 587 Q215 587 215 611 Q215 663 248 699 Q272 725 289 725 Q295 725 307 716 Q318 707 332 707 Q345 707 480 734 Q617 762 634 762 Q674 762 709 746 Q750 725 750 688 Q750 663 683 581 L595 477 L619 478 Q683 478 728 454 Q785 424 785 366 Z" /><glyph glyph-name="uniFF14" unicode="&#xff14;" d="M864 391 Q864 337 842 302 Q830 284 745 240 Q710 221 638 192 Q615 74 615 27 Q615 3 588 3 L471 0 Q449 0 449 22 Q449 36 465 139 Q396 128 327 128 Q137 128 137 247 Q137 336 254 478 Q334 576 445 670 Q554 762 593 762 Q613 762 613 722 Q613 707 555 637 Q301 329 301 275 Q301 259 336 259 Q379 259 494 284 Q518 388 586 506 Q654 623 688 623 Q707 623 707 609 Q707 582 688 487 Q678 442 659 340 Q695 346 776 373 Q854 399 856 399 Q864 399 864 391 Z" /><glyph glyph-name="uniFF15" unicode="&#xff15;" d="M820 22 Q819 0 795 0 L665 0 Q644 0 644 24 Q644 32 657 101 Q670 177 670 204 Q670 318 578 318 Q514 318 380 267 Q245 216 221 216 Q203 216 192 226 Q175 236 175 258 Q175 319 234 458 Q282 572 329 650 Q397 762 441 762 Q463 762 463 740 Q463 733 459 683 Q520 683 647 709 Q780 735 774 735 Q782 735 782 714 Q782 700 774 671 Q766 646 755 635 Q726 609 597 588 Q581 585 432 566 L379 396 Q425 419 500 433 Q575 447 627 447 Q725 447 779 366 Q825 295 825 196 L820 22 Z" /><glyph glyph-name="uniFF16" unicode="&#xff16;" d="M806 319 Q806 182 692 83 Q581 -13 444 -13 Q194 -13 194 203 Q194 295 311 448 Q401 568 503 655 Q627 762 694 762 Q717 762 717 736 Q717 718 645 625 L516 458 Q558 470 608 470 Q681 470 740 433 Q806 391 806 319 ZM680 314 Q680 375 578 375 Q496 375 443 340 Q375 296 375 177 Q375 149 401 133 Q424 118 453 118 Q522 118 601 182 Q680 247 680 314 Z" /><glyph glyph-name="uniFF17" unicode="&#xff17;" d="M799 750 Q799 745 766 653 Q669 385 612 26 Q608 0 577 0 L472 0 Q439 0 439 23 Q439 99 502 328 Q560 537 598 623 Q454 584 246 584 Q227 584 216 595 Q202 605 202 623 Q202 656 245 696 Q284 732 300 732 L317 720 Q332 709 361 709 Q421 709 514 724 L666 749 Q759 762 781 762 Q799 762 799 750 Z" /><glyph glyph-name="uniFF18" unicode="&#xff18;" d="M800 615 Q800 597 763 568 Q617 454 555 391 Q700 268 698 156 Q696 67 600 22 Q524 -13 426 -13 Q330 -13 271 25 Q201 70 201 162 Q201 218 255 288 Q297 340 354 386 Q295 436 277 459 Q240 503 240 556 Q240 639 352 705 Q451 762 544 762 Q602 762 602 737 Q602 726 563 708 Q390 624 390 560 Q390 529 469 472 Q546 536 627 578 Q734 633 776 633 Q800 633 800 615 ZM535 162 Q535 224 450 294 Q362 216 362 149 Q362 98 452 98 Q485 98 510 115 Q535 132 535 162 Z" /><glyph glyph-name="uniFF19" unicode="&#xff19;" d="M779 586 Q779 546 764 456 Q710 128 710 32 Q710 0 663 0 L595 0 Q547 0 547 32 Q547 97 574 218 Q597 326 626 399 Q512 321 385 321 Q221 321 221 464 Q221 592 387 682 Q533 761 675 761 Q760 761 760 721 Q760 701 719 692 Q612 668 506 616 Q356 541 356 468 Q356 429 424 429 Q500 429 670 523 Q676 540 709 572 Q742 602 759 602 Q779 602 779 586 Z" /><glyph glyph-name="uniFF1A" unicode="&#xff1a;" d="M334 450 Q334 414 310 390 Q285 366 250 366 Q214 366 190 390 Q166 414 166 450 Q166 485 190 510 Q214 534 250 534 Q285 534 310 510 Q334 485 334 450 ZM334 84 Q334 48 310 24 Q285 0 250 0 Q214 0 190 24 Q166 48 166 84 Q166 119 190 144 Q214 168 250 168 Q285 168 310 144 Q334 119 334 84 Z" /><glyph glyph-name="uniFF1B" unicode="&#xff1b;" d="M334 450 Q334 414 310 390 Q285 366 250 366 Q214 366 190 390 Q166 414 166 450 Q166 485 190 510 Q214 534 250 534 Q285 534 310 510 Q334 485 334 450 ZM334 75 Q334 28 292 -19 Q268 -46 211 -88 L184 -69 Q218 -1 218 4 Q218 21 192 58 Q167 93 167 103 Q167 124 211 147 Q250 168 275 168 Q293 168 314 132 Q334 95 334 75 Z" /><glyph glyph-name="uniFF1C" unicode="&#xff1c;" d="M839 15 L161 374 L839 733 L839 606 L396 374 L839 141 L839 15 Z" /><glyph glyph-name="uniFF1D" unicode="&#xff1d;" d="M848 420 L152 420 L152 535 L848 535 L848 420 ZM848 214 L152 214 L152 328 L848 328 L848 214 Z" /><glyph glyph-name="uniFF1E" unicode="&#xff1e;" d="M839 374 L161 15 L161 141 L604 374 L161 606 L161 733 L839 374 Z" /><glyph glyph-name="uniFF1F" unicode="&#xff1f;" d="M476 568 Q476 496 426 441 L334 350 Q284 290 284 202 L223 202 Q223 301 254 381 Q268 417 312 493 Q343 549 343 586 Q343 636 310 666 Q276 695 233 695 Q183 695 144 670 Q107 646 107 613 Q107 605 126 601 Q148 594 160 584 Q179 565 179 529 Q179 497 159 475 Q138 453 109 453 Q68 453 45 489 Q24 519 24 562 Q24 654 100 712 Q167 762 248 762 Q334 762 401 711 Q476 654 476 568 ZM335 71 Q335 37 310 12 Q283 -13 250 -13 Q215 -13 190 12 Q166 36 166 71 Q166 107 190 131 Q214 155 250 155 Q283 155 310 130 Q335 105 335 71 Z" /><glyph glyph-name="uniFF20" unicode="&#xff20;" d="M922 300 Q880 155 775 74 Q663 -13 499 -13 Q311 -13 195 90 Q78 194 78 370 Q78 544 204 655 Q328 762 511 762 Q674 762 776 686 Q887 602 887 447 Q887 337 809 241 Q729 140 630 140 Q598 140 572 156 Q544 171 535 196 Q470 140 408 140 Q346 140 314 181 Q280 221 280 282 Q280 386 355 491 Q434 603 525 603 Q575 603 608 582 L613 600 L744 600 L655 241 L655 235 Q655 220 682 220 Q714 220 762 289 Q817 368 817 447 Q817 562 725 628 Q640 687 511 687 Q381 687 300 588 Q225 495 225 371 Q225 221 307 140 Q384 63 523 63 Q646 63 742 132 Q830 196 872 300 L922 300 ZM595 506 Q586 537 553 537 Q503 537 459 433 Q421 342 421 274 Q421 237 449 237 Q475 237 508 267 Q537 294 544 319 L595 506 Z" /><glyph glyph-name="uniFF21" unicode="&#xff21;" d="M894 28 Q894 0 862 0 L735 0 Q704 0 692 35 Q649 147 611 268 Q513 237 357 219 Q329 171 286 19 Q280 0 261 0 L125 0 Q106 0 106 24 Q106 71 173 235 Q296 537 421 676 Q499 762 538 762 Q577 762 648 601 Q760 344 857 118 L894 28 ZM513 605 Q439 501 396 346 Q427 339 462 339 Q505 339 584 355 L513 605 Z" /><glyph glyph-name="uniFF22" unicode="&#xff22;" d="M834 229 Q834 89 587 27 Q428 -13 215 -13 Q166 -13 166 67 Q166 331 244 550 Q319 762 403 762 Q418 762 418 731 L417 716 Q534 762 653 762 Q699 762 738 718 Q775 672 775 627 Q775 553 676 434 Q834 365 834 229 ZM714 240 Q714 311 615 345 Q566 361 461 374 Q449 374 449 386 Q449 394 544 490 Q638 589 638 628 Q638 656 592 656 Q508 656 388 596 Q371 548 353 362 Q338 199 338 119 Q338 86 340 81 Q445 81 562 117 Q714 162 714 240 Z" /><glyph glyph-name="uniFF23" unicode="&#xff23;" d="M845 174 Q845 88 667 31 Q532 -13 419 -13 Q305 -13 232 54 Q155 122 155 236 Q155 382 244 510 Q327 630 461 702 Q572 762 650 762 Q732 762 732 746 Q732 731 693 710 Q324 511 324 234 Q324 112 461 112 Q629 112 775 179 Q834 206 832 206 Q845 206 845 174 Z" /><glyph glyph-name="uniFF24" unicode="&#xff24;" d="M849 441 Q849 211 624 88 Q443 -13 194 -13 Q151 -13 151 86 Q151 247 207 427 Q272 639 372 729 Q408 762 424 762 Q440 762 440 745 L438 716 Q490 735 568 735 Q686 735 768 650 Q849 563 849 441 ZM739 495 Q739 570 686 612 Q637 650 560 650 Q475 650 399 603 Q355 453 341 359 Q324 254 324 103 Q475 103 606 224 Q739 345 739 495 Z" /><glyph glyph-name="uniFF25" unicode="&#xff25;" d="M860 209 Q860 150 816 117 Q790 97 718 70 Q632 37 524 13 Q405 -13 329 -13 Q241 -13 197 12 Q141 44 141 127 Q141 274 272 593 Q250 596 240 599 Q208 608 208 625 Q208 657 257 693 Q299 723 313 723 L330 710 Q345 698 366 698 Q543 698 781 758 L803 762 Q813 762 813 749 Q813 735 802 708 Q790 681 780 671 Q740 631 409 588 Q374 502 352 404 Q376 398 385 398 Q475 398 683 456 Q699 460 708 463 Q725 463 725 452 Q725 416 703 385 Q673 344 526 315 Q414 292 327 292 Q306 205 306 146 Q306 97 362 97 Q529 97 819 212 Q849 224 847 224 Q860 224 860 209 Z" /><glyph glyph-name="uniFF26" unicode="&#xff26;" d="M827 439 Q827 419 805 373 Q775 315 605 291 Q510 277 378 277 L348 25 Q345 0 305 0 L219 0 Q185 0 180 5 Q173 9 173 33 Q173 65 274 594 Q240 596 233 598 Q192 605 192 621 Q192 647 232 686 Q272 726 297 726 Q332 698 350 698 Q438 698 567 718 Q651 729 762 756 L788 762 Q801 762 801 750 Q801 752 780 692 Q759 632 415 587 Q401 491 390 402 Q505 402 778 444 Q817 450 813 450 Q827 450 827 439 Z" /><glyph glyph-name="uniFF27" unicode="&#xff27;" d="M893 460 Q893 443 878 416 Q863 390 849 380 Q830 368 797 361 Q779 310 767 198 Q756 106 756 30 Q756 0 717 0 L615 0 Q594 0 594 20 Q594 57 610 122 Q500 48 326 48 Q229 48 169 105 Q108 162 108 257 Q108 410 220 534 Q315 639 472 708 Q595 762 676 762 Q736 762 736 741 Q736 716 700 698 Q519 605 425 526 Q269 394 269 257 Q269 158 369 158 Q457 158 537 210 Q617 261 657 341 Q629 341 572 338 Q515 335 506 335 Q426 335 426 372 Q426 399 456 432 Q486 464 514 464 Q516 464 526 452 Q536 441 547 439 Q563 435 578 435 Q653 435 819 467 Q867 476 876 476 Q893 476 893 460 Z" /><glyph glyph-name="uniFF28" unicode="&#xff28;" d="M854 767 Q854 741 848 652 Q833 429 833 392 Q833 309 838 208 Q844 85 844 24 Q844 0 808 0 L690 0 Q670 0 670 22 Q670 63 672 142 Q675 261 675 320 Q514 289 339 289 Q326 226 320 25 Q319 0 291 0 L170 0 Q146 0 146 21 Q146 387 264 611 Q339 755 406 755 Q417 755 417 740 L406 695 Q392 638 385 603 Q364 497 352 407 Q411 402 508 402 Q592 402 682 417 Q682 507 723 626 Q773 776 843 776 Q854 776 854 767 Z" /><glyph glyph-name="uniFF29" unicode="&#xff29;" d="M593 747 Q591 736 591 711 Q586 626 586 413 Q586 306 588 222 L590 30 Q590 0 547 0 L445 0 Q406 0 406 28 Q406 217 429 394 Q459 640 520 723 Q549 762 571 762 Q593 762 593 747 Z" /><glyph glyph-name="uniFF2A" unicode="&#xff2a;" d="M787 744 Q787 749 783 717 Q778 691 776 673 Q758 517 758 198 Q758 71 680 23 Q619 -13 481 -13 Q325 -13 248 70 Q214 105 214 133 Q214 155 226 171 Q239 187 259 187 Q286 187 319 163 Q375 122 392 114 Q427 95 478 95 Q584 95 591 172 L609 379 Q622 505 637 585 Q646 640 682 695 Q725 762 771 762 Q787 762 787 744 Z" /><glyph glyph-name="uniFF2B" unicode="&#xff2b;" d="M867 95 Q867 85 862 80 Q816 32 775 -3 Q762 -13 751 -13 Q740 -13 729 -5 Q507 161 335 319 Q300 156 300 16 Q300 0 276 0 L160 0 Q134 0 134 18 Q134 179 188 380 Q248 598 335 706 Q380 762 412 762 Q425 762 425 753 Q425 748 418 720 Q394 637 355 442 L374 426 Q428 493 520 576 Q624 668 687 692 Q710 701 737 701 Q760 701 760 676 Q760 672 713 620 Q605 500 498 349 Q612 271 859 111 Q867 105 867 95 Z" /><glyph glyph-name="uniFF2C" unicode="&#xff2c;" d="M843 209 Q843 152 830 131 Q806 94 724 62 Q535 -13 324 -13 Q249 -13 205 22 Q157 61 157 135 Q157 253 227 432 Q295 605 377 708 Q419 762 454 762 Q469 762 469 744 Q469 730 460 704 Q323 309 323 167 Q323 106 437 106 Q589 106 751 184 Q802 208 828 221 Q843 221 843 209 Z" /><glyph glyph-name="uniFF2D" unicode="&#xff2d;" d="M927 22 Q927 0 878 0 L795 0 Q749 0 742 83 Q719 319 719 551 Q697 536 557 240 Q529 180 469 180 Q447 180 433 222 L351 519 Q315 431 286 278 L241 32 Q235 0 197 0 L113 0 Q73 0 73 28 Q73 94 107 215 Q203 566 337 735 Q358 762 390 762 Q420 762 440 707 L530 443 Q619 608 732 731 Q760 762 790 762 Q848 762 848 589 Q848 515 871 357 Q891 206 912 112 Q927 43 927 22 Z" /><glyph glyph-name="uniFF2E" unicode="&#xff2e;" d="M923 741 Q923 737 914 704 Q903 665 903 660 Q841 328 820 143 Q811 68 792 36 Q770 2 720 2 Q661 2 630 36 Q607 61 581 124 L392 572 Q359 475 310 283 Q283 180 255 39 Q252 23 238 12 Q225 0 209 0 L104 0 Q77 0 77 39 Q77 58 104 161 Q184 471 327 686 Q339 705 363 724 Q389 745 409 745 Q442 745 475 689 Q510 628 579 487 L675 282 Q711 453 771 585 Q851 762 909 762 Q923 762 923 741 Z" /><glyph glyph-name="uniFF2F" unicode="&#xff2f;" d="M883 437 Q883 253 724 116 Q573 -14 390 -14 Q276 -14 199 57 Q117 130 117 243 Q117 343 195 469 Q270 588 380 673 Q498 762 601 762 Q613 762 629 740 Q757 728 822 645 Q883 566 883 437 ZM738 512 Q738 581 701 626 Q660 672 592 672 L570 671 Q498 665 393 502 Q288 339 288 247 Q288 184 320 146 Q353 103 413 103 Q551 103 649 240 Q738 367 738 512 Z" /><glyph glyph-name="uniFF30" unicode="&#xff30;" d="M824 548 Q824 428 648 326 Q532 259 369 210 Q354 123 354 32 Q354 0 312 0 L216 0 Q199 0 188 12 Q177 23 177 42 Q177 118 209 300 Q236 458 266 595 Q243 582 220 582 Q193 582 193 604 Q193 634 224 678 Q254 722 282 722 Q286 722 296 716 Q306 709 311 709 Q338 709 422 736 Q508 762 556 762 Q671 762 742 716 Q824 660 824 548 ZM674 578 Q674 620 635 642 Q603 659 558 659 Q521 659 419 626 Q395 617 383 488 Q375 411 375 333 Q446 333 556 416 Q674 505 674 578 Z" /><glyph glyph-name="uniFF31" unicode="&#xff31;" d="M892 460 Q892 316 784 169 L840 126 Q872 100 872 96 Q872 77 829 32 Q786 -13 766 -13 Q754 -13 733 8 Q706 35 667 80 Q538 0 385 0 Q269 0 192 65 Q109 133 109 247 Q109 360 182 482 Q251 601 361 679 Q476 762 589 762 Q606 762 630 741 Q751 721 819 653 Q892 577 892 460 ZM745 478 Q745 562 701 614 Q653 668 571 668 Q540 668 494 631 Q413 565 347 451 Q274 326 274 230 Q274 110 398 110 Q494 110 586 172 Q562 209 532 263 Q522 280 522 302 Q522 321 537 321 Q578 321 665 264 Q703 302 725 363 Q745 421 745 478 Z" /><glyph glyph-name="uniFF32" unicode="&#xff32;" d="M901 90 Q901 74 856 36 Q817 3 793 -9 Q781 -13 776 -13 Q750 -13 637 87 L450 251 Q388 228 307 210 Q299 158 275 26 Q269 0 216 0 L127 0 Q99 0 99 24 Q99 59 122 152 Q180 395 259 557 Q240 551 237 551 Q210 551 210 573 Q210 605 250 661 Q289 718 316 718 Q320 718 331 710 Q339 702 356 702 Q392 702 483 732 Q573 762 621 762 Q705 762 769 724 Q842 677 842 597 Q842 518 748 427 Q676 357 585 308 Q700 221 886 107 Q901 98 901 90 ZM718 622 Q718 639 696 652 Q678 661 656 661 Q614 661 530 633 Q451 607 411 581 Q380 487 337 330 Q437 359 564 441 Q718 541 718 622 Z" /><glyph glyph-name="uniFF33" unicode="&#xff33;" d="M822 286 Q822 204 731 130 Q653 67 535 25 Q426 -14 348 -14 Q299 -14 251 -4 Q178 11 178 47 Q178 72 210 107 Q240 143 263 143 L295 132 Q324 120 348 120 Q437 120 537 167 Q658 221 658 294 Q658 333 419 333 Q357 333 315 369 Q272 405 272 465 Q272 572 414 659 Q515 718 651 754 Q683 762 725 762 Q770 762 770 733 Q770 714 691 682 Q630 657 539 587 Q431 505 431 460 Q431 430 526 430 Q554 430 576 431 L626 432 Q689 432 752 392 Q822 346 822 286 Z" /><glyph glyph-name="uniFF34" unicode="&#xff34;" d="M864 754 Q864 742 837 683 Q807 620 580 601 Q543 225 543 35 Q543 10 529 4 Q521 0 489 0 L398 0 Q370 0 370 26 Q370 303 436 597 L309 598 Q136 598 136 637 Q136 664 168 705 Q200 746 226 746 Q234 746 252 734 Q267 721 275 719 Q302 711 374 711 Q625 711 813 758 Q849 767 855 767 Q864 767 864 754 Z" /><glyph glyph-name="uniFF35" unicode="&#xff35;" d="M888 708 Q888 657 864 532 Q841 414 815 326 Q755 133 636 56 Q528 -13 326 -13 Q112 -13 112 177 Q112 300 170 432 Q222 549 310 654 Q374 730 406 749 Q429 762 451 762 Q469 762 469 746 Q469 691 420 591 Q346 445 323 386 Q277 269 277 165 Q277 138 313 118 Q342 102 373 102 Q456 102 531 152 Q603 199 647 276 Q671 317 708 449 Q750 606 761 639 Q772 670 804 702 Q841 737 870 737 Q888 737 888 708 Z" /><glyph glyph-name="uniFF36" unicode="&#xff36;" d="M855 737 Q855 716 824 648 Q792 582 730 448 Q699 381 651 257 Q606 137 584 85 Q541 -14 426 -14 Q276 -14 201 181 Q145 322 145 506 Q145 581 159 650 Q180 761 224 761 Q245 761 266 657 Q285 554 316 398 Q349 243 398 150 Q406 135 420 135 Q442 135 476 210 L566 426 Q622 561 673 633 Q762 761 838 761 Q855 761 855 737 Z" /><glyph glyph-name="uniFF37" unicode="&#xff37;" d="M905 740 Q905 730 886 597 Q871 490 810 99 Q801 52 776 22 Q746 -13 702 -13 Q629 -13 583 85 Q541 172 473 425 Q461 425 396 261 L316 53 Q289 -13 237 -13 Q157 -13 120 123 Q95 211 95 319 Q95 426 109 523 Q127 650 160 719 Q182 762 206 762 Q225 762 225 722 Q225 619 233 480 Q242 284 256 253 L309 370 Q344 441 375 494 Q451 619 490 661 Q506 677 518 677 Q535 677 546 636 Q575 512 603 407 Q638 266 669 181 L741 474 Q784 646 818 708 Q848 762 877 762 Q905 762 905 740 Z" /><glyph glyph-name="uniFF38" unicode="&#xff38;" d="M864 77 Q864 71 809 28 Q755 -13 743 -13 Q726 -13 714 4 Q604 143 472 292 Q421 217 289 4 Q277 -13 265 -13 Q251 -13 161 50 Q139 65 139 74 Q139 94 241 241 Q300 327 363 411 L220 565 Q136 655 136 678 Q136 697 164 697 Q180 697 267 651 Q356 602 453 524 Q570 658 712 751 Q729 762 744 762 Q771 762 771 739 Q771 722 745 688 Q650 566 560 432 Q696 314 855 97 Q864 85 864 77 Z" /><glyph glyph-name="uniFF39" unicode="&#xff39;" d="M883 736 Q883 713 839 674 L575 435 Q563 219 563 21 Q563 0 531 0 L413 0 Q391 0 391 29 Q391 52 423 416 L200 617 Q117 691 117 718 Q117 749 212 749 Q237 749 307 700 Q354 663 407 624 Q489 563 499 563 Q572 617 701 709 Q786 762 829 762 Q883 762 883 736 Z" /><glyph glyph-name="uniFF3A" unicode="&#xff3a;" d="M884 159 Q884 91 839 58 Q804 33 729 23 Q577 0 322 0 Q117 0 117 117 Q117 155 259 324 Q417 506 519 626 Q408 610 301 610 Q169 610 169 647 Q169 676 212 712 Q250 744 264 744 Q274 744 286 732 Q297 718 305 718 Q313 716 342 716 Q412 716 536 739 Q668 762 728 762 Q741 762 754 751 Q766 739 766 726 Q766 706 696 627 Q469 371 341 178 Q320 145 320 128 Q320 106 360 106 Q522 106 704 128 Q736 131 786 164 Q837 195 843 195 Q858 195 872 184 Q884 174 884 159 Z" /><glyph glyph-name="uniFF3B" unicode="&#xff3b;" d="M892 -120 L608 -120 L608 840 L892 840 L892 720 L730 720 L730 0 L892 0 L892 -120 Z" /><glyph glyph-name="uniFF3C" unicode="&#xff3c;" d="M733 -56 L635 -101 L267 777 L364 821 L733 -56 Z" /><glyph glyph-name="uniFF3D" unicode="&#xff3d;" d="M392 -120 L108 -120 L108 0 L270 0 L270 720 L108 720 L108 840 L392 840 L392 -120 Z" /><glyph glyph-name="uniFF3E" unicode="&#xff3e;" d="M672 693 L634 655 L500 730 L366 655 L328 693 L433 805 L567 805 L672 693 Z" /><glyph glyph-name="uniFF3F" unicode="&#xff3f;" d="M1000 -140 L0 -140 L0 -24 L1000 -24 L1000 -140 Z" /><glyph glyph-name="uniFF40" unicode="&#xff40;" d="M850 558 L812 537 L679 720 Q650 758 650 787 Q650 809 666 824 Q682 840 703 840 Q748 840 769 783 L850 558 Z" /><glyph glyph-name="uniFF41" unicode="&#xff41;" d="M822 82 Q822 63 807 33 Q796 10 748 -2 Q707 -13 676 -13 Q631 -13 609 -2 Q581 13 581 58 L581 95 Q481 -13 352 -13 Q178 -13 178 159 Q178 236 250 329 Q317 414 416 474 Q515 534 596 534 Q635 534 666 512 Q697 489 697 452 Q697 440 685 428 Q674 417 661 417 Q654 417 646 424 Q634 430 630 430 Q603 430 546 408 Q466 374 399 304 Q321 220 321 145 Q321 87 374 87 Q452 87 542 193 Q585 244 658 368 Q666 384 693 408 Q717 429 735 429 Q762 429 762 405 Q762 399 750 292 Q738 186 738 132 Q738 76 753 76 Q774 76 794 84 Q809 88 816 91 Q822 91 822 82 Z" /><glyph glyph-name="uniFF42" unicode="&#xff42;" d="M802 316 Q802 231 711 149 Q633 80 513 32 Q402 -13 325 -13 Q268 -13 242 -5 Q199 8 199 54 Q199 127 235 272 Q267 404 303 488 Q366 635 457 734 Q482 762 516 762 Q536 762 536 742 Q536 738 522 701 Q503 654 495 627 Q459 517 440 435 Q556 467 640 467 Q702 467 752 423 Q802 378 802 316 ZM657 308 Q657 357 594 357 Q550 357 496 336 Q442 315 406 286 Q392 231 377 86 Q433 86 541 163 Q657 246 657 308 Z" /><glyph glyph-name="uniFF43" unicode="&#xff43;" d="M781 179 Q781 84 666 30 Q576 -13 468 -13 Q366 -13 300 24 Q219 69 219 166 Q219 289 308 385 Q388 472 513 514 Q575 534 640 534 Q658 534 674 523 Q689 511 689 493 Q689 487 593 439 Q505 394 447 339 Q367 265 367 195 Q367 92 474 92 Q535 92 606 124 Q662 148 715 183 Q765 215 767 215 Q781 215 781 179 Z" /><glyph glyph-name="uniFF44" unicode="&#xff44;" d="M826 92 Q826 96 816 39 Q811 18 742 1 Q683 -13 636 -13 Q599 -13 576 16 Q553 43 553 84 Q466 -13 355 -13 Q283 -13 232 26 Q174 68 174 140 Q174 271 272 397 Q376 532 502 532 Q556 532 599 500 Q617 579 664 658 Q724 762 765 762 Q783 762 783 745 Q783 725 760 633 Q730 517 718 356 Q710 265 710 115 Q710 100 720 90 Q728 79 744 79 Q759 79 789 88 Q822 98 820 98 Q826 98 826 92 ZM584 406 Q584 423 559 435 Q538 444 518 444 Q445 444 379 343 Q316 250 316 174 Q316 99 381 99 Q429 99 483 141 Q537 183 561 234 Q574 355 584 406 Z" /><glyph glyph-name="uniFF45" unicode="&#xff45;" d="M785 95 Q780 57 658 20 Q550 -13 498 -13 Q206 -13 206 256 Q206 365 308 452 Q405 534 517 534 Q618 534 692 466 Q765 396 765 299 Q765 274 760 264 Q754 254 734 245 Q676 220 557 208 Q467 198 373 198 Q377 139 414 116 Q443 96 507 96 Q562 96 631 119 Q677 134 737 161 L786 184 Q794 184 794 170 L785 95 ZM650 338 Q650 381 597 410 Q552 434 505 434 Q453 434 411 390 Q368 347 368 296 Q388 289 441 289 Q481 289 544 295 Q624 301 639 313 Q650 321 650 338 Z" /><glyph glyph-name="uniFF46" unicode="&#xff46;" d="M787 534 Q787 513 763 468 Q748 440 697 431 Q657 425 579 415 Q569 335 569 213 L567 25 Q567 0 531 0 L415 0 Q394 0 394 18 Q394 170 415 410 L361 409 Q214 408 214 465 Q214 478 248 511 Q283 543 298 543 L326 526 Q351 510 394 510 L429 510 Q453 762 652 762 Q682 762 722 752 Q771 737 771 710 Q771 688 742 683 Q735 681 698 681 Q640 681 611 628 Q587 585 587 521 L779 539 Q787 539 787 534 Z" /><glyph glyph-name="uniFF47" unicode="&#xff47;" d="M757 339 Q757 301 728 2 Q722 -60 660 -95 Q609 -122 540 -122 Q490 -122 442 -102 Q382 -76 382 -34 Q382 -3 415 -3 Q437 -3 491 -21 Q524 -31 541 -31 Q585 -31 603 12 Q613 39 626 155 Q548 77 409 77 Q349 77 300 111 Q244 149 244 206 Q244 299 327 383 Q397 453 495 496 Q583 534 666 534 Q696 534 724 512 Q750 488 750 458 Q750 447 742 431 Q733 416 723 416 Q711 416 687 428 Q660 439 649 439 Q597 439 499 364 Q393 283 393 224 Q393 194 420 179 Q442 166 475 166 Q527 166 593 217 Q650 262 681 314 Q705 356 737 356 Q757 356 757 339 Z" /><glyph glyph-name="uniFF48" unicode="&#xff48;" d="M796 22 Q796 0 743 0 L646 0 Q618 0 618 67 Q618 95 611 182 Q601 269 594 298 Q585 334 576 349 Q560 371 530 371 Q499 371 462 345 Q428 321 409 293 Q392 185 375 50 Q371 14 371 20 Q365 2 354 2 Q343 0 222 0 Q205 0 205 22 Q205 45 213 100 Q237 288 317 507 Q410 762 483 762 Q497 762 497 746 Q497 724 480 647 Q457 541 440 447 Q522 487 585 487 Q674 487 725 389 Q753 333 775 211 Q796 87 796 22 Z" /><glyph glyph-name="uniFF49" unicode="&#xff49;" d="M607 715 Q607 686 588 662 Q571 639 541 639 Q490 639 490 684 Q490 712 516 737 Q541 762 569 762 Q607 762 607 715 ZM593 581 Q593 572 588 510 Q581 444 579 397 Q572 264 572 39 Q572 0 540 0 L425 0 Q393 0 393 27 Q393 127 427 291 Q463 471 508 549 Q536 598 571 598 Q593 598 593 581 Z" /><glyph glyph-name="uniFF4A" unicode="&#xff4a;" d="M691 715 Q691 685 675 663 Q657 639 628 639 Q579 639 579 685 Q579 715 602 738 Q626 762 655 762 Q691 762 691 715 ZM683 573 Q683 551 675 500 Q667 457 667 427 L672 79 Q672 -122 483 -122 Q409 -122 363 -93 Q309 -57 309 9 Q309 24 321 34 Q334 44 348 44 Q362 44 390 18 Q414 -7 450 -7 Q500 -7 515 48 Q522 74 523 143 L526 341 Q526 417 539 464 Q554 522 602 570 Q630 598 651 598 Q683 598 683 573 Z" /><glyph glyph-name="uniFF4B" unicode="&#xff4b;" d="M778 84 Q778 63 699 -5 Q689 -13 679 -13 Q671 -13 660 -6 L398 179 Q397 177 385 31 Q382 8 351 2 Q343 0 301 0 Q256 0 251 2 Q222 8 222 34 Q222 189 255 355 Q291 542 355 663 Q406 762 454 762 Q467 762 467 736 Q467 713 453 641 Q417 470 408 365 Q619 534 692 534 Q745 534 745 513 Q745 505 692 457 Q547 324 505 264 L766 105 Q778 98 778 84 Z" /><glyph glyph-name="uniFF4C" unicode="&#xff4c;" d="M588 604 Q586 529 586 436 L588 28 Q588 7 567 2 Q561 0 528 0 L450 0 Q409 0 409 28 L409 83 Q409 448 479 640 Q523 762 577 762 Q591 762 591 724 L588 604 Z" /><glyph glyph-name="uniFF4D" unicode="&#xff4d;" d="M918 30 Q918 0 859 0 L798 0 Q760 0 749 8 Q732 17 732 53 Q732 130 733 192 L734 330 Q734 381 722 402 Q704 431 656 431 Q572 431 572 246 Q572 204 578 126 L583 36 Q583 7 560 1 Q556 0 510 0 L461 0 Q427 3 427 24 Q427 86 434 188 Q442 305 442 320 Q442 398 402 398 Q363 398 326 364 Q288 329 285 290 Q280 275 276 178 Q271 91 271 33 Q271 7 252 4 Q233 0 160 0 Q113 0 98 3 Q82 6 82 26 Q82 113 118 237 Q150 348 197 433 Q249 524 294 524 Q307 524 307 499 L307 471 Q373 534 471 534 Q537 534 572 482 Q638 534 712 534 Q826 534 877 378 Q896 315 908 208 Q918 98 918 30 Z" /><glyph glyph-name="uniFF4E" unicode="&#xff4e;" d="M806 37 Q806 10 778 4 Q766 0 729 0 L660 0 Q623 6 623 46 Q623 62 624 79 L625 113 Q625 233 617 292 Q597 423 534 423 Q486 423 446 389 Q406 354 399 308 Q370 134 370 30 Q370 3 318 0 L249 0 Q195 0 195 28 Q195 140 236 272 Q281 421 350 494 Q395 544 429 544 Q448 544 448 495 Q490 534 578 534 Q697 534 760 340 Q806 194 806 37 Z" /><glyph glyph-name="uniFF4F" unicode="&#xff4f;" d="M790 327 Q790 181 687 84 Q584 -13 436 -13 Q210 -13 210 192 Q210 303 330 429 Q450 554 563 554 Q568 554 575 547 Q580 539 582 539 Q696 504 733 475 Q790 429 790 327 ZM664 358 Q664 466 554 466 Q489 445 420 346 Q351 244 351 172 Q351 135 374 112 Q398 87 433 87 Q524 87 596 178 Q664 264 664 358 Z" /><glyph glyph-name="uniFF50" unicode="&#xff50;" d="M766 380 Q766 273 643 184 Q530 101 416 101 Q407 53 407 -78 Q407 -99 390 -105 Q378 -109 355 -109 L270 -109 Q234 -109 234 -80 Q234 -3 261 138 Q267 174 312 382 Q286 385 283 387 Q269 391 269 409 Q269 434 298 472 Q325 510 349 510 Q353 510 371 502 Q383 493 392 496 L499 522 Q555 534 608 534 Q669 534 718 488 Q766 442 766 380 ZM635 386 Q635 435 561 435 Q527 435 449 409 Q431 349 422 207 Q472 212 551 274 Q635 340 635 386 Z" /><glyph glyph-name="uniFF51" unicode="&#xff51;" d="M764 465 Q764 452 752 365 Q735 249 733 215 Q720 84 720 -79 Q720 -108 692 -108 L576 -108 Q555 -108 555 -88 Q555 -10 581 146 Q519 109 484 97 Q440 81 378 81 Q321 81 279 114 Q237 147 237 204 Q237 325 381 433 Q515 534 638 534 Q699 534 736 485 Q745 494 750 494 Q764 494 764 465 ZM672 429 Q661 440 630 440 Q552 440 462 377 Q364 310 364 237 Q364 218 377 206 Q389 193 407 193 Q532 193 609 282 Q636 363 672 429 Z" /><glyph glyph-name="uniFF52" unicode="&#xff52;" d="M734 423 Q734 383 701 383 Q689 383 666 392 Q639 402 631 402 Q554 402 456 253 Q444 190 444 130 Q444 94 445 72 L446 34 Q446 5 417 0 L300 0 Q267 6 267 40 Q267 153 291 274 Q321 425 375 491 Q412 534 437 534 Q449 534 449 520 L449 431 Q504 474 541 491 Q589 510 648 510 Q682 510 708 484 Q734 456 734 423 Z" /><glyph glyph-name="uniFF53" unicode="&#xff53;" d="M742 183 Q742 68 598 20 Q502 -13 362 -13 Q258 -13 258 37 Q258 61 284 90 Q310 118 334 118 Q337 118 369 110 Q398 101 411 101 Q459 101 528 124 Q612 151 612 186 Q612 226 487 226 L446 226 Q318 226 318 329 Q318 405 442 474 Q553 534 640 534 Q692 534 692 503 Q692 488 662 476 Q619 457 554 415 Q473 361 473 334 Q473 317 520 314 Q628 305 664 292 Q742 262 742 183 Z" /><glyph glyph-name="uniFF54" unicode="&#xff54;" d="M799 530 Q799 516 772 471 Q757 446 690 429 Q652 419 542 403 Q522 357 508 270 Q496 192 496 134 Q496 115 512 103 Q527 91 547 91 Q608 91 698 121 Q788 151 780 151 Q793 151 793 141 L779 75 Q771 42 669 13 Q580 -13 533 -13 Q453 -13 395 22 Q325 64 325 139 Q325 259 370 397 Q201 397 201 442 Q201 469 234 500 Q266 532 294 532 Q297 532 306 521 Q313 510 323 508 Q338 503 365 503 Q396 503 404 504 Q535 741 598 741 Q601 741 608 734 Q614 728 614 723 Q614 710 600 659 Q564 530 561 509 Q593 509 671 522 Q714 529 750 538 L784 547 Q799 547 799 530 Z" /><glyph glyph-name="uniFF55" unicode="&#xff55;" d="M830 31 Q830 11 777 0 Q735 -7 709 -7 Q674 -7 662 50 Q651 90 651 154 Q582 64 534 31 Q469 -13 372 -13 Q170 -13 170 187 Q170 264 223 389 Q283 534 345 534 Q354 534 364 524 Q372 514 372 504 Q372 495 360 448 L340 369 Q317 271 317 201 Q317 92 382 92 Q475 92 555 196 Q622 285 643 388 L655 452 Q663 490 676 513 Q687 534 709 534 Q739 534 754 428 Q767 321 772 298 Q783 224 796 171 Q796 169 817 91 Q830 39 830 31 Z" /><glyph glyph-name="uniFF56" unicode="&#xff56;" d="M766 517 Q766 512 705 373 L603 132 Q568 50 551 31 Q516 -13 451 -13 Q351 -13 294 95 Q234 208 234 349 Q234 396 241 441 Q255 534 289 534 Q315 534 336 447 Q348 383 363 325 Q379 255 401 202 Q434 118 451 118 Q456 118 501 224 Q563 371 603 429 Q675 534 749 534 Q766 534 766 517 Z" /><glyph glyph-name="uniFF57" unicode="&#xff57;" d="M821 510 Q821 453 785 249 Q780 215 772 147 Q760 74 741 38 Q713 -13 662 -13 Q584 -13 553 85 Q532 155 491 297 Q441 148 393 53 Q361 -9 313 -9 Q235 -9 202 90 Q180 155 180 253 Q180 312 203 410 Q232 534 266 534 Q282 534 288 475 Q291 427 299 333 Q305 254 318 192 Q374 327 429 419 Q462 473 507 473 Q534 473 550 451 Q559 438 571 403 Q593 325 640 188 Q673 333 697 397 Q748 534 808 534 Q821 534 821 510 Z" /><glyph glyph-name="uniFF58" unicode="&#xff58;" d="M775 90 Q775 69 688 4 Q663 -13 648 -13 Q639 -13 609 27 Q543 109 481 190 L351 -7 Q347 -13 333 -13 Q317 -13 279 14 Q246 38 231 56 Q225 62 225 77 Q225 89 277 160 Q299 191 385 294 Q351 339 275 422 Q229 471 229 492 Q229 500 237 507 Q246 514 253 514 Q296 514 469 383 Q509 427 572 476 Q651 534 692 534 Q712 534 712 511 Q712 508 699 488 L609 369 Q586 337 563 309 Q634 246 699 180 Q775 101 775 90 Z" /><glyph glyph-name="uniFF59" unicode="&#xff59;" d="M795 503 Q795 507 739 392 Q575 55 472 -63 Q421 -122 323 -122 Q281 -122 246 -103 Q205 -80 205 -39 Q205 -25 215 -15 Q223 -4 238 -4 Q249 -4 276 -15 Q307 -26 316 -26 Q369 -26 405 18 Q446 69 468 141 Q317 345 257 417 Q227 453 227 475 Q227 489 247 499 Q265 507 280 507 Q316 507 338 491 Q368 468 531 285 Q579 381 615 430 Q690 534 767 534 Q795 534 795 503 Z" /><glyph glyph-name="uniFF5A" unicode="&#xff5a;" d="M796 93 Q796 68 768 48 Q701 0 487 0 L305 0 Q205 0 205 52 Q205 83 278 175 Q342 257 508 426 Q423 419 372 419 Q258 419 258 449 Q258 470 286 502 Q314 533 334 533 L348 524 Q362 513 377 513 Q393 511 430 511 Q483 511 568 522 L659 534 Q711 534 711 503 Q711 479 643 405 Q583 339 459 186 Q394 106 394 95 Q394 84 501 84 Q587 84 678 108 Q772 131 767 131 Q796 131 796 93 Z" /><glyph glyph-name="uniFF5B" unicode="&#xff5b;" d="M863 -120 Q775 -106 738 -63 Q701 -19 701 66 L701 289 Q701 326 637 326 L637 394 Q701 394 701 442 L701 654 Q701 739 738 783 Q775 826 863 840 L863 765 Q820 753 820 712 L820 446 Q820 396 792 360 Q820 326 820 274 L820 7 Q820 -34 863 -46 L863 -120 Z" /><glyph glyph-name="uniFF5C" unicode="&#xff5c;" d="M558 -140 L442 -140 L442 860 L558 860 L558 -140 Z" /><glyph glyph-name="uniFF5D" unicode="&#xff5d;" d="M363 326 Q299 326 299 289 L299 66 Q299 -17 262 -63 Q223 -107 137 -120 L137 -46 Q180 -34 180 7 L180 274 Q180 328 208 360 Q180 394 180 446 L180 712 Q180 753 137 765 L137 840 Q223 827 262 783 Q299 737 299 654 L299 442 Q299 394 363 394 L363 326 Z" /><glyph glyph-name="uni3041" unicode="&#x3041;" d="M847 159 Q847 119 830 66 Q814 16 789 -18 Q778 -32 767 -32 Q755 -32 674 19 Q661 26 661 33 Q661 31 698 106 Q735 183 735 225 Q735 278 681 306 Q635 329 579 329 Q540 329 498 316 L498 141 Q522 150 596 210 Q666 266 675 266 Q692 266 692 246 Q692 223 653 169 Q529 -1 337 -1 Q256 -1 208 38 Q155 79 155 158 Q155 239 234 296 Q282 330 387 366 L394 459 Q173 459 173 498 Q173 520 202 550 Q233 581 252 581 Q258 581 267 572 Q274 563 278 559 Q290 548 342 548 Q386 548 401 550 Q420 622 451 666 Q472 696 492 696 Q512 696 512 670 Q512 650 509 614 Q506 575 506 558 Q544 558 617 569 Q654 574 712 586 Q757 594 763 594 Q774 594 774 581 Q774 572 756 536 Q741 505 666 490 Q603 476 502 465 L499 389 Q544 397 598 397 Q708 397 778 333 Q847 269 847 159 ZM386 283 Q337 271 304 239 Q265 202 265 156 Q265 129 302 114 Q331 101 363 101 Q374 101 381 104 Q381 158 386 283 Z" /><glyph glyph-name="uni3042" unicode="&#x3042;" d="M909 154 Q909 108 890 45 Q869 -16 841 -54 Q827 -71 815 -71 Q793 -71 706 -11 Q691 0 691 6 Q691 3 734 92 Q778 183 778 231 Q778 292 714 327 Q662 354 594 354 Q544 354 499 339 L499 133 Q517 141 562 173 L636 232 Q696 280 707 280 Q727 280 727 256 Q727 229 681 165 Q534 -34 309 -34 Q215 -34 158 11 Q95 61 95 152 Q95 248 189 315 Q245 355 369 398 Q369 416 376 507 Q219 507 172 518 Q117 530 117 553 Q117 583 154 616 Q193 650 209 650 Q216 650 226 640 Q235 629 240 624 Q254 611 315 611 Q352 611 385 614 Q408 698 444 750 Q468 785 492 785 Q515 785 515 755 Q515 732 512 688 Q508 648 508 623 Q548 623 639 636 Q660 638 757 656 Q804 665 811 665 Q824 665 824 650 Q824 643 802 597 Q784 561 697 543 Q600 523 503 514 L500 424 Q558 434 616 434 Q745 434 827 360 Q909 281 909 154 ZM367 300 Q307 284 270 247 Q225 204 225 150 Q225 118 269 100 Q300 86 340 86 Q354 86 361 89 L367 300 Z" /><glyph glyph-name="uni3043" unicode="&#x3043;" d="M824 166 Q824 137 717 137 Q698 137 692 161 Q653 315 609 461 Q582 550 582 554 Q582 567 597 567 Q658 567 745 394 Q824 233 824 166 ZM486 197 Q486 154 435 88 Q373 5 292 5 Q180 5 180 292 Q180 532 245 644 Q262 673 280 673 Q296 673 296 645 L290 582 Q281 483 281 438 Q281 343 288 270 Q300 135 327 135 Q355 135 404 209 Q452 283 458 283 Q462 283 468 260 Q468 253 479 229 Q486 205 486 197 Z" /><glyph glyph-name="uni3044" unicode="&#x3044;" d="M899 153 Q899 119 773 119 Q758 119 753 125 Q747 131 744 147 Q699 324 646 500 Q614 602 614 609 Q614 625 632 625 Q691 625 772 485 Q824 393 863 288 Q899 189 899 153 ZM501 189 Q501 139 441 61 Q366 -37 273 -37 Q186 -37 156 107 Q141 181 141 320 Q141 454 152 524 Q170 637 218 715 Q240 749 259 749 Q278 749 278 716 Q278 722 271 638 Q260 534 260 473 Q260 356 268 275 Q282 116 314 116 Q342 116 388 179 L446 268 Q461 291 469 291 Q475 291 481 264 Q482 256 493 227 Q501 201 501 189 Z" /><glyph glyph-name="uni3045" unicode="&#x3045;" d="M715 606 Q715 598 685 557 Q670 536 612 536 Q518 536 404 571 Q314 598 314 632 Q314 649 351 670 Q384 688 405 688 Q410 688 419 677 Q422 671 430 661 Q447 642 545 627 Q626 615 673 615 Q681 615 689 616 L705 618 Q715 618 715 606 ZM804 319 Q804 279 749 157 Q694 38 663 4 Q652 -7 640 -7 Q624 -7 584 12 Q542 33 542 49 Q542 57 613 168 Q684 280 684 310 Q684 327 639 327 Q582 327 510 312 Q509 311 383 281 Q291 258 243 258 Q195 258 195 284 Q195 291 208 317 Q239 378 266 378 Q270 378 282 368 Q291 359 297 359 Q306 359 366 371 Q405 378 526 403 Q622 420 688 420 Q733 420 770 392 Q804 364 804 319 Z" /><glyph glyph-name="uni3046" unicode="&#x3046;" d="M740 674 Q740 665 705 616 Q687 592 619 592 Q509 592 374 633 Q268 663 268 704 Q268 725 311 749 Q350 770 375 770 Q381 770 391 757 Q395 751 405 739 Q427 717 541 699 Q634 684 690 684 Q700 684 709 686 L728 688 Q740 688 740 674 ZM845 336 Q845 288 781 146 Q719 13 679 -34 Q666 -47 652 -47 Q632 -47 585 -25 Q536 0 536 19 Q536 24 620 156 Q703 289 703 326 Q703 346 650 346 Q611 346 528 329 L324 285 Q233 265 184 265 Q128 265 128 295 Q128 304 143 334 Q179 406 212 406 Q219 406 231 394 Q242 383 248 383 Q267 383 331 397 L518 436 Q632 455 708 455 Q762 455 802 424 Q845 389 845 336 Z" /><glyph glyph-name="uni3047" unicode="&#x3047;" d="M711 623 Q711 619 693 589 Q668 548 627 548 Q558 548 489 561 Q406 574 358 600 Q323 618 323 632 Q323 654 356 678 Q386 699 411 699 Q420 699 429 688 Q440 672 444 671 Q515 628 670 628 Q679 628 686 630 L703 632 Q711 632 711 623 ZM861 140 Q861 145 854 99 Q844 43 761 16 Q703 -3 628 -3 Q594 -3 568 9 Q533 24 533 53 Q533 88 553 144 Q565 180 565 189 Q565 195 560 195 Q549 195 503 178 Q451 158 445 155 Q401 135 363 84 Q318 23 287 -17 Q270 -37 262 -37 Q246 -37 206 -14 Q164 10 164 27 Q164 55 470 382 Q281 328 192 328 Q145 328 145 356 Q145 378 176 416 Q206 454 223 454 Q227 454 240 444 Q251 435 260 435 Q278 435 342 449 Q512 484 557 484 Q581 484 600 470 Q617 455 617 432 Q617 415 488 244 Q586 276 628 276 Q671 276 671 242 Q671 226 666 183 Q660 144 660 124 Q660 93 676 93 Q734 93 833 144 Q849 152 852 152 Q861 152 861 140 Z" /><glyph glyph-name="uni3048" unicode="&#x3048;" d="M744 701 Q744 690 725 661 Q692 613 646 613 Q570 613 484 628 Q384 645 330 674 Q288 695 288 712 Q288 739 327 766 Q363 790 392 790 Q402 790 413 777 Q426 762 431 758 Q472 733 560 718 Q623 707 696 707 Q703 707 716 710 L735 712 Q744 712 744 701 ZM913 85 Q901 19 804 -12 Q732 -36 647 -36 Q607 -36 576 -22 Q535 -4 535 30 Q535 69 560 145 L573 191 Q573 198 567 198 Q555 198 500 179 Q447 158 432 151 Q381 127 336 67 Q296 13 246 -52 Q228 -75 216 -75 Q195 -75 150 -48 Q101 -18 101 0 Q101 26 461 417 Q364 394 251 370 Q172 354 134 354 Q79 354 79 387 Q79 417 118 460 Q156 502 171 502 Q177 502 190 491 Q201 480 214 480 L296 496 Q403 516 463 526 Q538 537 563 537 Q591 537 613 520 Q634 504 634 476 Q634 457 482 255 Q598 293 647 293 Q665 293 682 282 Q698 271 698 253 Q698 229 692 184 Q685 139 685 114 Q685 78 703 78 Q780 78 888 137 Q908 147 911 147 Q921 147 921 133 L913 85 Z" /><glyph glyph-name="uni3049" unicode="&#x3049;" d="M855 518 Q855 504 823 490 Q798 479 778 479 Q769 479 760 500 Q751 518 735 569 Q717 622 717 636 Q717 653 730 653 Q755 653 806 600 Q855 545 855 518 ZM819 34 Q819 17 810 12 Q802 8 745 8 Q696 8 690 11 Q679 15 679 29 Q679 141 658 189 Q625 261 526 261 Q529 171 529 97 Q529 44 482 17 Q443 -7 388 -7 Q304 -7 257 28 Q201 66 201 148 Q201 224 271 279 Q325 322 411 343 L409 415 Q352 410 264 410 Q139 410 139 452 Q139 473 168 502 Q198 530 218 530 Q225 530 242 516 Q257 501 275 501 Q324 501 412 512 Q424 615 471 667 Q486 684 500 684 Q521 684 521 661 L519 594 Q517 564 517 528 Q534 529 587 546 Q634 560 654 560 Q667 560 667 548 Q667 537 655 505 Q643 475 596 455 Q560 438 519 432 Q519 377 521 349 Q660 349 742 261 Q819 175 819 34 ZM415 153 Q415 180 413 256 Q360 250 321 223 Q274 191 274 142 Q274 116 305 100 Q331 85 358 85 Q394 85 406 103 Q415 115 415 153 Z" /><glyph glyph-name="uni304A" unicode="&#x304a;" d="M940 580 Q940 562 902 547 Q870 534 849 534 Q838 534 828 560 Q816 583 798 640 Q777 702 777 719 Q777 739 792 739 Q804 739 825 724 Q864 695 896 660 Q940 610 940 580 ZM897 10 Q897 -10 885 -16 Q873 -20 810 -20 Q758 -20 744 -16 Q733 -10 733 5 Q733 135 708 193 Q669 278 552 278 Q556 118 556 85 Q556 24 501 -10 Q453 -38 390 -38 Q292 -38 235 4 Q170 50 170 145 Q170 235 252 299 Q318 350 417 374 L415 459 Q318 453 242 453 Q97 453 97 502 Q97 526 132 560 Q166 594 190 594 Q198 594 218 577 Q235 560 257 560 Q308 560 418 573 Q439 700 488 755 Q506 775 522 775 Q547 775 547 748 Q547 721 544 670 Q542 634 542 591 Q575 594 650 615 L703 629 Q718 629 718 615 Q718 603 704 566 Q690 529 636 505 Q591 485 544 479 Q544 441 547 381 Q712 381 807 277 Q897 178 897 10 ZM421 212 Q420 238 420 272 Q356 264 312 232 Q256 194 256 137 Q256 108 292 87 Q320 70 355 70 Q397 70 412 92 Q422 109 422 151 L421 212 Z" /><glyph glyph-name="uni304B" unicode="&#x304b;" d="M966 361 Q966 343 924 320 Q881 296 859 296 Q817 296 718 545 Q705 575 705 585 Q705 601 732 601 Q761 601 808 557 Q856 511 950 393 Q966 371 966 361 ZM763 -11 Q763 -38 715 -38 L611 -40 Q585 -40 577 15 Q565 98 543 264 Q507 463 462 463 Q441 463 424 457 Q342 227 289 8 Q286 -10 277 -43 Q271 -59 248 -59 Q112 -59 112 -23 Q112 34 270 430 Q192 408 123 408 Q82 408 82 451 Q82 470 108 508 Q136 548 152 548 Q158 548 167 539 Q175 530 186 530 Q221 530 318 552 Q438 783 495 783 Q513 783 513 763 Q513 739 457 569 L485 570 Q637 570 733 156 Q763 26 763 -11 Z" /><glyph glyph-name="uni304C" unicode="&#x304c;" d="M984 744 Q984 734 966 713 Q947 692 937 692 Q934 692 856 771 Q837 789 837 795 Q837 804 866 804 Q887 804 934 785 Q984 762 984 744 ZM899 664 Q899 655 880 633 Q862 612 852 612 Q849 612 771 691 Q752 709 752 715 Q752 724 781 724 Q802 724 849 705 Q899 682 899 664 ZM966 361 Q966 343 924 320 Q881 296 859 296 Q817 296 718 545 Q705 575 705 585 Q705 601 732 601 Q761 601 808 557 Q856 511 950 393 Q966 371 966 361 ZM763 -11 Q763 -38 715 -38 L611 -40 Q585 -40 577 15 Q565 98 543 264 Q507 463 462 463 Q435 463 424 457 Q342 227 289 8 Q286 -10 277 -43 Q271 -59 248 -59 Q112 -59 112 -23 Q112 34 270 430 Q194 408 123 408 Q82 408 82 451 Q82 470 108 508 Q136 548 152 548 Q158 548 167 539 Q175 530 186 530 Q221 530 318 552 Q438 783 495 783 Q513 783 513 763 Q513 739 457 569 L488 570 Q579 570 654 404 Q698 303 733 156 Q763 26 763 -11 Z" /><glyph glyph-name="uni304D" unicode="&#x304d;" d="M870 490 Q870 487 851 436 Q838 403 746 382 Q727 377 616 355 L641 306 Q658 270 658 258 Q658 237 612 237 Q555 237 532 259 Q516 273 489 332 Q306 309 166 309 Q73 309 73 346 Q73 379 104 410 Q134 440 155 440 Q162 440 174 428 Q186 416 196 416 Q349 416 449 436 L412 566 Q324 554 238 554 Q147 554 147 590 Q147 628 180 659 Q207 684 221 684 Q228 684 238 672 Q248 661 260 661 Q315 661 399 674 Q399 724 424 771 Q439 800 466 800 Q480 800 487 779 Q499 743 511 690 Q577 699 610 705 Q669 717 707 730 L733 738 Q748 738 748 720 Q748 718 733 674 Q721 640 664 622 Q614 605 535 587 Q547 532 577 455 Q726 475 814 497 Q850 506 855 506 Q870 506 870 490 ZM853 117 Q853 104 824 34 Q806 -10 682 -22 Q624 -26 512 -26 Q399 -26 306 2 Q174 44 174 132 Q174 217 276 254 Q313 267 334 267 Q350 267 350 255 Q350 244 344 238 L307 198 Q288 175 288 147 Q288 81 435 81 Q601 81 770 129 Q820 143 833 143 Q853 143 853 117 Z" /><glyph glyph-name="uni304E" unicode="&#x304e;" d="M989 792 Q989 783 970 761 Q952 740 942 740 Q939 740 861 819 Q842 837 842 843 Q842 852 871 852 Q892 852 939 833 Q989 810 989 792 ZM904 712 Q904 702 886 681 Q867 660 857 660 Q854 660 776 739 Q757 757 757 763 Q757 772 786 772 Q807 772 854 753 Q904 730 904 712 ZM870 490 Q870 487 851 436 Q838 403 746 382 Q727 377 616 355 L641 306 Q658 270 658 258 Q658 237 612 237 Q555 237 532 259 Q516 273 489 332 Q253 309 166 309 Q73 309 73 346 Q73 379 104 410 Q134 440 155 440 Q162 440 174 428 Q186 416 196 416 L269 419 Q383 423 449 436 L412 566 Q324 554 238 554 Q147 554 147 590 Q147 628 180 659 Q207 684 221 684 Q228 684 238 672 Q248 661 260 661 Q315 661 399 674 Q399 724 424 771 Q439 800 466 800 Q480 800 487 779 Q499 743 511 690 Q577 699 610 705 Q669 717 707 730 L733 738 Q748 738 748 720 Q748 718 733 674 Q721 640 646 616 Q572 596 535 587 Q547 532 577 455 Q726 475 814 497 Q850 506 855 506 Q870 506 870 490 ZM853 117 Q853 104 824 34 Q806 -10 682 -22 Q624 -26 512 -26 Q399 -26 306 2 Q174 44 174 132 Q174 217 276 254 Q313 267 334 267 Q350 267 350 255 Q350 244 344 238 L307 198 Q288 175 288 147 Q288 81 435 81 Q601 81 770 129 Q820 143 833 143 Q853 143 853 117 Z" /><glyph glyph-name="uni304F" unicode="&#x304f;" d="M820 34 Q820 16 782 -36 Q743 -87 725 -87 Q714 -87 687 -69 Q633 -32 519 52 Q321 195 231 299 Q166 370 166 412 Q166 460 287 559 Q409 659 594 756 Q663 792 698 792 Q734 792 734 764 Q734 741 534 585 Q335 428 335 394 Q335 377 386 338 Q475 269 791 65 Q820 45 820 34 Z" /><glyph glyph-name="uni3050" unicode="&#x3050;" d="M986 779 Q986 769 968 748 Q949 727 939 727 Q936 727 858 806 Q839 824 839 830 Q839 839 868 839 Q889 839 936 820 Q986 797 986 779 ZM901 699 Q901 690 882 668 Q864 647 854 647 Q851 647 773 726 Q754 744 754 750 Q754 759 783 759 Q804 759 851 740 Q901 717 901 699 ZM820 34 Q820 16 782 -36 Q743 -87 725 -87 Q714 -87 687 -69 Q633 -32 519 52 Q321 195 231 299 Q166 370 166 412 Q166 460 287 559 Q409 659 594 756 Q663 792 698 792 Q734 792 734 764 Q734 741 534 585 Q335 428 335 394 Q335 377 386 338 Q475 269 791 65 Q820 45 820 34 Z" /><glyph glyph-name="uni3051" unicode="&#x3051;" d="M935 537 Q935 529 909 472 Q894 441 765 419 Q770 326 770 220 Q770 175 765 53 Q765 30 762 -15 Q759 -32 745 -35 Q715 -40 618 -40 Q601 -40 602 -19 L602 -14 Q604 50 615 186 Q625 326 625 387 L624 407 Q523 399 434 399 Q333 399 333 440 Q333 478 370 511 Q401 537 418 537 Q426 537 435 526 Q444 511 449 509 Q457 504 491 504 Q538 504 629 514 Q635 619 635 713 Q635 762 664 762 Q690 762 714 710 Q740 655 760 526 Q795 529 874 544 L923 552 Q935 552 935 537 ZM286 732 Q286 726 275 625 Q263 529 252 404 Q236 196 236 -5 Q236 -34 183 -34 Q155 -34 128 -31 Q104 -28 94 -26 Q78 -19 78 0 Q78 81 94 219 Q112 382 139 490 Q181 669 238 743 Q253 763 268 763 Q286 763 286 732 Z" /><glyph glyph-name="uni3052" unicode="&#x3052;" d="M983 782 Q983 773 964 751 Q946 730 936 730 Q933 730 855 809 Q836 827 836 833 Q836 842 865 842 Q886 842 933 823 Q983 800 983 782 ZM898 702 Q898 692 880 671 Q861 650 851 650 Q848 650 770 729 Q751 747 751 753 Q751 762 780 762 Q801 762 848 743 Q898 720 898 702 ZM935 537 Q935 529 909 472 Q894 441 765 419 Q770 326 770 220 Q770 175 765 53 Q765 30 762 -15 Q759 -32 745 -35 Q715 -40 618 -40 Q601 -40 602 -19 L602 -14 Q604 50 615 186 Q625 326 625 387 L624 407 Q523 399 434 399 Q333 399 333 440 Q333 478 370 511 Q401 537 418 537 Q426 537 435 526 Q444 511 449 509 Q457 504 491 504 Q538 504 629 514 Q635 619 635 713 Q635 762 664 762 Q690 762 714 710 Q740 655 760 526 Q795 529 874 544 L923 552 Q935 552 935 537 ZM286 732 Q286 726 275 625 Q263 529 252 404 Q236 196 236 -5 Q236 -34 183 -34 Q155 -34 128 -31 Q104 -28 94 -26 Q78 -19 78 0 Q78 81 94 219 Q112 382 139 490 Q181 669 238 743 Q253 763 268 763 Q286 763 286 732 Z" /><glyph glyph-name="uni3053" unicode="&#x3053;" d="M756 629 Q756 552 661 484 Q588 431 496 404 Q472 396 464 396 Q452 396 452 406 Q452 410 533 494 Q614 577 614 591 Q614 605 596 605 Q571 605 451 586 Q268 555 186 555 Q142 555 142 602 Q142 623 184 662 Q227 702 246 702 Q254 702 268 686 Q279 669 294 669 Q333 669 462 691 Q599 713 648 713 Q684 713 719 691 Q756 665 756 629 ZM928 141 Q928 135 916 111 Q902 81 893 57 Q878 19 776 5 Q707 -4 554 -4 Q395 -4 320 20 Q187 62 187 185 Q187 249 295 318 Q337 345 349 345 Q361 345 361 331 Q361 321 332 272 Q304 223 304 201 Q304 120 480 120 Q692 120 865 152 L911 160 Q928 160 928 141 Z" /><glyph glyph-name="uni3054" unicode="&#x3054;" d="M954 783 Q954 773 936 752 Q917 731 907 731 Q904 731 826 810 Q807 828 807 834 Q807 843 836 843 Q857 843 904 824 Q954 801 954 783 ZM869 703 Q869 694 850 672 Q832 651 822 651 Q819 651 741 730 Q722 748 722 754 Q722 763 751 763 Q772 763 819 744 Q869 721 869 703 ZM756 629 Q756 552 661 484 Q588 431 496 404 Q472 396 464 396 Q452 396 452 406 Q452 410 533 494 Q614 577 614 591 Q614 605 596 605 Q571 605 451 586 Q268 555 186 555 Q142 555 142 602 Q142 623 184 662 Q227 702 246 702 Q254 702 268 686 Q279 669 294 669 Q333 669 462 691 Q599 713 648 713 Q684 713 719 691 Q756 665 756 629 ZM928 141 Q928 135 916 111 Q902 81 893 57 Q878 19 776 5 Q707 -4 554 -4 Q395 -4 320 20 Q187 62 187 185 Q187 249 295 318 Q337 345 349 345 Q361 345 361 331 Q361 321 332 272 Q304 223 304 201 Q304 120 480 120 Q692 120 865 152 L911 160 Q928 160 928 141 Z" /><glyph glyph-name="uni3055" unicode="&#x3055;" d="M839 631 Q831 610 817 570 Q803 533 714 517 L596 497 Q633 399 662 342 Q705 254 705 253 Q705 223 648 223 Q599 223 564 257 Q540 279 512 333 Q482 385 452 473 Q349 460 256 460 Q92 460 92 514 Q92 541 128 574 Q164 605 191 605 Q195 605 206 588 Q215 571 235 571 Q302 571 426 589 L425 645 Q425 691 436 723 Q451 773 483 773 Q501 773 521 709 Q532 670 557 602 Q643 602 776 639 Q818 651 822 651 Q839 651 839 631 ZM923 133 Q923 137 900 51 Q876 -34 487 -34 Q374 -34 279 -3 Q149 40 149 133 Q149 177 172 217 Q194 258 231 283 Q254 298 263 298 Q279 298 279 279 Q279 276 270 240 Q258 192 258 169 Q258 88 442 88 Q673 88 851 138 L904 153 Q923 153 923 133 Z" /><glyph glyph-name="uni3056" unicode="&#x3056;" d="M995 793 Q995 784 976 762 Q958 741 948 741 Q945 741 867 820 Q848 838 848 844 Q848 853 877 853 Q898 853 945 834 Q995 811 995 793 ZM910 713 Q910 703 892 682 Q873 661 863 661 Q860 661 782 740 Q763 758 763 764 Q763 773 792 773 Q813 773 860 754 Q910 731 910 713 ZM839 631 Q831 610 817 570 Q803 533 714 517 Q672 509 596 497 Q633 399 662 342 Q705 254 705 253 Q705 223 648 223 Q599 223 564 257 Q540 279 512 333 Q482 385 452 473 Q349 460 256 460 Q92 460 92 514 Q92 541 128 574 Q164 605 191 605 Q195 605 206 588 Q215 571 235 571 Q302 571 426 589 L425 645 Q425 691 436 723 Q451 773 483 773 Q500 773 521 709 Q532 670 557 602 Q643 602 776 639 Q818 651 822 651 Q839 651 839 631 ZM923 133 Q923 137 900 51 Q876 -34 487 -34 Q374 -34 279 -3 Q149 40 149 133 Q149 177 172 217 Q194 258 231 283 Q254 298 263 298 Q279 298 279 279 Q279 276 270 240 Q258 192 258 169 Q258 88 442 88 Q673 88 851 138 L904 153 Q923 153 923 133 Z" /><glyph glyph-name="uni3057" unicode="&#x3057;" d="M911 122 Q911 20 718 -21 Q604 -45 445 -45 Q328 -45 263 15 Q195 77 195 194 Q195 309 249 480 Q307 663 380 733 Q408 758 429 758 Q448 758 448 736 Q448 733 417 615 Q404 566 381 468 Q349 320 349 180 Q349 66 504 66 Q561 66 645 79 Q742 92 778 111 Q780 111 828 144 Q862 167 876 167 Q911 167 911 122 Z" /><glyph glyph-name="uni3058" unicode="&#x3058;" d="M812 676 Q812 666 794 645 Q775 624 765 624 Q762 624 684 703 Q665 721 665 727 Q665 736 694 736 Q715 736 762 717 Q812 694 812 676 ZM727 596 Q727 587 708 565 Q690 544 680 544 Q677 544 599 623 Q580 641 580 647 Q580 656 609 656 Q630 656 677 637 Q727 614 727 596 ZM911 122 Q911 20 718 -21 Q604 -45 445 -45 Q328 -45 263 15 Q195 77 195 194 Q195 309 249 480 Q307 663 380 733 Q408 758 429 758 Q448 758 448 736 Q448 733 417 615 Q404 566 381 468 Q349 320 349 180 Q349 66 504 66 Q561 66 645 79 Q742 92 778 111 Q780 111 828 144 Q862 167 876 167 Q911 167 911 122 Z" /><glyph glyph-name="uni3059" unicode="&#x3059;" d="M883 739 Q883 733 864 678 Q843 618 579 561 Q595 495 617 441 Q700 422 749 370 Q800 313 800 231 Q800 88 633 -5 Q490 -85 336 -85 Q252 -85 252 -48 Q252 -15 273 16 Q295 47 309 47 L342 40 Q366 32 384 32 Q490 32 587 98 Q694 170 694 272 Q694 296 679 320 Q665 342 641 348 Q645 328 645 317 Q645 229 555 184 Q483 148 387 148 Q311 148 255 181 Q187 219 187 291 Q187 381 289 423 Q362 452 470 452 L449 539 Q278 511 153 511 Q72 511 72 552 Q72 576 114 615 Q156 654 182 654 Q192 654 204 640 Q216 627 223 627 Q296 627 437 655 Q449 736 488 775 Q507 794 522 794 Q547 794 556 676 Q713 700 833 746 Q861 756 868 756 Q883 756 883 739 ZM499 325 Q499 346 492 374 Q474 378 461 378 Q426 378 374 358 Q312 334 312 305 Q312 271 349 256 Q376 244 414 244 Q452 244 475 266 Q499 287 499 325 Z" /><glyph glyph-name="uni305A" unicode="&#x305a;" d="M998 797 Q998 787 980 766 Q961 745 951 745 Q948 745 870 824 Q851 842 851 848 Q851 857 880 857 Q901 857 948 838 Q998 815 998 797 ZM913 717 Q913 708 894 686 Q876 665 866 665 Q863 665 785 744 Q766 762 766 768 Q766 777 795 777 Q816 777 863 758 Q913 735 913 717 ZM800 231 Q800 88 633 -5 Q490 -85 336 -85 Q252 -85 252 -48 Q252 -16 273 15 Q294 47 309 47 L342 40 Q366 32 384 32 Q490 32 587 98 Q694 170 694 272 Q694 296 679 320 Q665 342 641 348 Q645 328 645 317 Q645 229 555 184 Q483 148 387 148 Q311 148 255 181 Q187 219 187 291 Q187 381 289 423 Q362 452 470 452 L449 539 Q278 511 153 511 Q72 511 72 552 Q72 576 114 615 Q156 654 182 654 Q192 654 204 640 Q216 627 223 627 Q296 627 437 655 Q449 735 488 775 Q507 794 522 794 Q547 794 556 676 Q654 694 652 693 Q707 704 747 717 L782 727 Q798 727 798 712 Q798 699 777 651 Q762 616 732 601 Q711 591 666 580 L579 561 Q595 495 617 441 Q700 422 749 370 Q800 313 800 231 ZM498 325 Q498 347 492 374 Q474 378 461 378 Q426 378 374 358 Q312 334 312 305 Q312 271 349 256 Q376 244 414 244 Q451 244 474 266 Q498 287 498 325 Z" /><glyph glyph-name="uni305B" unicode="&#x305b;" d="M937 136 Q937 132 929 95 Q918 53 918 49 Q908 -8 725 -35 Q605 -51 487 -51 Q200 -51 200 232 Q200 319 205 399 Q143 401 99 412 Q56 421 56 449 Q56 480 96 517 Q131 549 148 549 Q156 549 171 537 Q185 524 200 523 Q204 522 218 522 Q228 585 262 668 Q307 773 350 773 Q371 773 371 747 L360 644 Q349 555 349 525 Q423 525 579 549 Q579 664 621 739 Q641 774 657 774 Q671 774 680 735 Q694 671 705 570 Q788 580 881 608 L917 618 Q933 618 933 597 Q933 586 909 532 Q892 496 721 455 Q745 353 745 322 Q745 268 695 250 Q666 240 599 240 Q559 240 541 246 Q523 252 523 270 Q523 274 519 298 Q515 314 515 327 Q515 342 526 342 Q533 342 551 336 Q568 330 577 330 Q595 330 600 335 Q606 340 606 357 Q606 383 589 432 Q448 403 339 403 Q333 349 333 319 Q333 198 357 144 Q393 60 498 60 Q644 60 888 147 Q919 158 921 158 Q937 158 937 136 Z" /><glyph glyph-name="uni305C" unicode="&#x305c;" d="M987 786 Q987 777 968 755 Q950 734 940 734 Q937 734 859 813 Q840 831 840 837 Q840 846 869 846 Q890 846 937 827 Q987 804 987 786 ZM902 706 Q902 696 884 675 Q865 654 855 654 Q852 654 774 733 Q755 751 755 757 Q755 766 784 766 Q805 766 852 747 Q902 724 902 706 ZM937 136 Q937 132 929 95 Q918 53 918 49 Q908 -8 725 -35 Q605 -51 487 -51 Q200 -51 200 232 Q200 319 205 399 Q143 401 99 412 Q56 421 56 449 Q56 480 96 517 Q131 549 148 549 Q156 549 171 537 Q185 524 200 523 Q204 522 218 522 Q228 584 262 667 Q307 773 350 773 Q371 773 371 747 L360 644 Q349 555 349 525 Q423 525 579 549 Q579 664 621 739 Q641 774 657 774 Q671 774 680 735 Q694 671 705 570 Q788 580 881 608 L917 618 Q933 618 933 597 Q933 586 909 532 Q892 496 721 455 Q745 353 745 322 Q745 268 695 250 Q666 240 599 240 Q559 240 541 246 Q523 252 523 270 Q523 274 519 298 Q515 314 515 327 Q515 342 526 342 Q533 342 551 336 Q568 330 577 330 Q595 330 600 335 Q606 340 606 357 Q606 383 589 432 Q448 403 339 403 Q333 349 333 319 Q333 198 357 144 Q393 60 498 60 Q644 60 888 147 Q919 158 921 158 Q937 158 937 136 Z" /><glyph glyph-name="uni305D" unicode="&#x305d;" d="M905 458 Q905 452 884 404 Q863 355 710 318 Q585 287 501 284 Q467 236 456 215 Q435 173 435 136 Q435 103 483 86 Q518 74 559 74 Q702 74 849 113 Q882 122 885 122 Q900 122 900 102 Q900 93 877 32 Q861 -10 779 -27 Q716 -39 568 -39 Q476 -39 394 -5 Q289 39 289 119 Q289 186 338 271 Q208 265 191 265 Q153 265 124 275 Q82 289 82 318 Q82 339 116 369 Q150 398 172 398 Q179 398 192 386 Q204 375 212 375 Q318 375 352 382 Q377 424 402 453 Q207 615 207 694 Q207 717 236 717 Q243 717 355 631 Q427 574 478 544 Q614 672 698 712 Q735 729 751 729 Q774 729 774 706 Q774 691 732 646 Q629 533 621 525 Q558 453 522 395 Q676 408 854 463 L892 473 Q905 473 905 458 Z" /><glyph glyph-name="uni305E" unicode="&#x305e;" d="M997 797 Q997 788 978 766 Q960 745 950 745 Q947 745 869 824 Q850 842 850 848 Q850 857 879 857 Q900 857 947 838 Q997 815 997 797 ZM912 717 Q912 707 894 686 Q875 665 865 665 Q862 665 784 744 Q765 762 765 768 Q765 777 794 777 Q815 777 862 758 Q912 735 912 717 ZM905 458 Q905 452 884 404 Q863 355 710 318 Q585 287 501 284 Q467 236 456 215 Q435 173 435 136 Q435 103 483 86 Q518 74 559 74 Q702 74 849 113 Q882 122 885 122 Q900 122 900 102 Q900 93 877 32 Q861 -10 779 -27 Q716 -39 568 -39 Q476 -39 394 -5 Q289 39 289 119 Q289 186 338 271 Q208 265 191 265 Q153 265 124 275 Q82 289 82 318 Q82 339 116 369 Q150 398 172 398 Q179 398 192 386 Q204 375 212 375 Q318 375 352 382 Q377 424 402 453 Q207 615 207 694 Q207 717 236 717 Q243 717 355 631 Q427 574 478 544 Q614 672 698 712 Q735 729 751 729 Q774 729 774 706 Q774 691 732 646 Q629 533 621 525 Q558 453 522 395 Q676 408 854 463 L892 473 Q905 473 905 458 Z" /><glyph glyph-name="uni305F" unicode="&#x305f;" d="M840 409 Q840 366 739 294 Q643 225 614 225 Q599 225 599 235 Q599 240 642 290 Q683 340 685 356 Q523 342 463 342 Q372 342 372 383 Q372 405 401 430 Q430 456 453 456 Q458 456 470 444 Q482 432 491 432 Q511 432 564 439 Q741 460 769 460 Q796 460 816 449 Q840 434 840 409 ZM880 696 Q880 691 855 635 Q822 563 355 515 Q309 360 260 138 L226 -26 Q220 -51 210 -56 Q202 -58 196 -58 Q65 -58 65 -31 Q65 8 131 227 Q190 423 222 509 Q74 509 74 552 Q74 576 104 618 Q135 658 157 658 Q161 658 180 644 Q196 631 230 631 Q243 631 273 634 Q298 705 369 779 Q396 808 420 808 Q440 808 440 791 Q440 780 395 642 Q531 645 789 696 L828 706 Q860 713 864 713 Q880 713 880 696 ZM930 82 Q930 76 898 0 Q886 -29 848 -38 Q806 -48 692 -48 Q391 -48 391 61 Q391 96 448 147 Q506 197 542 197 Q556 197 556 184 Q556 176 536 144 Q515 113 515 100 Q515 80 568 68 Q605 58 638 58 Q761 58 881 94 Q910 102 913 102 Q930 102 930 82 Z" /><glyph glyph-name="uni3060" unicode="&#x3060;" d="M997 797 Q997 788 978 766 Q960 745 950 745 Q947 745 869 824 Q850 842 850 848 Q850 857 879 857 Q900 857 947 838 Q997 815 997 797 ZM912 717 Q912 707 894 686 Q875 665 865 665 Q862 665 784 744 Q765 762 765 768 Q765 777 794 777 Q815 777 862 758 Q912 735 912 717 ZM840 409 Q840 366 739 294 Q643 225 614 225 Q599 225 599 235 Q599 240 642 290 Q683 340 685 356 Q523 342 463 342 Q372 342 372 383 Q372 405 401 430 Q430 456 453 456 Q458 456 470 444 Q482 432 491 432 Q511 432 564 439 Q741 460 769 460 Q796 460 816 449 Q840 434 840 409 ZM789 677 Q789 672 764 616 Q748 581 628 551 Q577 538 492 528 L355 515 Q309 360 260 138 L226 -26 Q220 -51 210 -56 Q202 -58 196 -58 Q65 -58 65 -31 Q65 8 131 227 Q191 422 222 509 Q74 509 74 552 Q74 576 104 618 Q135 658 157 658 Q161 658 180 644 Q196 631 230 631 Q242 631 273 634 Q297 704 369 779 Q396 808 420 808 Q440 808 440 791 Q440 780 395 642 Q520 642 698 677 L737 687 Q769 694 773 694 Q789 694 789 677 ZM930 82 Q930 76 898 0 Q886 -29 848 -38 Q806 -48 692 -48 Q391 -48 391 61 Q391 96 448 147 Q506 197 542 197 Q556 197 556 184 Q556 176 536 144 Q515 113 515 100 Q515 80 568 68 Q605 58 638 58 Q761 58 881 94 Q910 102 913 102 Q930 102 930 82 Z" /><glyph glyph-name="uni3061" unicode="&#x3061;" d="M902 244 Q902 184 802 72 Q722 -19 650 -71 Q638 -78 630 -78 Q618 -78 606 -66 Q524 9 524 24 Q524 33 540 45 Q553 54 589 77 Q770 199 770 262 Q770 283 739 295 Q713 303 689 303 Q625 303 501 269 L313 212 Q253 194 237 194 Q209 194 186 216 Q162 237 162 263 Q162 283 175 309 L197 352 Q229 426 278 530 Q195 532 153 552 Q125 564 125 590 Q125 613 156 640 Q187 666 211 666 Q220 666 238 651 Q256 636 285 636 L322 639 Q346 688 387 740 Q441 809 474 809 Q494 809 494 792 Q494 781 449 643 Q595 643 782 686 Q869 705 859 705 Q872 705 872 692 Q872 687 847 631 Q831 596 711 566 Q570 530 419 530 Q405 492 345 337 Q614 411 706 411 Q902 411 902 244 Z" /><glyph glyph-name="uni3062" unicode="&#x3062;" d="M995 795 Q995 786 976 764 Q958 743 948 743 Q945 743 867 822 Q848 840 848 846 Q848 855 877 855 Q898 855 945 836 Q995 813 995 795 ZM910 715 Q910 705 892 684 Q873 663 863 663 Q860 663 782 742 Q763 760 763 766 Q763 775 792 775 Q813 775 860 756 Q910 733 910 715 ZM902 244 Q902 184 802 72 Q722 -19 650 -71 Q638 -78 630 -78 Q618 -78 606 -66 Q524 9 524 24 Q524 33 540 45 Q553 54 589 77 Q770 199 770 262 Q770 283 739 295 Q713 303 689 303 Q625 303 501 269 L313 212 Q253 194 237 194 Q209 194 186 216 Q162 237 162 263 Q162 283 175 309 L197 352 Q229 426 278 530 Q197 532 153 552 Q125 564 125 590 Q125 613 156 640 Q187 666 211 666 Q220 666 238 651 Q256 636 285 636 L322 639 Q346 688 387 740 Q441 809 474 809 Q494 809 494 792 Q494 781 449 643 Q589 643 719 674 L794 692 Q809 692 809 678 Q809 667 787 615 Q769 576 650 551 Q559 530 419 530 Q405 492 345 337 Q614 411 706 411 Q902 411 902 244 Z" /><glyph glyph-name="uni3063" unicode="&#x3063;" d="M824 425 Q824 357 747 236 Q677 129 614 74 Q600 61 591 61 Q574 61 538 96 Q499 132 499 147 Q499 157 516 174 Q707 376 707 435 Q707 481 687 496 Q666 511 618 511 Q558 511 451 478 L285 424 Q225 406 195 406 Q163 406 163 444 Q163 470 191 505 Q216 536 242 552 Q254 540 277 530 Q497 604 611 604 Q777 604 812 515 Q824 482 824 425 Z" /><glyph glyph-name="uni3064" unicode="&#x3064;" d="M892 447 Q892 355 803 228 Q730 125 638 48 Q622 35 610 35 Q593 35 548 76 Q501 114 501 131 Q501 141 516 156 Q662 308 667 314 Q764 429 764 497 Q764 556 668 556 Q589 556 461 518 L257 452 Q194 432 151 432 Q113 432 113 475 Q113 505 146 547 Q175 582 206 602 Q219 589 225 586 Q236 576 247 576 Q511 664 640 664 Q776 664 830 624 Q892 577 892 447 Z" /><glyph glyph-name="uni3065" unicode="&#x3065;" d="M985 788 Q985 779 966 757 Q948 736 938 736 Q935 736 857 815 Q838 833 838 839 Q838 848 867 848 Q888 848 935 829 Q985 806 985 788 ZM900 708 Q900 698 882 677 Q863 656 853 656 Q850 656 772 735 Q753 753 753 759 Q753 768 782 768 Q803 768 850 749 Q900 726 900 708 ZM892 447 Q892 355 803 228 Q730 125 638 48 Q622 35 610 35 Q593 35 548 76 Q501 114 501 131 Q501 141 516 156 Q662 308 667 314 Q764 429 764 497 Q764 556 668 556 Q589 556 461 518 L257 452 Q194 432 151 432 Q113 432 113 475 Q113 505 146 547 Q175 582 206 602 Q219 589 225 586 Q236 576 247 576 Q511 664 640 664 Q776 664 830 624 Q892 577 892 447 Z" /><glyph glyph-name="uni3066" unicode="&#x3066;" d="M935 71 Q935 61 909 -2 Q894 -38 860 -50 Q836 -58 788 -58 Q607 -58 483 -9 Q310 60 310 216 Q310 309 373 415 Q413 481 500 587 Q368 547 326 536 Q218 508 150 508 Q73 508 73 550 Q73 586 104 626 Q134 667 157 667 Q162 667 180 654 Q194 640 208 640 Q259 640 403 680 L633 745 Q716 769 721 769 Q738 769 754 758 Q767 745 767 727 Q767 703 748 678 Q728 651 673 604 Q616 557 594 532 Q539 468 499 388 Q453 295 453 225 Q453 130 557 94 Q619 72 740 72 Q792 72 846 78 Q883 80 921 88 Q935 88 935 71 Z" /><glyph glyph-name="uni3067" unicode="&#x3067;" d="M901 531 Q901 522 882 500 Q864 479 854 479 Q851 479 773 558 Q754 576 754 582 Q754 591 783 591 Q804 591 851 572 Q901 549 901 531 ZM816 451 Q816 441 798 420 Q779 399 769 399 Q766 399 688 478 Q669 496 669 502 Q669 511 698 511 Q719 511 766 492 Q816 469 816 451 ZM935 71 Q935 61 909 -2 Q894 -38 860 -50 Q836 -58 788 -58 Q607 -58 483 -9 Q310 60 310 216 Q310 309 373 415 Q413 481 500 587 Q368 547 326 536 Q218 508 150 508 Q73 508 73 550 Q73 586 104 626 Q134 667 157 667 Q162 667 180 654 Q194 640 208 640 Q259 640 403 680 L633 745 Q716 769 721 769 Q738 769 754 758 Q767 745 767 727 Q767 703 748 678 Q728 651 673 604 Q616 557 594 532 Q539 468 499 388 Q453 295 453 225 Q453 130 557 94 Q619 72 740 72 Q792 72 846 78 Q881 80 921 88 Q935 88 935 71 Z" /><glyph glyph-name="uni3068" unicode="&#x3068;" d="M935 90 Q937 93 919 53 Q914 43 901 -2 Q883 -58 684 -58 Q494 -58 369 -16 Q180 47 180 198 Q180 311 297 455 Q174 628 174 735 Q174 777 196 777 Q207 777 233 743 Q290 665 391 555 Q449 605 545 664 Q660 735 708 735 Q735 735 735 717 Q735 694 665 636 Q599 584 470 477 L563 389 Q576 373 576 366 Q576 355 535 322 Q494 288 483 288 Q471 288 457 300 L380 366 Q352 348 331 289 Q312 236 312 196 Q312 72 564 72 Q655 72 854 98 L916 105 Q935 105 935 90 Z" /><glyph glyph-name="uni3069" unicode="&#x3069;" d="M975 791 Q975 782 956 760 Q938 739 928 739 Q925 739 847 818 Q828 836 828 842 Q828 851 857 851 Q878 851 925 832 Q975 809 975 791 ZM890 711 Q890 701 872 680 Q853 659 843 659 Q840 659 762 738 Q743 756 743 762 Q743 771 772 771 Q793 771 840 752 Q890 729 890 711 ZM935 90 Q937 93 919 53 Q914 43 901 -2 Q883 -58 684 -58 Q494 -58 369 -16 Q180 47 180 198 Q180 311 297 455 Q174 628 174 735 Q174 777 196 777 Q207 777 233 743 Q290 665 391 555 Q449 605 545 664 Q660 735 708 735 Q735 735 735 717 Q735 694 665 636 Q599 584 470 477 L563 389 Q576 373 576 366 Q576 355 535 322 Q494 288 483 288 Q471 288 457 300 L380 366 Q352 348 331 289 Q312 236 312 196 Q312 72 564 72 Q655 72 854 98 L916 105 Q935 105 935 90 Z" /><glyph glyph-name="uni306A" unicode="&#x306a;" d="M922 532 Q922 510 881 486 Q845 465 820 465 Q809 465 748 553 Q712 601 673 660 Q652 686 652 690 Q652 711 678 711 Q753 711 877 595 Q922 552 922 532 ZM950 291 Q950 266 937 219 Q921 165 901 165 Q886 165 842 176 L719 202 Q723 150 723 159 Q723 74 666 15 Q607 -44 524 -44 Q432 -44 373 -12 Q299 26 299 113 Q299 205 395 271 Q473 324 578 339 L577 399 Q577 430 586 469 Q597 522 616 522 Q630 522 636 504 Q638 500 643 482 Q649 465 653 451 Q669 396 693 343 Q728 343 815 333 Q902 323 932 310 Q950 301 950 291 ZM572 593 Q572 588 567 580 Q557 565 540 532 Q524 499 443 489 Q396 482 335 479 Q295 385 251 183 L228 81 Q219 45 162 45 Q115 45 87 52 Q64 56 64 73 Q64 101 97 200 Q130 299 145 339 Q172 417 202 474 Q133 478 120 482 Q69 494 69 534 Q69 558 104 587 Q137 617 161 617 Q166 617 175 608 Q184 594 186 594 Q194 586 249 586 Q270 633 324 690 Q384 755 425 755 Q442 755 442 739 Q442 734 371 583 Q450 583 499 593 Q501 593 530 601 Q551 607 560 607 Q572 607 572 593 ZM599 168 Q599 182 592 213 Q583 216 568 216 Q521 216 463 194 Q393 167 393 127 Q393 70 451 60 Q466 57 489 57 Q541 57 570 86 Q599 117 599 168 Z" /><glyph glyph-name="uni306B" unicode="&#x306b;" d="M820 617 Q820 567 733 487 Q614 378 600 378 Q580 378 580 394 Q580 397 638 485 Q695 572 695 585 Q695 598 675 598 Q652 598 587 583 L470 553 Q395 535 354 535 Q316 535 316 569 Q316 593 349 632 Q383 672 404 672 Q408 672 418 662 Q426 651 434 651 Q464 651 527 667 Q657 699 702 699 Q820 699 820 617 ZM952 118 Q952 109 917 36 Q900 2 856 -10 Q831 -16 777 -16 Q644 -16 526 12 Q352 56 352 149 Q352 185 386 226 Q420 269 453 269 Q468 269 468 255 Q468 253 455 220 Q442 191 442 178 Q442 120 652 120 L672 120 Q737 120 847 131 Q943 138 932 138 Q952 138 952 118 ZM265 627 Q256 545 247 385 Q243 270 243 -28 Q243 -54 192 -54 Q110 -54 97 -46 Q79 -34 79 -1 Q79 452 192 672 Q235 754 259 754 Q275 754 275 737 L265 627 Z" /><glyph glyph-name="uni306C" unicode="&#x306c;" d="M949 187 Q949 178 936 178 Q899 178 863 192 Q874 131 874 111 Q874 42 815 3 Q764 -30 691 -30 Q603 -30 548 14 Q489 60 489 148 Q489 218 554 262 Q612 302 684 302 Q656 410 517 434 Q500 313 467 208 Q403 5 222 5 Q137 5 90 67 Q44 123 44 209 Q44 257 78 319 Q111 381 150 413 Q138 442 138 530 Q138 644 166 684 Q178 701 197 701 Q213 701 225 656 Q231 624 251 538 Q255 514 265 483 Q284 495 340 514 Q398 530 419 530 Q419 570 452 633 Q487 703 522 703 Q538 703 538 662 Q538 642 524 530 Q629 512 713 455 Q807 388 834 295 Q854 291 886 282 Q919 271 930 260 Q949 235 949 187 ZM728 144 Q728 172 716 200 L704 201 Q678 201 645 183 Q606 162 606 140 Q606 117 630 105 Q648 94 674 94 Q728 94 728 144 ZM401 433 Q382 433 346 419 Q311 404 297 392 Q319 352 371 308 Q392 356 401 433 ZM315 167 Q238 223 194 298 Q162 270 162 194 Q162 119 237 119 Q261 119 285 131 Q312 145 315 167 Z" /><glyph glyph-name="uni306D" unicode="&#x306d;" d="M951 395 Q951 386 935 338 Q929 323 891 313 Q891 198 814 98 Q730 -10 619 -10 Q550 -10 497 18 Q432 51 432 116 Q432 190 484 254 Q529 309 604 343 Q652 363 753 383 Q735 499 672 499 Q617 499 506 432 Q417 375 356 322 Q344 250 344 149 L344 -24 Q344 -51 253 -51 Q213 -51 204 -48 Q195 -45 195 -34 Q195 7 200 58 Q205 126 205 151 L159 117 Q127 94 111 94 Q64 94 64 134 Q64 181 145 316 Q161 343 259 492 Q240 492 201 486 Q169 481 142 481 Q56 481 56 519 Q56 542 86 575 Q116 608 140 608 Q139 608 160 596 Q181 584 203 584 Q230 584 287 602 Q329 719 375 768 Q402 798 425 798 Q440 798 440 780 Q440 776 432 734 Q422 690 412 640 Q422 640 444 643 Q465 646 477 646 Q492 646 492 632 Q492 622 462 574 Q444 547 423 512 L536 565 Q600 590 659 590 Q753 590 805 536 Q838 500 882 397 Q931 404 938 404 Q951 404 951 395 ZM743 274 Q686 260 641 234 Q581 198 581 152 Q581 136 592 128 Q601 118 616 118 Q659 118 701 176 Q737 227 743 274 Z" /><glyph glyph-name="uni306E" unicode="&#x306e;" d="M835 314 Q835 250 810 155 Q785 64 750 9 Q735 -12 723 -12 Q712 -12 653 22 Q595 56 595 67 Q595 65 648 180 Q701 295 701 349 Q701 544 488 544 Q371 544 294 460 Q217 377 217 257 Q217 231 229 211 Q244 187 268 187 Q310 187 374 268 L458 386 Q491 431 513 431 Q543 431 543 382 Q543 260 470 166 Q392 67 272 67 Q99 67 99 281 Q99 428 232 545 Q360 658 510 658 Q658 658 748 559 Q835 463 835 314 Z" /><glyph glyph-name="uni306F" unicode="&#x306f;" d="M956 265 Q956 249 920 210 Q884 170 868 170 Q857 170 818 194 Q777 219 764 223 Q776 187 776 144 Q776 -51 579 -51 Q485 -51 430 -7 Q371 40 371 133 Q371 213 446 276 Q510 328 598 346 L572 453 Q485 435 419 435 Q353 435 333 443 Q307 452 307 477 Q307 499 338 536 Q368 572 390 572 Q396 572 408 560 Q420 547 438 547 Q470 547 553 561 L549 600 Q547 616 547 640 Q547 692 559 731 Q577 787 617 787 Q640 787 650 724 Q656 679 674 588 Q757 603 858 648 Q896 664 901 664 Q913 664 913 652 Q913 654 903 616 Q886 558 818 524 Q784 506 695 481 L732 356 Q820 347 886 318 Q956 288 956 265 ZM292 687 Q241 309 241 150 L242 2 Q242 -16 240 -24 Q235 -34 219 -38 Q206 -41 96 -41 Q74 -41 74 -15 Q74 463 206 688 Q250 762 280 762 Q299 762 299 743 L292 687 ZM635 171 Q635 205 624 240 Q578 240 539 213 Q494 183 494 140 Q494 110 514 90 Q531 67 560 67 Q607 67 623 97 Q635 118 635 171 Z" /><glyph glyph-name="uni3070" unicode="&#x3070;" d="M960 789 Q960 779 942 758 Q923 737 913 737 Q910 737 832 816 Q813 834 813 840 Q813 849 842 849 Q863 849 910 830 Q960 807 960 789 ZM875 709 Q875 700 856 678 Q838 657 828 657 Q825 657 747 736 Q728 754 728 760 Q728 769 757 769 Q778 769 825 750 Q875 727 875 709 ZM956 265 Q956 249 920 210 Q884 170 868 170 Q857 170 818 194 Q777 219 764 223 Q776 187 776 144 Q776 -51 579 -51 Q485 -51 430 -7 Q371 40 371 133 Q371 213 446 276 Q510 328 598 346 L572 453 Q485 435 419 435 Q353 435 333 443 Q307 452 307 477 Q307 499 338 536 Q368 572 390 572 Q396 572 408 560 Q420 547 438 547 Q470 547 553 561 L549 600 Q547 616 547 640 Q547 692 559 731 Q577 787 617 787 Q640 787 650 724 Q656 679 674 588 Q757 603 858 648 Q896 664 901 664 Q913 664 913 652 Q913 654 903 616 Q886 558 818 524 Q784 506 695 481 L732 356 Q820 347 886 318 Q956 288 956 265 ZM292 687 Q241 309 241 150 L242 2 Q242 -16 240 -24 Q235 -34 219 -38 Q206 -41 96 -41 Q74 -41 74 -15 Q74 463 206 688 Q250 762 280 762 Q299 762 299 743 L292 687 ZM635 171 Q635 205 624 240 Q578 240 539 213 Q494 183 494 140 Q494 110 514 90 Q531 67 560 67 Q607 67 623 97 Q635 118 635 171 Z" /><glyph glyph-name="uni3071" unicode="&#x3071;" d="M994 765 Q994 727 968 701 Q942 675 904 675 Q865 675 840 701 Q814 726 814 765 Q814 804 840 830 Q866 856 904 856 Q942 856 968 830 Q994 802 994 765 ZM956 265 Q956 249 920 210 Q884 170 868 170 Q857 170 818 194 Q777 219 764 223 Q776 187 776 144 Q776 -51 579 -51 Q485 -51 430 -7 Q371 40 371 133 Q371 213 446 276 Q510 328 598 346 L572 453 Q485 435 419 435 Q353 435 333 443 Q307 452 307 477 Q307 499 338 536 Q368 572 390 572 Q396 572 408 560 Q420 547 438 547 Q470 547 553 561 L549 600 Q547 616 547 640 Q547 692 559 731 Q577 787 617 787 Q640 787 650 724 Q656 679 674 588 Q757 603 858 648 Q896 664 901 664 Q913 664 913 652 Q913 654 903 616 Q886 558 818 524 Q784 506 695 481 L732 356 Q820 347 886 318 Q956 288 956 265 ZM292 687 Q241 309 241 150 L242 2 Q242 -16 240 -24 Q235 -34 219 -38 Q206 -41 96 -41 Q74 -41 74 -15 Q74 463 206 688 Q250 762 280 762 Q299 762 299 743 L292 687 ZM950 764 Q950 782 937 798 Q922 811 904 811 Q884 811 872 797 Q858 783 858 764 Q858 743 872 732 Q883 718 904 718 Q923 718 936 732 Q950 744 950 764 ZM635 171 Q635 205 624 240 Q578 240 539 213 Q494 183 494 140 Q494 110 514 90 Q531 67 560 67 Q607 67 623 97 Q635 118 635 171 Z" /><glyph glyph-name="uni3072" unicode="&#x3072;" d="M940 510 Q940 480 887 410 Q878 398 865 398 Q853 398 812 420 L766 443 Q761 443 761 433 L773 379 Q796 272 796 226 Q796 105 703 25 Q613 -50 491 -50 Q336 -50 256 39 Q179 122 179 281 Q179 399 256 560 Q145 527 113 527 Q69 527 69 554 Q69 577 92 614 Q114 654 133 654 Q142 654 157 648 Q172 642 175 642 Q186 642 280 691 Q375 740 412 740 Q424 740 438 732 Q451 724 451 713 Q451 696 407 622 Q308 457 308 282 Q308 193 350 136 Q397 70 481 70 Q566 70 614 121 Q660 173 660 259 Q660 352 597 541 Q565 631 565 636 Q565 673 604 673 Q615 673 662 644 Q739 595 811 566 L927 522 Q940 516 940 510 Z" /><glyph glyph-name="uni3073" unicode="&#x3073;" d="M972 782 Q972 772 954 751 Q935 730 925 730 Q922 730 844 809 Q825 827 825 833 Q825 842 854 842 Q875 842 922 823 Q972 800 972 782 ZM887 702 Q887 693 868 671 Q850 650 840 650 Q837 650 759 729 Q740 747 740 753 Q740 762 769 762 Q790 762 837 743 Q887 720 887 702 ZM940 510 Q940 480 887 410 Q878 398 865 398 Q853 398 812 420 L766 443 Q761 443 761 433 L773 379 Q796 272 796 226 Q796 105 703 25 Q613 -50 491 -50 Q336 -50 256 39 Q179 122 179 281 Q179 399 256 560 Q145 527 113 527 Q69 527 69 554 Q69 577 92 614 Q114 654 133 654 Q142 654 157 648 Q172 642 175 642 Q186 642 280 691 Q375 740 412 740 Q424 740 438 732 Q451 724 451 713 Q451 696 407 622 Q308 457 308 282 Q308 193 350 136 Q397 70 481 70 Q566 70 614 121 Q660 173 660 259 Q660 352 597 541 Q565 631 565 636 Q565 673 604 673 Q615 673 662 644 Q739 595 811 566 L927 522 Q940 516 940 510 Z" /><glyph glyph-name="uni3074" unicode="&#x3074;" d="M846 758 Q846 720 820 694 Q794 668 756 668 Q717 668 692 694 Q666 719 666 758 Q666 796 692 822 Q718 849 756 849 Q794 849 820 823 Q846 795 846 758 ZM940 510 Q940 480 887 410 Q878 398 865 398 Q853 398 812 420 L766 443 Q761 443 761 433 L773 379 Q796 272 796 226 Q796 105 703 25 Q613 -50 491 -50 Q336 -50 256 39 Q179 122 179 281 Q179 399 256 560 Q145 527 113 527 Q69 527 69 554 Q69 577 92 614 Q114 654 133 654 Q142 654 157 648 Q172 642 175 642 Q186 642 280 691 Q375 740 412 740 Q424 740 438 732 Q451 724 451 713 Q451 696 407 622 Q308 457 308 282 Q308 193 350 136 Q397 70 481 70 Q566 70 614 121 Q660 173 660 259 Q660 352 597 541 Q565 631 565 636 Q565 673 604 673 Q615 673 662 644 Q739 595 811 566 L927 522 Q940 516 940 510 ZM802 757 Q802 775 789 790 Q775 804 756 804 Q736 804 724 790 Q710 776 710 757 Q710 737 724 724 Q736 711 756 711 Q775 711 788 724 Q802 738 802 757 Z" /><glyph glyph-name="uni3075" unicode="&#x3075;" d="M956 87 Q956 67 858 67 Q822 67 816 70 Q808 73 805 86 L788 151 Q764 236 748 284 Q739 306 723 352 Q704 402 704 417 Q704 444 733 444 Q755 444 809 376 Q897 263 937 162 Q956 108 956 87 ZM671 187 Q671 -46 444 -46 Q395 -46 341 -31 Q268 -10 268 24 Q268 52 299 76 Q329 100 359 100 Q366 100 400 86 Q429 72 449 72 Q526 72 526 185 Q526 249 488 298 Q465 327 396 376 Q360 400 360 427 Q360 456 492 627 Q362 597 256 597 Q193 597 193 627 Q193 649 228 684 Q264 720 284 720 Q289 720 306 709 Q320 698 337 698 Q370 698 434 713 L501 731 Q553 744 565 744 Q594 744 616 729 Q637 714 637 686 Q637 661 591 587 Q586 580 498 442 Q559 410 614 333 Q671 252 671 187 ZM243 407 Q243 401 235 356 L221 270 Q208 198 195 112 L188 50 Q185 34 176 30 Q166 25 113 25 Q58 25 49 28 Q40 31 40 44 Q40 136 84 236 Q126 338 192 404 Q215 427 229 427 Q243 427 243 407 Z" /><glyph glyph-name="uni3076" unicode="&#x3076;" d="M955 772 Q955 763 936 741 Q918 720 908 720 Q905 720 827 799 Q808 817 808 823 Q808 832 837 832 Q858 832 905 813 Q955 790 955 772 ZM870 692 Q870 682 852 661 Q833 640 823 640 Q820 640 742 719 Q723 737 723 743 Q723 752 752 752 Q773 752 820 733 Q870 710 870 692 ZM956 87 Q956 67 858 67 Q822 67 816 70 Q808 73 805 86 L788 151 Q764 236 748 284 Q739 306 723 352 Q704 402 704 417 Q704 444 733 444 Q755 444 809 376 Q897 263 937 162 Q956 108 956 87 ZM671 187 Q671 -46 444 -46 Q395 -46 341 -31 Q268 -10 268 24 Q268 52 299 76 Q329 100 359 100 Q366 100 400 86 Q429 72 449 72 Q526 72 526 185 Q526 249 488 298 Q465 327 396 376 Q360 400 360 427 Q360 456 492 627 Q362 597 256 597 Q193 597 193 627 Q193 649 228 684 Q264 720 284 720 Q289 720 306 709 Q320 698 337 698 Q370 698 434 713 L501 731 Q553 744 565 744 Q594 744 616 729 Q637 714 637 686 Q637 661 591 587 Q586 580 498 442 Q559 410 614 333 Q671 252 671 187 ZM243 407 Q243 401 235 356 L221 270 Q208 198 195 112 L188 50 Q185 34 176 30 Q166 25 113 25 Q58 25 49 28 Q40 31 40 44 Q40 136 84 236 Q126 338 192 404 Q215 427 229 427 Q243 427 243 407 Z" /><glyph glyph-name="uni3077" unicode="&#x3077;" d="M884 759 Q884 721 858 695 Q832 669 794 669 Q755 669 730 695 Q704 720 704 759 Q704 798 730 824 Q756 850 794 850 Q832 850 858 824 Q884 796 884 759 ZM956 87 Q956 67 858 67 Q822 67 816 70 Q808 73 805 86 L788 151 Q764 236 748 284 Q739 306 723 352 Q704 402 704 417 Q704 444 733 444 Q755 444 809 376 Q897 263 937 162 Q956 108 956 87 ZM671 187 Q671 -46 444 -46 Q395 -46 341 -31 Q268 -10 268 24 Q268 52 299 76 Q329 100 359 100 Q366 100 400 86 Q429 72 449 72 Q526 72 526 185 Q526 249 488 298 Q465 327 396 376 Q360 400 360 427 Q360 456 492 627 Q362 597 256 597 Q193 597 193 627 Q193 649 228 684 Q264 720 284 720 Q289 720 306 709 Q320 698 337 698 Q370 698 434 713 L501 731 Q553 744 565 744 Q594 744 616 729 Q637 714 637 686 Q637 661 591 587 Q586 580 498 442 Q559 410 614 333 Q671 252 671 187 ZM243 407 Q243 401 235 356 L221 270 Q208 198 195 112 L188 50 Q185 34 176 30 Q166 25 113 25 Q58 25 49 28 Q40 31 40 44 Q40 136 84 236 Q126 338 192 404 Q215 427 229 427 Q243 427 243 407 ZM840 758 Q840 776 827 792 Q812 805 794 805 Q774 805 762 791 Q748 777 748 758 Q748 737 762 726 Q773 712 794 712 Q813 712 826 726 Q840 738 840 758 Z" /><glyph glyph-name="uni3078" unicode="&#x3078;" d="M957 56 Q957 39 906 6 Q853 -28 837 -28 Q820 -28 785 17 Q587 270 460 447 Q419 502 393 502 Q318 502 145 265 Q118 229 96 229 Q61 229 61 310 Q61 411 93 411 Q97 411 104 408 Q109 406 116 406 Q127 406 172 467 Q226 539 269 579 Q336 640 401 640 Q442 640 506 576 Q553 527 703 361 Q832 216 943 86 Q957 67 957 56 Z" /><glyph glyph-name="uni3079" unicode="&#x3079;" d="M785 747 Q785 738 766 716 Q748 695 738 695 Q735 695 657 774 Q638 792 638 798 Q638 807 667 807 Q688 807 735 788 Q785 765 785 747 ZM700 667 Q700 657 682 636 Q663 615 653 615 Q650 615 572 694 Q553 712 553 718 Q553 727 582 727 Q603 727 650 708 Q700 685 700 667 ZM957 56 Q957 39 906 6 Q853 -28 837 -28 Q820 -28 785 17 Q575 285 460 447 Q419 502 393 502 Q318 502 145 265 Q118 229 96 229 Q61 229 61 310 Q61 411 93 411 Q97 411 104 408 Q109 406 116 406 Q127 406 172 467 Q226 539 269 579 Q336 640 401 640 Q442 640 506 576 Q553 527 703 361 Q832 216 943 86 Q957 67 957 56 Z" /><glyph glyph-name="uni307A" unicode="&#x307a;" d="M738 723 Q738 685 712 659 Q686 633 648 633 Q609 633 584 659 Q558 684 558 723 Q558 762 584 788 Q610 814 648 814 Q686 814 712 788 Q738 760 738 723 ZM957 56 Q957 39 906 6 Q853 -28 837 -28 Q820 -28 785 17 Q575 285 460 447 Q419 502 393 502 Q318 502 145 265 Q118 229 96 229 Q61 229 61 310 Q61 411 93 411 Q97 411 104 408 Q109 406 116 406 Q127 406 172 467 Q226 539 269 579 Q336 640 401 640 Q442 640 506 576 Q553 527 703 361 Q832 216 943 86 Q957 67 957 56 ZM694 722 Q694 740 681 756 Q666 769 648 769 Q628 769 616 755 Q602 741 602 722 Q602 701 616 690 Q627 676 648 676 Q667 676 680 690 Q694 702 694 722 Z" /><glyph glyph-name="uni307B" unicode="&#x307b;" d="M971 60 Q971 44 915 27 Q867 12 843 12 Q831 12 815 56 Q791 115 758 158 Q712 215 663 215 Q695 87 695 60 Q695 13 662 -14 Q628 -40 582 -40 Q307 -40 307 127 Q307 194 374 242 Q428 279 504 290 L497 363 Q395 342 329 342 Q250 342 250 379 Q250 404 274 438 Q298 471 322 471 Q324 471 342 462 Q359 453 374 453 Q432 453 492 473 Q491 477 491 488 Q491 519 497 583 Q416 574 364 574 Q305 574 305 608 Q305 629 330 658 Q356 689 375 689 Q380 689 392 680 Q401 672 409 672 Q431 672 500 687 Q626 713 777 779 Q804 790 808 790 Q821 790 821 779 Q819 773 816 759 Q810 729 810 707 Q810 671 621 608 Q617 585 617 556 Q617 532 620 508 Q742 539 837 581 L869 594 Q881 594 881 582 Q881 574 876 551 Q872 532 872 519 Q872 480 767 441 Q755 436 625 396 L639 303 Q756 296 825 259 Q902 217 952 118 Q971 77 971 60 ZM244 716 Q244 694 241 650 Q238 607 238 585 L232 411 Q221 150 221 4 L221 -4 Q221 -27 215 -36 Q209 -45 187 -45 Q87 -45 75 -42 Q57 -37 57 -4 Q57 399 144 622 Q188 735 226 735 Q244 735 244 716 ZM540 83 Q540 110 533 148 Q524 180 518 212 Q489 212 463 198 Q432 180 432 154 Q432 122 469 98 Q503 77 535 78 L540 78 L540 83 Z" /><glyph glyph-name="uni307C" unicode="&#x307c;" d="M997 796 Q997 787 978 765 Q960 744 950 744 Q947 744 869 823 Q850 841 850 847 Q850 856 879 856 Q900 856 947 837 Q997 814 997 796 ZM912 716 Q912 706 894 685 Q875 664 865 664 Q862 664 784 743 Q765 761 765 767 Q765 776 794 776 Q815 776 862 757 Q912 734 912 716 ZM971 60 Q971 44 915 27 Q867 12 843 12 Q831 12 815 56 Q791 115 758 158 Q712 215 663 215 Q695 87 695 60 Q695 13 662 -14 Q628 -40 582 -40 Q307 -40 307 127 Q307 194 374 242 Q428 279 504 290 L497 363 Q395 342 329 342 Q250 342 250 379 Q250 404 274 438 Q298 471 322 471 Q324 471 342 462 Q359 453 374 453 Q432 453 492 473 Q491 477 491 488 Q491 519 497 583 Q416 574 364 574 Q305 574 305 608 Q305 629 330 658 Q356 689 375 689 Q380 689 392 680 Q401 672 409 672 Q431 672 500 687 Q601 709 719 755 L750 766 Q763 766 763 755 Q763 761 758 731 Q752 704 752 683 Q752 658 717 643 Q688 630 621 608 Q617 585 617 556 Q617 532 620 508 Q745 541 837 581 L869 594 Q881 594 881 582 Q881 574 876 551 Q872 532 872 519 Q872 480 768 441 Q754 436 625 396 L639 303 Q756 296 825 259 Q902 217 952 118 Q971 77 971 60 ZM244 716 Q244 694 241 650 Q238 607 238 585 Q238 572 232 404 Q221 146 221 4 L221 -4 Q221 -27 215 -36 Q209 -45 187 -45 Q87 -45 75 -42 Q57 -37 57 -4 Q57 399 144 622 Q188 735 226 735 Q244 735 244 716 ZM540 83 Q540 110 533 148 Q524 180 518 212 Q488 212 463 198 Q432 182 432 154 Q432 122 471 98 Q502 78 540 78 L540 83 Z" /><glyph glyph-name="uni307D" unicode="&#x307d;" d="M993 762 Q993 724 967 698 Q941 672 903 672 Q864 672 839 698 Q813 723 813 762 Q813 800 839 826 Q865 853 903 853 Q940 853 968 827 Q993 799 993 762 ZM971 60 Q971 44 915 27 Q867 12 843 12 Q831 12 815 56 Q791 115 758 158 Q712 215 663 215 Q695 87 695 60 Q695 13 662 -14 Q628 -40 582 -40 Q307 -40 307 127 Q307 194 374 242 Q428 279 504 290 L497 363 Q395 342 329 342 Q250 342 250 379 Q250 404 274 438 Q298 471 322 471 Q324 471 342 462 Q359 453 374 453 Q432 453 492 473 Q491 477 491 488 Q491 519 497 583 Q416 574 364 574 Q305 574 305 608 Q305 629 330 658 Q356 689 375 689 Q380 689 392 680 Q401 672 409 672 Q431 672 500 687 Q601 709 719 755 L750 766 Q763 766 763 755 Q763 761 758 731 Q752 704 752 683 Q752 658 717 643 Q688 630 621 608 Q617 585 617 556 Q617 532 620 508 Q745 541 837 581 L869 594 Q881 594 881 582 Q881 574 876 551 Q872 532 872 519 Q872 480 768 441 Q754 436 625 396 L639 303 Q756 296 825 259 Q902 217 952 118 Q971 77 971 60 ZM244 716 Q244 694 241 650 Q238 607 238 585 Q238 572 232 404 Q221 146 221 4 L221 -4 Q221 -27 215 -36 Q209 -45 187 -45 Q87 -45 75 -42 Q57 -37 57 -4 Q57 399 144 622 Q188 735 226 735 Q244 735 244 716 ZM949 761 Q949 779 936 794 Q922 808 903 808 Q884 808 870 794 Q857 780 857 761 Q857 741 870 728 Q883 715 903 715 Q922 715 936 728 Q949 743 949 761 ZM540 83 Q540 110 533 148 Q524 180 518 212 Q488 212 463 198 Q432 182 432 154 Q432 122 471 98 Q502 78 540 78 L540 83 Z" /><glyph glyph-name="uni307E" unicode="&#x307e;" d="M899 42 Q899 32 884 12 Q830 -60 814 -60 Q803 -60 776 -39 Q760 -25 728 1 L679 41 Q624 83 572 105 Q563 31 502 -13 Q445 -55 368 -55 Q287 -55 235 -20 Q173 18 173 97 Q173 261 416 261 L419 325 Q338 316 261 316 Q58 316 58 366 Q58 387 90 422 Q122 456 141 456 L163 442 Q182 429 198 429 Q318 429 421 446 L428 554 Q278 542 244 542 Q113 542 113 578 Q113 612 142 644 Q173 678 190 678 Q196 678 209 666 Q221 654 233 654 Q336 654 444 678 Q450 711 488 745 Q521 773 537 773 Q560 773 560 709 L559 694 Q609 701 724 725 Q727 725 746 731 Q761 736 767 736 Q778 736 778 725 Q778 719 769 698 L756 670 Q735 616 553 577 Q553 507 555 466 Q677 478 780 515 Q802 523 807 523 Q817 523 817 506 L792 446 Q768 387 560 346 L563 245 Q680 219 834 109 Q899 61 899 42 ZM425 113 Q425 123 420 140 Q401 161 368 161 Q342 161 320 144 Q300 127 300 99 Q300 52 356 52 Q384 52 404 69 Q425 86 425 113 Z" /></font>
</defs>
</svg>
